STARTFONT 2.1
COMMENT
COMMENT Converted from TrueType font "arial.ttf" by "ttf2bdf 2.6".
COMMENT
FONT -FreeType-Arial-Medium-R-Normal--25-180-100-100-P-120-ISO10646-1
SIZE 18 100 100
FONTBOUNDINGBOX 44 33 -17 -8
STARTPROPERTIES 22
FOUNDRY "FreeType"
FAMILY_NAME "Arial"
WEIGHT_NAME "Medium"
SLANT "R"
SETWIDTH_NAME "Normal"
ADD_STYLE_NAME ""
PIXEL_SIZE 25
POINT_SIZE 180
RESOLUTION_X 100
RESOLUTION_Y 100
SPACING "P"
AVERAGE_WIDTH 120
CHARSET_REGISTRY "ISO10646"
CHARSET_ENCODING "1"
FONT_ASCENT 22
FONT_DESCENT 5
COPYRIGHT "Typeface © The Monotype Corporation plc. Data © The Monotype Corporation plc/Type Solutions Inc. 1990-1992. All Rights Reserved"
_TTF_FONTFILE "arial.ttf"
_TTF_PSNAME "ArialMT"
_XFREE86_GLYPH_RANGES "32_126 160_383 399 402 416_417 431_432 461_476 506_511 601 710_711 713 728_733 768_769 771 777 803 894 900_906 908 910_929 931_974 1025_1036 1038_1103 1105_1116 1118_1119 1168_1171 1174_1175 1178_1181 1186_1187 1198_1203 1208_1211 1240_1241 1256_1257 1456_1475 1488_1514 1520_1524 1548 1563 1567 1569_1594 1600_1621 1632_1773 1776_1790 7808_7813 7840_7929 8204_8207 8211_8213 8215_8222 8224_8226 8230 8234_8238 8240 8242_8243 8249_8250 8252 8254 8260 8298_8303 8319 8355_8356 8359"
_XFREE86_GLYPH_RANGES "8362_8364 8453 8467 8470 8482 8486 8494 8531_8532 8539_8542 8592_8597 8616 8706 8710 8719 8721_8722 8725 8729_8730 8734_8735 8745 8747 8776 8800_8801 8804_8805 8962 8976 8992_8993 9472 9474 9484 9488 9492 9496 9500 9508 9516 9524 9532 9552_9580 9600 9604 9608 9612 9616_9619 9632_9633 9642_9644 9650 9658 9660 9668 9674_9675 9679 9688_9689 9702 9786_9788 9792 9794 9824 9827 9829_9830 9834_9835 59393_59397 59416 59450 61441_61442 61444_61489 64257_64258 64285_64288 64298_64310"
_XFREE86_GLYPH_RANGES "64312_64316 64318 64320_64321 64323_64324 64326_64433 64467_64487 64508_64511 64606_64610 64830_64831 65010 65152_65276 65532"
ENDPROPERTIES
CHARS 1419
STARTCHAR 0020
ENCODING 32
SWIDTH 240 0
DWIDTH 6 0
BBX 1 1 0 0
BITMAP
00
ENDCHAR
STARTCHAR 0021
ENCODING 33
SWIDTH 320 0
DWIDTH 8 0
BBX 2 18 3 0
BITMAP
C0
C0
C0
C0
C0
C0
C0
C0
C0
C0
C0
C0
C0
C0
00
00
C0
C0
ENDCHAR
STARTCHAR 0022
ENCODING 34
SWIDTH 360 0
DWIDTH 9 0
BBX 7 6 1 12
BITMAP
C6
C6
C6
C6
C6
C6
ENDCHAR
STARTCHAR 0023
ENCODING 35
SWIDTH 560 0
DWIDTH 14 0
BBX 14 18 0 0
BITMAP
0618
0618
0E30
0C30
0C30
FFFC
FFFC
1860
1860
1860
1860
FFFC
FFFC
30C0
30C0
31C0
6180
6180
ENDCHAR
STARTCHAR 0024
ENCODING 36
SWIDTH 560 0
DWIDTH 14 0
BBX 11 21 1 -2
BITMAP
0400
1F00
7FC0
64C0
C460
C400
C400
E400
7C00
3F00
07C0
04C0
0460
0460
C460
E4E0
65C0
7FC0
1F00
0400
0400
ENDCHAR
STARTCHAR 0025
ENCODING 37
SWIDTH 880 0
DWIDTH 22 0
BBX 19 18 1 0
BITMAP
3C0600
7E0E00
E70C00
C31C00
C31800
C33800
C33000
E77000
7E6780
3CCFC0
00DCE0
019860
019860
031860
031860
061CE0
060FC0
0C0780
ENDCHAR
STARTCHAR 0026
ENCODING 38
SWIDTH 680 0
DWIDTH 17 0
BBX 15 18 1 0
BITMAP
0F80
1FC0
38E0
3060
3060
38E0
1DC0
0F80
1E00
3B00
618C
C1DC
C0F8
C070
E078
70FC
3FDE
1F0C
ENDCHAR
STARTCHAR 0027
ENCODING 39
SWIDTH 200 0
DWIDTH 5 0
BBX 2 6 1 12
BITMAP
C0
C0
C0
C0
C0
C0
ENDCHAR
STARTCHAR 0028
ENCODING 40
SWIDTH 320 0
DWIDTH 8 0
BBX 6 23 2 -5
BITMAP
0C
18
30
30
60
60
60
C0
C0
C0
C0
C0
C0
C0
C0
C0
60
60
60
30
30
18
0C
ENDCHAR
STARTCHAR 0029
ENCODING 41
SWIDTH 320 0
DWIDTH 8 0
BBX 6 23 0 -5
BITMAP
C0
60
30
30
18
18
18
0C
0C
0C
0C
0C
0C
0C
0C
1C
18
18
38
30
30
60
C0
ENDCHAR
STARTCHAR 002A
ENCODING 42
SWIDTH 400 0
DWIDTH 10 0
BBX 8 8 1 10
BITMAP
18
18
9B
FF
3C
3C
66
24
ENDCHAR
STARTCHAR 002B
ENCODING 43
SWIDTH 600 0
DWIDTH 15 0
BBX 12 12 1 3
BITMAP
0600
0600
0600
0600
0600
FFF0
FFF0
0600
0600
0600
0600
0600
ENDCHAR
STARTCHAR 002C
ENCODING 44
SWIDTH 280 0
DWIDTH 7 0
BBX 2 6 2 -4
BITMAP
C0
C0
40
40
C0
80
ENDCHAR
STARTCHAR 002D
ENCODING 45
SWIDTH 320 0
DWIDTH 8 0
BBX 6 2 1 5
BITMAP
FC
FC
ENDCHAR
STARTCHAR 002E
ENCODING 46
SWIDTH 280 0
DWIDTH 7 0
BBX 2 2 2 0
BITMAP
C0
C0
ENDCHAR
STARTCHAR 002F
ENCODING 47
SWIDTH 280 0
DWIDTH 7 0
BBX 7 18 0 0
BITMAP
06
06
0C
0C
0C
1C
18
18
18
30
30
30
30
60
60
60
C0
C0
ENDCHAR
STARTCHAR 0030
ENCODING 48
SWIDTH 560 0
DWIDTH 14 0
BBX 12 18 1 0
BITMAP
1F80
3FC0
70E0
6060
C030
C030
C030
C030
C030
C030
C030
C030
C030
C030
6060
70E0
3FC0
1F80
ENDCHAR
STARTCHAR 0031
ENCODING 49
SWIDTH 560 0
DWIDTH 14 0
BBX 7 18 2 0
BITMAP
06
06
1E
3E
F6
E6
06
06
06
06
06
06
06
06
06
06
06
06
ENDCHAR
STARTCHAR 0032
ENCODING 50
SWIDTH 560 0
DWIDTH 14 0
BBX 12 18 1 0
BITMAP
1F80
3FC0
70E0
C070
C030
0030
0030
0060
0060
00C0
0180
0300
0E00
1C00
3000
6000
FFF0
FFF0
ENDCHAR
STARTCHAR 0033
ENCODING 51
SWIDTH 560 0
DWIDTH 14 0
BBX 12 18 1 0
BITMAP
1F00
3FC0
70C0
E060
C060
0060
01C0
0F80
0FC0
0060
0030
0030
0030
C030
E070
60E0
3FC0
1F00
ENDCHAR
STARTCHAR 0034
ENCODING 52
SWIDTH 560 0
DWIDTH 14 0
BBX 12 18 1 0
BITMAP
00C0
01C0
03C0
03C0
06C0
0EC0
0CC0
18C0
38C0
30C0
60C0
E0C0
FFF0
FFF0
00C0
00C0
00C0
00C0
ENDCHAR
STARTCHAR 0035
ENCODING 53
SWIDTH 560 0
DWIDTH 14 0
BBX 12 18 1 0
BITMAP
3FE0
3FE0
7000
6000
6000
6000
6F80
FFC0
E0E0
0070
0030
0030
0030
C030
C060
60E0
3FC0
1F00
ENDCHAR
STARTCHAR 0036
ENCODING 54
SWIDTH 560 0
DWIDTH 14 0
BBX 12 18 1 0
BITMAP
0F80
3FC0
30E0
6070
6030
C000
CF80
DFC0
F0E0
E070
C030
C030
C030
C030
6060
70E0
3FC0
0F80
ENDCHAR
STARTCHAR 0037
ENCODING 55
SWIDTH 560 0
DWIDTH 14 0
BBX 12 18 1 0
BITMAP
FFF0
FFF0
0060
00C0
00C0
0180
0180
0300
0300
0600
0600
0C00
0C00
0C00
1800
1800
1800
1800
ENDCHAR
STARTCHAR 0038
ENCODING 56
SWIDTH 560 0
DWIDTH 14 0
BBX 12 18 1 0
BITMAP
0F00
3FC0
70C0
6060
6060
6060
30C0
1F80
3FC0
70E0
E070
C030
C030
C030
C070
70E0
3FC0
1F80
ENDCHAR
STARTCHAR 0039
ENCODING 57
SWIDTH 560 0
DWIDTH 14 0
BBX 12 18 1 0
BITMAP
1F00
3FC0
70E0
E060
C030
C030
C030
C030
E070
70F0
3FB0
1F30
0030
C060
C060
60C0
7F80
1F00
ENDCHAR
STARTCHAR 003A
ENCODING 58
SWIDTH 280 0
DWIDTH 7 0
BBX 2 13 2 0
BITMAP
C0
C0
00
00
00
00
00
00
00
00
00
C0
C0
ENDCHAR
STARTCHAR 003B
ENCODING 59
SWIDTH 280 0
DWIDTH 7 0
BBX 2 17 2 -4
BITMAP
C0
C0
00
00
00
00
00
00
00
00
00
C0
C0
40
40
C0
80
ENDCHAR
STARTCHAR 003C
ENCODING 60
SWIDTH 600 0
DWIDTH 15 0
BBX 12 11 1 3
BITMAP
0010
00F0
03E0
0F00
7800
C000
7800
0F00
03E0
00F0
0010
ENDCHAR
STARTCHAR 003D
ENCODING 61
SWIDTH 600 0
DWIDTH 15 0
BBX 12 8 1 5
BITMAP
FFF0
FFF0
0000
0000
0000
0000
FFF0
FFF0
ENDCHAR
STARTCHAR 003E
ENCODING 62
SWIDTH 600 0
DWIDTH 15 0
BBX 12 11 1 3
BITMAP
8000
F000
7C00
0F00
01E0
0030
01E0
0F00
7C00
F000
8000
ENDCHAR
STARTCHAR 003F
ENCODING 63
SWIDTH 560 0
DWIDTH 14 0
BBX 12 18 1 0
BITMAP
1F80
3FC0
70E0
E070
C030
0030
0070
00E0
01C0
0380
0300
0600
0600
0600
0000
0000
0600
0600
ENDCHAR
STARTCHAR 0040
ENCODING 64
SWIDTH 1000 0
DWIDTH 25 0
BBX 23 23 1 -5
BITMAP
00FE00
03FFC0
0F81E0
1C0070
380038
307998
61FD9C
63878C
67030C
C6030C
CC030C
CC030C
CC0318
CC0618
CC0E30
E61E70
67FFE0
71E386
38000C
1C0038
0F00F0
07FFE0
00FF00
ENDCHAR
STARTCHAR 0041
ENCODING 65
SWIDTH 680 0
DWIDTH 17 0
BBX 15 18 1 0
BITMAP
0380
0380
06C0
06C0
0EC0
0C60
0C60
1C70
1830
1830
3FF8
3FF8
3018
600C
600C
600C
C006
C006
ENDCHAR
STARTCHAR 0042
ENCODING 66
SWIDTH 680 0
DWIDTH 17 0
BBX 14 18 2 0
BITMAP
FFC0
FFF0
C030
C018
C018
C018
C018
C030
FFE0
FFF0
C038
C01C
C00C
C00C
C00C
C038
FFF8
FFE0
ENDCHAR
STARTCHAR 0043
ENCODING 67
SWIDTH 720 0
DWIDTH 18 0
BBX 15 18 2 0
BITMAP
07E0
1FF8
381C
700C
6006
E000
C000
C000
C000
C000
C000
C000
6006
600E
700C
3838
1FF0
07E0
ENDCHAR
STARTCHAR 0044
ENCODING 68
SWIDTH 720 0
DWIDTH 18 0
BBX 15 18 2 0
BITMAP
FFC0
FFF0
C038
C01C
C00C
C00E
C006
C006
C006
C006
C006
C006
C00E
C00C
C01C
C038
FFF0
FFC0
ENDCHAR
STARTCHAR 0045
ENCODING 69
SWIDTH 680 0
DWIDTH 17 0
BBX 14 18 2 0
BITMAP
FFFC
FFFC
C000
C000
C000
C000
C000
C000
FFF8
FFF8
C000
C000
C000
C000
C000
C000
FFFC
FFFC
ENDCHAR
STARTCHAR 0046
ENCODING 70
SWIDTH 600 0
DWIDTH 15 0
BBX 12 18 2 0
BITMAP
FFF0
FFF0
C000
C000
C000
C000
C000
C000
FFE0
FFE0
C000
C000
C000
C000
C000
C000
C000
C000
ENDCHAR
STARTCHAR 0047
ENCODING 71
SWIDTH 760 0
DWIDTH 19 0
BBX 15 18 2 0
BITMAP
07E0
1FF8
383C
700C
600E
6004
C000
C000
C000
C0FE
C0FE
C006
6006
6006
7006
3C1E
1FF8
07E0
ENDCHAR
STARTCHAR 0048
ENCODING 72
SWIDTH 720 0
DWIDTH 18 0
BBX 14 18 2 0
BITMAP
C00C
C00C
C00C
C00C
C00C
C00C
C00C
C00C
FFFC
FFFC
C00C
C00C
C00C
C00C
C00C
C00C
C00C
C00C
ENDCHAR
STARTCHAR 0049
ENCODING 73
SWIDTH 240 0
DWIDTH 6 0
BBX 2 18 2 0
BITMAP
C0
C0
C0
C0
C0
C0
C0
C0
C0
C0
C0
C0
C0
C0
C0
C0
C0
C0
ENDCHAR
STARTCHAR 004A
ENCODING 74
SWIDTH 520 0
DWIDTH 13 0
BBX 10 18 1 0
BITMAP
00C0
00C0
00C0
00C0
00C0
00C0
00C0
00C0
00C0
00C0
00C0
00C0
C0C0
C0C0
C0C0
6180
7F80
3E00
ENDCHAR
STARTCHAR 004B
ENCODING 75
SWIDTH 680 0
DWIDTH 17 0
BBX 15 18 2 0
BITMAP
C01C
C038
C070
C0E0
C1C0
C380
C700
CE00
DF00
FF00
F380
E1C0
C0E0
C070
C070
C038
C01C
C00E
ENDCHAR
STARTCHAR 004C
ENCODING 76
SWIDTH 560 0
DWIDTH 14 0
BBX 11 18 2 0
BITMAP
C000
C000
C000
C000
C000
C000
C000
C000
C000
C000
C000
C000
C000
C000
C000
C000
FFE0
FFE0
ENDCHAR
STARTCHAR 004D
ENCODING 77
SWIDTH 840 0
DWIDTH 21 0
BBX 17 18 2 0
BITMAP
E00380
F00780
F00780
D80D80
D80D80
D80D80
CC1980
CC1980
CC1980
C63180
C63180
C63180
C36180
C36180
C36180
C1C180
C1C180
C1C180
ENDCHAR
STARTCHAR 004E
ENCODING 78
SWIDTH 720 0
DWIDTH 18 0
BBX 14 18 2 0
BITMAP
C00C
E00C
F00C
F00C
D80C
CC0C
CC0C
C60C
C30C
C30C
C18C
C0CC
C0CC
C06C
C03C
C03C
C01C
C00C
ENDCHAR
STARTCHAR 004F
ENCODING 79
SWIDTH 760 0
DWIDTH 19 0
BBX 16 18 2 0
BITMAP
07E0
1FF8
3C3C
700E
6006
6006
C003
C003
C003
C003
C003
C003
6006
6006
700E
383C
1FF8
07E0
ENDCHAR
STARTCHAR 0050
ENCODING 80
SWIDTH 680 0
DWIDTH 17 0
BBX 14 18 2 0
BITMAP
FFE0
FFF0
C038
C01C
C00C
C00C
C00C
C01C
C038
FFF0
FFE0
C000
C000
C000
C000
C000
C000
C000
ENDCHAR
STARTCHAR 0051
ENCODING 81
SWIDTH 760 0
DWIDTH 19 0
BBX 16 19 2 -1
BITMAP
07E0
1FF8
3C3C
700E
6006
6006
C003
C003
C003
C003
C003
C003
6007
60C6
70FE
3C3C
1FFE
07F7
0003
ENDCHAR
STARTCHAR 0052
ENCODING 82
SWIDTH 720 0
DWIDTH 18 0
BBX 15 18 2 0
BITMAP
FFE0
FFF8
C038
C00C
C00C
C00C
C01C
C038
FFF8
FFE0
C1C0
C0C0
C0E0
C070
C038
C038
C01C
C00E
ENDCHAR
STARTCHAR 0053
ENCODING 83
SWIDTH 680 0
DWIDTH 17 0
BBX 14 18 2 0
BITMAP
0FC0
1FF0
3838
601C
600C
6000
7000
3F00
1FE0
03F8
0038
000C
C00C
C00C
601C
7838
3FF0
0FC0
ENDCHAR
STARTCHAR 0054
ENCODING 84
SWIDTH 560 0
DWIDTH 14 0
BBX 14 18 0 0
BITMAP
FFFC
FFFC
0300
0300
0300
0300
0300
0300
0300
0300
0300
0300
0300
0300
0300
0300
0300
0300
ENDCHAR
STARTCHAR 0055
ENCODING 85
SWIDTH 720 0
DWIDTH 18 0
BBX 14 18 2 0
BITMAP
C00C
C00C
C00C
C00C
C00C
C00C
C00C
C00C
C00C
C00C
C00C
C00C
C00C
C00C
6018
7038
3FF0
0FC0
ENDCHAR
STARTCHAR 0056
ENCODING 86
SWIDTH 680 0
DWIDTH 17 0
BBX 15 18 1 0
BITMAP
C006
E00E
600C
600C
701C
3018
3018
1830
1830
1830
0C60
0C60
0EE0
06C0
06C0
07C0
0380
0380
ENDCHAR
STARTCHAR 0057
ENCODING 87
SWIDTH 1040 0
DWIDTH 26 0
BBX 25 18 0 0
BITMAP
C01C0180
C01C0380
60360300
60360300
60360300
30770600
30630600
30630600
30630E00
18C18C00
18C18C00
18C18C00
0D80D800
0D80D800
0D80D800
0F80F800
07007000
07007000
ENDCHAR
STARTCHAR 0058
ENCODING 88
SWIDTH 680 0
DWIDTH 17 0
BBX 17 18 0 0
BITMAP
700700
380E00
1C1C00
0C3800
0E3800
077000
036000
01C000
01C000
03E000
036000
077000
0E3800
1C1C00
180C00
380E00
700700
E00380
ENDCHAR
STARTCHAR 0059
ENCODING 89
SWIDTH 640 0
DWIDTH 16 0
BBX 16 18 0 0
BITMAP
C007
600E
300C
381C
1C38
0C30
0E70
0660
03C0
03C0
0180
0180
0180
0180
0180
0180
0180
0180
ENDCHAR
STARTCHAR 005A
ENCODING 90
SWIDTH 600 0
DWIDTH 15 0
BBX 14 18 0 0
BITMAP
7FFC
7FFC
0018
0038
0070
00E0
00C0
01C0
0380
0700
0600
0E00
1C00
3800
3000
6000
FFFC
FFFC
ENDCHAR
STARTCHAR 005B
ENCODING 91
SWIDTH 280 0
DWIDTH 7 0
BBX 5 23 2 -5
BITMAP
F8
F8
C0
C0
C0
C0
C0
C0
C0
C0
C0
C0
C0
C0
C0
C0
C0
C0
C0
C0
C0
F8
F8
ENDCHAR
STARTCHAR 005C
ENCODING 92
SWIDTH 280 0
DWIDTH 7 0
BBX 7 18 0 0
BITMAP
C0
C0
60
60
60
30
30
30
30
18
18
18
18
0C
0C
0C
06
06
ENDCHAR
STARTCHAR 005D
ENCODING 93
SWIDTH 280 0
DWIDTH 7 0
BBX 5 23 0 -5
BITMAP
F8
F8
18
18
18
18
18
18
18
18
18
18
18
18
18
18
18
18
18
18
18
F8
F8
ENDCHAR
STARTCHAR 005E
ENCODING 94
SWIDTH 480 0
DWIDTH 12 0
BBX 10 10 1 8
BITMAP
0C00
1E00
1E00
3300
3300
3300
6180
6180
6180
C0C0
ENDCHAR
STARTCHAR 005F
ENCODING 95
SWIDTH 560 0
DWIDTH 14 0
BBX 15 2 -1 -5
BITMAP
FFFE
FFFE
ENDCHAR
STARTCHAR 0060
ENCODING 96
SWIDTH 320 0
DWIDTH 8 0
BBX 4 3 1 15
BITMAP
E0
60
30
ENDCHAR
STARTCHAR 0061
ENCODING 97
SWIDTH 560 0
DWIDTH 14 0
BBX 12 13 1 0
BITMAP
1F80
7FC0
E0E0
C060
0060
03E0
3FE0
7C60
C060
C0E0
E1E0
7F60
3E30
ENDCHAR
STARTCHAR 0062
ENCODING 98
SWIDTH 560 0
DWIDTH 14 0
BBX 11 18 2 0
BITMAP
C000
C000
C000
C000
C000
CF00
DF80
F1C0
E0C0
C060
C060
C060
C060
C060
E0C0
F1C0
DF80
CF00
ENDCHAR
STARTCHAR 0063
ENCODING 99
SWIDTH 520 0
DWIDTH 13 0
BBX 11 13 1 0
BITMAP
1F80
3FC0
70E0
E060
C000
C000
C000
C000
C060
E0E0
70C0
3F80
1F00
ENDCHAR
STARTCHAR 0064
ENCODING 100
SWIDTH 560 0
DWIDTH 14 0
BBX 11 18 1 0
BITMAP
0060
0060
0060
0060
0060
1E60
3F60
71E0
E0E0
C060
C060
C060
C060
C060
60E0
71E0
3F60
1E60
ENDCHAR
STARTCHAR 0065
ENCODING 101
SWIDTH 560 0
DWIDTH 14 0
BBX 12 13 1 0
BITMAP
1F80
3FC0
70E0
6060
C030
FFF0
FFF0
C000
C000
E030
7060
3FC0
1F80
ENDCHAR
STARTCHAR 0066
ENCODING 102
SWIDTH 280 0
DWIDTH 7 0
BBX 7 18 0 0
BITMAP
1E
3E
30
30
30
FE
FE
30
30
30
30
30
30
30
30
30
30
30
ENDCHAR
STARTCHAR 0067
ENCODING 103
SWIDTH 560 0
DWIDTH 14 0
BBX 11 18 1 -5
BITMAP
1E60
3F60
71E0
60E0
C060
C060
C060
C060
C060
E0E0
71E0
3F60
1E60
0060
C0E0
E1C0
7FC0
3F00
ENDCHAR
STARTCHAR 0068
ENCODING 104
SWIDTH 560 0
DWIDTH 14 0
BBX 10 18 2 0
BITMAP
C000
C000
C000
C000
C000
CF00
DF80
F1C0
E0C0
C0C0
C0C0
C0C0
C0C0
C0C0
C0C0
C0C0
C0C0
C0C0
ENDCHAR
STARTCHAR 0069
ENCODING 105
SWIDTH 240 0
DWIDTH 6 0
BBX 2 18 2 0
BITMAP
C0
C0
00
00
00
C0
C0
C0
C0
C0
C0
C0
C0
C0
C0
C0
C0
C0
ENDCHAR
STARTCHAR 006A
ENCODING 106
SWIDTH 240 0
DWIDTH 6 0
BBX 5 23 -1 -5
BITMAP
18
18
00
00
00
18
18
18
18
18
18
18
18
18
18
18
18
18
18
18
18
F8
F0
ENDCHAR
STARTCHAR 006B
ENCODING 107
SWIDTH 520 0
DWIDTH 13 0
BBX 11 18 2 0
BITMAP
C000
C000
C000
C000
C000
C1C0
C380
C700
CE00
DC00
F800
FC00
CE00
C700
C300
C180
C1C0
C0E0
ENDCHAR
STARTCHAR 006C
ENCODING 108
SWIDTH 240 0
DWIDTH 6 0
BBX 2 18 2 0
BITMAP
C0
C0
C0
C0
C0
C0
C0
C0
C0
C0
C0
C0
C0
C0
C0
C0
C0
C0
ENDCHAR
STARTCHAR 006D
ENCODING 109
SWIDTH 880 0
DWIDTH 22 0
BBX 18 13 2 0
BITMAP
CF0F00
DFBF80
F1F1C0
E0E0C0
C0C0C0
C0C0C0
C0C0C0
C0C0C0
C0C0C0
C0C0C0
C0C0C0
C0C0C0
C0C0C0
ENDCHAR
STARTCHAR 006E
ENCODING 110
SWIDTH 560 0
DWIDTH 14 0
BBX 10 13 2 0
BITMAP
CF00
DF80
F1C0
E0C0
C0C0
C0C0
C0C0
C0C0
C0C0
C0C0
C0C0
C0C0
C0C0
ENDCHAR
STARTCHAR 006F
ENCODING 111
SWIDTH 560 0
DWIDTH 14 0
BBX 12 13 1 0
BITMAP
1F80
3FC0
70E0
E070
C030
C030
C030
C030
C030
E070
70E0
3FC0
1F80
ENDCHAR
STARTCHAR 0070
ENCODING 112
SWIDTH 560 0
DWIDTH 14 0
BBX 11 18 2 -5
BITMAP
CF00
DF80
F1C0
E0C0
C060
C060
C060
C060
C060
E0C0
F1C0
DF80
CF00
C000
C000
C000
C000
C000
ENDCHAR
STARTCHAR 0071
ENCODING 113
SWIDTH 560 0
DWIDTH 14 0
BBX 11 18 1 -5
BITMAP
1E60
3F60
71E0
E0E0
C060
C060
C060
C060
C060
60E0
71E0
3FE0
1E60
0060
0060
0060
0060
0060
ENDCHAR
STARTCHAR 0072
ENCODING 114
SWIDTH 320 0
DWIDTH 8 0
BBX 6 13 2 0
BITMAP
DC
FC
E0
C0
C0
C0
C0
C0
C0
C0
C0
C0
C0
ENDCHAR
STARTCHAR 0073
ENCODING 115
SWIDTH 520 0
DWIDTH 13 0
BBX 11 13 1 0
BITMAP
3F00
7FC0
E0C0
C000
E000
7E00
3FC0
07E0
00E0
C060
60E0
7FC0
1F00
ENDCHAR
STARTCHAR 0074
ENCODING 116
SWIDTH 280 0
DWIDTH 7 0
BBX 7 17 0 0
BITMAP
30
30
30
30
FE
FE
30
30
30
30
30
30
30
30
30
3E
1E
ENDCHAR
STARTCHAR 0075
ENCODING 117
SWIDTH 560 0
DWIDTH 14 0
BBX 10 13 2 0
BITMAP
C0C0
C0C0
C0C0
C0C0
C0C0
C0C0
C0C0
C0C0
C0C0
C1C0
E3C0
7EC0
3CC0
ENDCHAR
STARTCHAR 0076
ENCODING 118
SWIDTH 440 0
DWIDTH 11 0
BBX 11 13 0 0
BITMAP
C060
C060
60C0
60C0
60C0
3180
3180
1B00
1B00
1B00
0E00
0E00
0400
ENDCHAR
STARTCHAR 0077
ENCODING 119
SWIDTH 760 0
DWIDTH 19 0
BBX 19 13 0 0
BITMAP
C04060
C0E060
60E0E0
61B0C0
61B0C0
31B180
331980
1B1B80
1B1B00
1B0B00
0E0E00
0E0E00
060600
ENDCHAR
STARTCHAR 0078
ENCODING 120
SWIDTH 440 0
DWIDTH 11 0
BBX 11 13 0 0
BITMAP
E060
60C0
31C0
3980
1B00
0E00
0E00
0E00
1B00
3B80
3180
60C0
E0E0
ENDCHAR
STARTCHAR 0079
ENCODING 121
SWIDTH 480 0
DWIDTH 12 0
BBX 11 18 1 -5
BITMAP
C060
C060
60C0
60C0
6180
3180
3180
3300
1B00
1E00
1E00
0E00
0C00
0C00
0C00
1800
7800
7000
ENDCHAR
STARTCHAR 007A
ENCODING 122
SWIDTH 480 0
DWIDTH 12 0
BBX 11 13 0 0
BITMAP
7FE0
7FE0
00C0
0180
0300
0700
0E00
1C00
3800
7000
6000
FFE0
FFE0
ENDCHAR
STARTCHAR 007B
ENCODING 123
SWIDTH 320 0
DWIDTH 8 0
BBX 8 23 1 -5
BITMAP
07
1F
18
18
18
18
18
18
18
30
E0
E0
30
18
18
18
18
18
18
18
18
0F
07
ENDCHAR
STARTCHAR 007C
ENCODING 124
SWIDTH 240 0
DWIDTH 6 0
BBX 2 23 2 -5
BITMAP
C0
C0
C0
C0
C0
C0
C0
C0
C0
C0
C0
C0
C0
C0
C0
C0
C0
C0
C0
C0
C0
C0
C0
ENDCHAR
STARTCHAR 007D
ENCODING 125
SWIDTH 320 0
DWIDTH 8 0
BBX 8 23 -1 -5
BITMAP
E0
F0
18
18
18
18
18
18
18
0C
07
07
0C
18
18
18
18
18
18
18
18
F0
E0
ENDCHAR
STARTCHAR 007E
ENCODING 126
SWIDTH 600 0
DWIDTH 15 0
BBX 13 4 1 7
BITMAP
3C00
FF18
C7F8
01E0
ENDCHAR
STARTCHAR 00A0
ENCODING 160
SWIDTH 240 0
DWIDTH 6 0
BBX 1 1 0 0
BITMAP
00
ENDCHAR
STARTCHAR 00A1
ENCODING 161
SWIDTH 320 0
DWIDTH 8 0
BBX 2 18 3 -5
BITMAP
C0
C0
00
00
C0
C0
C0
C0
C0
C0
C0
C0
C0
C0
C0
C0
C0
C0
ENDCHAR
STARTCHAR 00A2
ENCODING 162
SWIDTH 560 0
DWIDTH 14 0
BBX 11 23 1 -5
BITMAP
0080
0080
0080
0080
0100
1F00
3FC0
73C0
E2E0
C200
C400
C400
C400
C860
E8E0
79C0
3F80
1F00
1000
1000
2000
2000
2000
ENDCHAR
STARTCHAR 00A3
ENCODING 163
SWIDTH 560 0
DWIDTH 14 0
BBX 13 18 0 0
BITMAP
0780
1FE0
1860
3070
3030
3000
3000
3000
FF00
FF00
1800
1800
1800
1000
3000
7E10
FFF8
60F0
ENDCHAR
STARTCHAR 00A4
ENCODING 164
SWIDTH 560 0
DWIDTH 14 0
BBX 12 12 1 2
BITMAP
4020
EF70
7FE0
30C0
6060
6060
6060
6060
30C0
7FE0
EF70
4020
ENDCHAR
STARTCHAR 00A5
ENCODING 165
SWIDTH 560 0
DWIDTH 14 0
BBX 14 18 0 0
BITMAP
C00C
6018
7038
3030
3870
1860
0CC0
0FC0
0780
7FF8
7FF8
0300
0300
7FF8
7FF8
0300
0300
0300
ENDCHAR
STARTCHAR 00A6
ENCODING 166
SWIDTH 240 0
DWIDTH 6 0
BBX 2 23 2 -5
BITMAP
C0
C0
C0
C0
C0
C0
C0
C0
C0
00
00
00
00
C0
C0
C0
C0
C0
C0
C0
C0
C0
C0
ENDCHAR
STARTCHAR 00A7
ENCODING 167
SWIDTH 560 0
DWIDTH 14 0
BBX 12 23 1 -5
BITMAP
1F00
3FC0
70E0
6060
6000
3800
3E00
6F00
C3C0
C1E0
C070
E030
7030
3C30
0FE0
0780
01C0
00E0
6060
6060
30E0
3FC0
0F80
ENDCHAR
STARTCHAR 00A8
ENCODING 168
SWIDTH 320 0
DWIDTH 8 0
BBX 6 2 1 16
BITMAP
CC
CC
ENDCHAR
STARTCHAR 00A9
ENCODING 169
SWIDTH 720 0
DWIDTH 18 0
BBX 18 18 0 0
BITMAP
03F000
0FFC00
1C0E00
380700
71E380
67F180
CE38C0
CC00C0
CC00C0
CC00C0
CC00C0
CE18C0
67F180
73E380
380700
1C0E00
0FFC00
03F000
ENDCHAR
STARTCHAR 00AA
ENCODING 170
SWIDTH 360 0
DWIDTH 9 0
BBX 6 9 1 9
BITMAP
78
FC
CC
0C
7C
CC
CC
FC
7C
ENDCHAR
STARTCHAR 00AB
ENCODING 171
SWIDTH 560 0
DWIDTH 14 0
BBX 10 11 2 1
BITMAP
18C0
3180
3180
6300
6300
C600
6300
6300
3180
3180
18C0
ENDCHAR
STARTCHAR 00AC
ENCODING 172
SWIDTH 600 0
DWIDTH 15 0
BBX 12 7 1 5
BITMAP
FFF0
FFF0
0030
0030
0030
0030
0030
ENDCHAR
STARTCHAR 00AD
ENCODING 173
SWIDTH 320 0
DWIDTH 8 0
BBX 6 2 1 5
BITMAP
FC
FC
ENDCHAR
STARTCHAR 00AE
ENCODING 174
SWIDTH 720 0
DWIDTH 18 0
BBX 18 18 0 0
BITMAP
03F000
0FFC00
1C0E00
380700
77E380
67F180
C630C0
C630C0
C7F0C0
C7E0C0
C660C0
C660C0
663180
761B80
380700
1C0E00
0FFC00
03F000
ENDCHAR
STARTCHAR 00AF
ENCODING 175
SWIDTH 560 0
DWIDTH 14 0
BBX 15 2 -1 19
BITMAP
FFFE
FFFE
ENDCHAR
STARTCHAR 00B0
ENCODING 176
SWIDTH 400 0
DWIDTH 10 0
BBX 7 7 2 11
BITMAP
38
44
82
82
82
44
38
ENDCHAR
STARTCHAR 00B1
ENCODING 177
SWIDTH 560 0
DWIDTH 14 0
BBX 12 15 1 0
BITMAP
0600
0600
0600
0600
0600
FFF0
FFF0
0600
0600
0600
0600
0600
0000
FFF0
FFF0
ENDCHAR
STARTCHAR 00B2
ENCODING 178
SWIDTH 320 0
DWIDTH 8 0
BBX 8 9 0 9
BITMAP
7E
C3
03
03
06
1C
30
60
FF
ENDCHAR
STARTCHAR 00B3
ENCODING 179
SWIDTH 320 0
DWIDTH 8 0
BBX 8 9 0 9
BITMAP
7E
C3
03
03
0C
03
03
C7
7E
ENDCHAR
STARTCHAR 00B4
ENCODING 180
SWIDTH 320 0
DWIDTH 8 0
BBX 4 3 3 15
BITMAP
70
60
C0
ENDCHAR
STARTCHAR 00B5
ENCODING 181
SWIDTH 560 0
DWIDTH 14 0
BBX 10 18 2 -5
BITMAP
C0C0
C0C0
C0C0
C0C0
C0C0
C0C0
C0C0
C0C0
C0C0
C1C0
E1C0
FFC0
DEC0
C000
C000
C000
C000
C000
ENDCHAR
STARTCHAR 00B6
ENCODING 182
SWIDTH 520 0
DWIDTH 13 0
BBX 13 23 0 -5
BITMAP
1FF8
7FF8
7E60
FE60
FE60
FE60
FE60
7E60
7E60
1E60
0660
0660
0660
0660
0660
0660
0660
0660
0660
0660
0660
0660
0660
ENDCHAR
STARTCHAR 00B7
ENCODING 183
SWIDTH 280 0
DWIDTH 7 0
BBX 2 2 2 8
BITMAP
C0
C0
ENDCHAR
STARTCHAR 00B8
ENCODING 184
SWIDTH 320 0
DWIDTH 8 0
BBX 5 4 1 -4
BITMAP
20
30
18
F0
ENDCHAR
STARTCHAR 00B9
ENCODING 185
SWIDTH 320 0
DWIDTH 8 0
BBX 5 9 1 9
BITMAP
18
78
F8
98
18
18
18
18
18
ENDCHAR
STARTCHAR 00BA
ENCODING 186
SWIDTH 360 0
DWIDTH 9 0
BBX 7 9 1 9
BITMAP
38
7C
EE
C6
C6
C6
EE
7C
38
ENDCHAR
STARTCHAR 00BB
ENCODING 187
SWIDTH 560 0
DWIDTH 14 0
BBX 10 11 2 1
BITMAP
C600
6300
6300
3180
3180
18C0
3180
3180
6300
6300
C600
ENDCHAR
STARTCHAR 00BC
ENCODING 188
SWIDTH 840 0
DWIDTH 21 0
BBX 19 18 1 0
BITMAP
180180
780300
F80700
980600
180C00
181800
183800
183000
186000
00C0C0
01C1C0
0183C0
0302C0
0606C0
0E0CC0
0C0FE0
1800C0
3000C0
ENDCHAR
STARTCHAR 00BD
ENCODING 189
SWIDTH 840 0
DWIDTH 21 0
BBX 19 18 1 0
BITMAP
180180
780380
F80700
980600
180C00
181C00
183800
183000
186000
00E7C0
01CC60
018060
030060
0600C0
0E01C0
0C0300
180600
300FE0
ENDCHAR
STARTCHAR 00BE
ENCODING 190
SWIDTH 840 0
DWIDTH 21 0
BBX 20 18 0 0
BITMAP
7C00E0
C601C0
060180
060300
180700
060E00
060C00
C61800
7C3800
007060
0060E0
00C1E0
01C1E0
038360
030660
0607F0
0E0060
1C0060
ENDCHAR
STARTCHAR 00BF
ENCODING 191
SWIDTH 600 0
DWIDTH 15 0
BBX 11 18 2 -5
BITMAP
0600
0600
0000
0000
0600
0600
0600
0C00
1C00
3800
7000
E000
C000
C060
C0E0
61C0
7F80
1F00
ENDCHAR
STARTCHAR 00C0
ENCODING 192
SWIDTH 680 0
DWIDTH 17 0
BBX 15 23 1 0
BITMAP
0700
0300
0180
0000
0000
0380
0380
06C0
06C0
0EC0
0C60
0C60
1C70
1830
1830
3FF8
3FF8
3018
600C
600C
600C
C006
C006
ENDCHAR
STARTCHAR 00C1
ENCODING 193
SWIDTH 680 0
DWIDTH 17 0
BBX 15 23 1 0
BITMAP
01C0
0180
0300
0000
0000
0380
0380
06C0
06C0
0EC0
0C60
0C60
1C70
1830
1830
3FF8
3FF8
3018
600C
600C
600C
C006
C006
ENDCHAR
STARTCHAR 00C2
ENCODING 194
SWIDTH 680 0
DWIDTH 17 0
BBX 15 23 1 0
BITMAP
0180
03C0
0660
0000
0000
0380
0380
06C0
06C0
0EC0
0C60
0C60
1C70
1830
1830
3FF8
3FF8
3018
600C
600C
600C
C006
C006
ENDCHAR
STARTCHAR 00C3
ENCODING 195
SWIDTH 680 0
DWIDTH 17 0
BBX 15 23 1 0
BITMAP
0730
0FF0
0CE0
0000
0000
0380
0380
06C0
06C0
0EC0
0C60
0C60
1C70
1830
1830
3FF8
3FF8
3018
600C
600C
600C
C006
C006
ENDCHAR
STARTCHAR 00C4
ENCODING 196
SWIDTH 680 0
DWIDTH 17 0
BBX 15 22 1 0
BITMAP
0660
0660
0000
0000
0380
0380
06C0
06C0
0EC0
0C60
0C60
1C70
1830
1830
3FF8
3FF8
3018
600C
600C
600C
C006
C006
ENDCHAR
STARTCHAR 00C5
ENCODING 197
SWIDTH 680 0
DWIDTH 17 0
BBX 15 22 1 0
BITMAP
0380
0440
0440
0440
0380
0380
06C0
06C0
0EC0
0C60
0C60
1C70
1830
1830
3FF8
3FF8
3018
600C
600C
600C
C006
C006
ENDCHAR
STARTCHAR 00C6
ENCODING 198
SWIDTH 1000 0
DWIDTH 25 0
BBX 24 18 0 0
BITMAP
00FFFF
00FFFF
018C00
018C00
030C00
030C00
060C00
060C00
0C0FFE
0C0FFE
180C00
1FFC00
3FFC00
300C00
600C00
600C00
C00FFF
C00FFF
ENDCHAR
STARTCHAR 00C7
ENCODING 199
SWIDTH 720 0
DWIDTH 18 0
BBX 15 22 2 -4
BITMAP
07E0
1FF8
381C
700C
6006
E000
C000
C000
C000
C000
C000
C000
6006
600E
700C
3838
1FF0
07E0
0200
0300
0180
0F00
ENDCHAR
STARTCHAR 00C8
ENCODING 200
SWIDTH 680 0
DWIDTH 17 0
BBX 14 23 2 0
BITMAP
0700
0300
0180
0000
0000
FFFC
FFFC
C000
C000
C000
C000
C000
C000
FFF8
FFF8
C000
C000
C000
C000
C000
C000
FFFC
FFFC
ENDCHAR
STARTCHAR 00C9
ENCODING 201
SWIDTH 680 0
DWIDTH 17 0
BBX 14 23 2 0
BITMAP
01C0
0180
0300
0000
0000
FFFC
FFFC
C000
C000
C000
C000
C000
C000
FFF8
FFF8
C000
C000
C000
C000
C000
C000
FFFC
FFFC
ENDCHAR
STARTCHAR 00CA
ENCODING 202
SWIDTH 680 0
DWIDTH 17 0
BBX 14 23 2 0
BITMAP
0300
0780
0CC0
0000
0000
FFFC
FFFC
C000
C000
C000
C000
C000
C000
FFF8
FFF8
C000
C000
C000
C000
C000
C000
FFFC
FFFC
ENDCHAR
STARTCHAR 00CB
ENCODING 203
SWIDTH 680 0
DWIDTH 17 0
BBX 14 22 2 0
BITMAP
0CC0
0CC0
0000
0000
FFFC
FFFC
C000
C000
C000
C000
C000
C000
FFF8
FFF8
C000
C000
C000
C000
C000
C000
FFFC
FFFC
ENDCHAR
STARTCHAR 00CC
ENCODING 204
SWIDTH 240 0
DWIDTH 6 0
BBX 4 23 1 0
BITMAP
E0
60
30
00
00
60
60
60
60
60
60
60
60
60
60
60
60
60
60
60
60
60
60
ENDCHAR
STARTCHAR 00CD
ENCODING 205
SWIDTH 240 0
DWIDTH 6 0
BBX 4 23 1 0
BITMAP
70
60
C0
00
00
60
60
60
60
60
60
60
60
60
60
60
60
60
60
60
60
60
60
ENDCHAR
STARTCHAR 00CE
ENCODING 206
SWIDTH 240 0
DWIDTH 6 0
BBX 6 23 0 0
BITMAP
30
78
CC
00
00
30
30
30
30
30
30
30
30
30
30
30
30
30
30
30
30
30
30
ENDCHAR
STARTCHAR 00CF
ENCODING 207
SWIDTH 240 0
DWIDTH 6 0
BBX 6 22 0 0
BITMAP
CC
CC
00
00
30
30
30
30
30
30
30
30
30
30
30
30
30
30
30
30
30
30
ENDCHAR
STARTCHAR 00D0
ENCODING 208
SWIDTH 720 0
DWIDTH 18 0
BBX 17 18 0 0
BITMAP
3FF000
3FFC00
300E00
300700
300300
300180
300180
300180
FF8180
FF8180
300180
300180
300380
300300
300700
300E00
3FFC00
3FF000
ENDCHAR
STARTCHAR 00D1
ENCODING 209
SWIDTH 720 0
DWIDTH 18 0
BBX 14 23 2 0
BITMAP
0E60
1FE0
19C0
0000
0000
C00C
E00C
F00C
F00C
D80C
CC0C
CC0C
C60C
C30C
C30C
C18C
C0CC
C0CC
C06C
C03C
C03C
C01C
C00C
ENDCHAR
STARTCHAR 00D2
ENCODING 210
SWIDTH 760 0
DWIDTH 19 0
BBX 16 23 2 0
BITMAP
0700
0300
0180
0000
0000
07E0
1FF8
3C3C
700E
6006
6006
C003
C003
C003
C003
C003
C003
6006
6006
700E
383C
1FF8
07E0
ENDCHAR
STARTCHAR 00D3
ENCODING 211
SWIDTH 760 0
DWIDTH 19 0
BBX 16 23 2 0
BITMAP
01C0
0180
0300
0000
0000
07E0
1FF8
3C3C
700E
6006
6006
C003
C003
C003
C003
C003
C003
6006
6006
700E
383C
1FF8
07E0
ENDCHAR
STARTCHAR 00D4
ENCODING 212
SWIDTH 760 0
DWIDTH 19 0
BBX 16 23 2 0
BITMAP
0180
03C0
0660
0000
0000
07E0
1FF8
3C3C
700E
6006
6006
C003
C003
C003
C003
C003
C003
6006
6006
700E
383C
1FF8
07E0
ENDCHAR
STARTCHAR 00D5
ENCODING 213
SWIDTH 760 0
DWIDTH 19 0
BBX 16 23 2 0
BITMAP
0730
0FF0
0CE0
0000
0000
07E0
1FF8
3C3C
700E
6006
6006
C003
C003
C003
C003
C003
C003
6006
6006
700E
383C
1FF8
07E0
ENDCHAR
STARTCHAR 00D6
ENCODING 214
SWIDTH 760 0
DWIDTH 19 0
BBX 16 22 2 0
BITMAP
0660
0660
0000
0000
07E0
1FF8
3C3C
700E
6006
6006
C003
C003
C003
C003
C003
C003
6006
6006
700E
383C
1FF8
07E0
ENDCHAR
STARTCHAR 00D7
ENCODING 215
SWIDTH 600 0
DWIDTH 15 0
BBX 9 9 2 4
BITMAP
8100
E380
7700
3E00
1C00
3E00
7700
E380
8180
ENDCHAR
STARTCHAR 00D8
ENCODING 216
SWIDTH 760 0
DWIDTH 19 0
BBX 16 19 2 -1
BITMAP
07E3
1FFF
3C3E
300E
601E
603B
C073
C063
C0C3
C183
C303
C703
EE06
7C06
780E
3C3C
7FF8
CFE0
4000
ENDCHAR
STARTCHAR 00D9
ENCODING 217
SWIDTH 720 0
DWIDTH 18 0
BBX 14 23 2 0
BITMAP
0700
0300
0180
0000
0000
C00C
C00C
C00C
C00C
C00C
C00C
C00C
C00C
C00C
C00C
C00C
C00C
C00C
C00C
6018
7038
3FF0
0FC0
ENDCHAR
STARTCHAR 00DA
ENCODING 218
SWIDTH 720 0
DWIDTH 18 0
BBX 14 23 2 0
BITMAP
01C0
0180
0300
0000
0000
C00C
C00C
C00C
C00C
C00C
C00C
C00C
C00C
C00C
C00C
C00C
C00C
C00C
C00C
6018
7038
3FF0
0FC0
ENDCHAR
STARTCHAR 00DB
ENCODING 219
SWIDTH 720 0
DWIDTH 18 0
BBX 14 23 2 0
BITMAP
0300
0780
0CC0
0000
0000
C00C
C00C
C00C
C00C
C00C
C00C
C00C
C00C
C00C
C00C
C00C
C00C
C00C
C00C
6018
7038
3FF0
0FC0
ENDCHAR
STARTCHAR 00DC
ENCODING 220
SWIDTH 720 0
DWIDTH 18 0
BBX 14 22 2 0
BITMAP
0CC0
0CC0
0000
0000
C00C
C00C
C00C
C00C
C00C
C00C
C00C
C00C
C00C
C00C
C00C
C00C
C00C
C00C
6018
7038
3FF0
0FC0
ENDCHAR
STARTCHAR 00DD
ENCODING 221
SWIDTH 640 0
DWIDTH 16 0
BBX 16 23 0 0
BITMAP
00E0
00C0
0180
0000
0000
C007
600E
300C
381C
1C38
0C30
0E70
0660
03C0
03C0
0180
0180
0180
0180
0180
0180
0180
0180
ENDCHAR
STARTCHAR 00DE
ENCODING 222
SWIDTH 680 0
DWIDTH 17 0
BBX 14 18 2 0
BITMAP
C000
C000
C000
FFE0
FFF0
C038
C01C
C00C
C00C
C00C
C00C
C01C
C038
FFF0
FFC0
C000
C000
C000
ENDCHAR
STARTCHAR 00DF
ENCODING 223
SWIDTH 600 0
DWIDTH 15 0
BBX 13 18 2 0
BITMAP
1F00
7F80
61C0
C0C0
C0C0
C180
C180
C300
C300
C380
C1E0
C070
C038
C018
C418
CE38
C7F0
C3E0
ENDCHAR
STARTCHAR 00E0
ENCODING 224
SWIDTH 560 0
DWIDTH 14 0
BBX 12 18 1 0
BITMAP
1C00
0C00
0600
0000
0000
1F80
7FC0
E0E0
C060
0060
03E0
3FE0
7C60
C060
C0E0
E1E0
7F60
3E30
ENDCHAR
STARTCHAR 00E1
ENCODING 225
SWIDTH 560 0
DWIDTH 14 0
BBX 12 18 1 0
BITMAP
0380
0300
0600
0000
0000
1F80
7FC0
E0E0
C060
0060
03E0
3FE0
7C60
C060
C0E0
E1E0
7F60
3E30
ENDCHAR
STARTCHAR 00E2
ENCODING 226
SWIDTH 560 0
DWIDTH 14 0
BBX 12 18 1 0
BITMAP
0600
0F00
1980
0000
0000
1F80
7FC0
E0E0
C060
0060
03E0
3FE0
7C60
C060
C0E0
E1E0
7F60
3E30
ENDCHAR
STARTCHAR 00E3
ENCODING 227
SWIDTH 560 0
DWIDTH 14 0
BBX 12 18 1 0
BITMAP
1CC0
3FC0
3380
0000
0000
1F80
7FC0
E0E0
C060
0060
03E0
3FE0
7C60
C060
C0E0
E1E0
7F60
3E30
ENDCHAR
STARTCHAR 00E4
ENCODING 228
SWIDTH 560 0
DWIDTH 14 0
BBX 12 17 1 0
BITMAP
1980
1980
0000
0000
1F80
7FC0
E0E0
C060
0060
03E0
3FE0
7C60
C060
C0E0
E1E0
7F60
3E30
ENDCHAR
STARTCHAR 00E5
ENCODING 229
SWIDTH 560 0
DWIDTH 14 0
BBX 12 20 1 0
BITMAP
0700
0880
0880
0880
0700
0000
0000
1F80
7FC0
E0E0
C060
0060
03E0
3FE0
7C60
C060
C0E0
E1E0
7F60
3E30
ENDCHAR
STARTCHAR 00E6
ENCODING 230
SWIDTH 880 0
DWIDTH 22 0
BBX 20 13 1 0
BITMAP
1F8F80
7FFFC0
60F0E0
C0E060
03C030
3FFFF0
7CFFF0
E0C000
C0C000
C1E030
E3F0E0
7FBFE0
3E0F80
ENDCHAR
STARTCHAR 00E7
ENCODING 231
SWIDTH 520 0
DWIDTH 13 0
BBX 11 17 1 -4
BITMAP
1F80
3FC0
70E0
E060
C000
C000
C000
C000
C060
E0E0
70C0
3F80
1F00
0400
0600
0300
1E00
ENDCHAR
STARTCHAR 00E8
ENCODING 232
SWIDTH 560 0
DWIDTH 14 0
BBX 12 18 1 0
BITMAP
0E00
0600
0300
0000
0000
1F80
3FC0
70E0
6060
C030
FFF0
FFF0
C000
C000
E030
7060
3FC0
1F80
ENDCHAR
STARTCHAR 00E9
ENCODING 233
SWIDTH 560 0
DWIDTH 14 0
BBX 12 18 1 0
BITMAP
0380
0300
0600
0000
0000
1F80
3FC0
70E0
6060
C030
FFF0
FFF0
C000
C000
E030
7060
3FC0
1F80
ENDCHAR
STARTCHAR 00EA
ENCODING 234
SWIDTH 560 0
DWIDTH 14 0
BBX 12 18 1 0
BITMAP
0600
0F00
1980
0000
0000
1F80
3FC0
70E0
6060
C030
FFF0
FFF0
C000
C000
E030
7060
3FC0
1F80
ENDCHAR
STARTCHAR 00EB
ENCODING 235
SWIDTH 560 0
DWIDTH 14 0
BBX 12 17 1 0
BITMAP
1980
1980
0000
0000
1F80
3FC0
70E0
6060
C030
FFF0
FFF0
C000
C000
E030
7060
3FC0
1F80
ENDCHAR
STARTCHAR 00EC
ENCODING 236
SWIDTH 240 0
DWIDTH 6 0
BBX 4 18 1 0
BITMAP
E0
60
30
00
00
60
60
60
60
60
60
60
60
60
60
60
60
60
ENDCHAR
STARTCHAR 00ED
ENCODING 237
SWIDTH 240 0
DWIDTH 6 0
BBX 4 18 1 0
BITMAP
70
60
C0
00
00
60
60
60
60
60
60
60
60
60
60
60
60
60
ENDCHAR
STARTCHAR 00EE
ENCODING 238
SWIDTH 240 0
DWIDTH 6 0
BBX 6 18 0 0
BITMAP
30
78
CC
00
00
30
30
30
30
30
30
30
30
30
30
30
30
30
ENDCHAR
STARTCHAR 00EF
ENCODING 239
SWIDTH 240 0
DWIDTH 6 0
BBX 6 17 0 0
BITMAP
CC
CC
00
00
30
30
30
30
30
30
30
30
30
30
30
30
30
ENDCHAR
STARTCHAR 00F0
ENCODING 240
SWIDTH 560 0
DWIDTH 14 0
BBX 12 18 1 0
BITMAP
1C40
0FC0
0700
1D80
11C0
1FC0
3FE0
70E0
E070
C030
C030
C030
C030
C030
E060
70E0
3FC0
1F80
ENDCHAR
STARTCHAR 00F1
ENCODING 241
SWIDTH 560 0
DWIDTH 14 0
BBX 10 18 2 0
BITMAP
3980
7F80
6700
0000
0000
CF00
DF80
F1C0
E0C0
C0C0
C0C0
C0C0
C0C0
C0C0
C0C0
C0C0
C0C0
C0C0
ENDCHAR
STARTCHAR 00F2
ENCODING 242
SWIDTH 560 0
DWIDTH 14 0
BBX 12 18 1 0
BITMAP
0E00
0600
0300
0000
0000
1F80
3FC0
70E0
E070
C030
C030
C030
C030
C030
E070
70E0
3FC0
1F80
ENDCHAR
STARTCHAR 00F3
ENCODING 243
SWIDTH 560 0
DWIDTH 14 0
BBX 12 18 1 0
BITMAP
0380
0300
0600
0000
0000
1F80
3FC0
70E0
E070
C030
C030
C030
C030
C030
E070
70E0
3FC0
1F80
ENDCHAR
STARTCHAR 00F4
ENCODING 244
SWIDTH 560 0
DWIDTH 14 0
BBX 12 18 1 0
BITMAP
0600
0F00
1980
0000
0000
1F80
3FC0
70E0
E070
C030
C030
C030
C030
C030
E070
70E0
3FC0
1F80
ENDCHAR
STARTCHAR 00F5
ENCODING 245
SWIDTH 560 0
DWIDTH 14 0
BBX 12 18 1 0
BITMAP
1CC0
3FC0
3380
0000
0000
1F80
3FC0
70E0
E070
C030
C030
C030
C030
C030
E070
70E0
3FC0
1F80
ENDCHAR
STARTCHAR 00F6
ENCODING 246
SWIDTH 560 0
DWIDTH 14 0
BBX 12 17 1 0
BITMAP
1980
1980
0000
0000
1F80
3FC0
70E0
E070
C030
C030
C030
C030
C030
E070
70E0
3FC0
1F80
ENDCHAR
STARTCHAR 00F7
ENCODING 247
SWIDTH 560 0
DWIDTH 14 0
BBX 12 10 1 4
BITMAP
0600
0600
0000
0000
FFF0
FFF0
0000
0000
0600
0600
ENDCHAR
STARTCHAR 00F8
ENCODING 248
SWIDTH 600 0
DWIDTH 15 0
BBX 12 15 1 -1
BITMAP
0030
1FB0
3FE0
70E0
E1F0
C330
C730
C630
CC30
D830
F860
70E0
7FC0
DF80
C000
ENDCHAR
STARTCHAR 00F9
ENCODING 249
SWIDTH 560 0
DWIDTH 14 0
BBX 10 18 2 0
BITMAP
3800
1800
0C00
0000
0000
C0C0
C0C0
C0C0
C0C0
C0C0
C0C0
C0C0
C0C0
C0C0
C1C0
E3C0
7EC0
3CC0
ENDCHAR
STARTCHAR 00FA
ENCODING 250
SWIDTH 560 0
DWIDTH 14 0
BBX 10 18 2 0
BITMAP
0700
0600
0C00
0000
0000
C0C0
C0C0
C0C0
C0C0
C0C0
C0C0
C0C0
C0C0
C0C0
C1C0
E3C0
7EC0
3CC0
ENDCHAR
STARTCHAR 00FB
ENCODING 251
SWIDTH 560 0
DWIDTH 14 0
BBX 10 18 2 0
BITMAP
0C00
1E00
3300
0000
0000
C0C0
C0C0
C0C0
C0C0
C0C0
C0C0
C0C0
C0C0
C0C0
C1C0
E3C0
7EC0
3CC0
ENDCHAR
STARTCHAR 00FC
ENCODING 252
SWIDTH 560 0
DWIDTH 14 0
BBX 10 17 2 0
BITMAP
3300
3300
0000
0000
C0C0
C0C0
C0C0
C0C0
C0C0
C0C0
C0C0
C0C0
C0C0
C1C0
E3C0
7EC0
3CC0
ENDCHAR
STARTCHAR 00FD
ENCODING 253
SWIDTH 480 0
DWIDTH 12 0
BBX 11 23 1 -5
BITMAP
0700
0600
0C00
0000
0000
C060
C060
60C0
60C0
6180
3180
3180
3300
1B00
1E00
1E00
0E00
0C00
0C00
0C00
1800
7800
7000
ENDCHAR
STARTCHAR 00FE
ENCODING 254
SWIDTH 560 0
DWIDTH 14 0
BBX 11 23 2 -5
BITMAP
C000
C000
C000
C000
C000
DF00
FF80
F1C0
E0C0
C060
C060
C060
C060
C060
C0C0
F1C0
FF80
DF00
C000
C000
C000
C000
C000
ENDCHAR
STARTCHAR 00FF
ENCODING 255
SWIDTH 480 0
DWIDTH 12 0
BBX 11 22 1 -5
BITMAP
1980
1980
0000
0000
C060
C060
60C0
60C0
6180
3180
3180
3300
1B00
1E00
1E00
0E00
0C00
0C00
0C00
1800
7800
7000
ENDCHAR
STARTCHAR 0100
ENCODING 256
SWIDTH 680 0
DWIDTH 17 0
BBX 15 22 1 0
BITMAP
0FE0
0FE0
0000
0000
0380
0380
06C0
06C0
0EC0
0C60
0C60
1C70
1830
1830
3FF8
3FF8
3018
600C
600C
600C
C006
C006
ENDCHAR
STARTCHAR 0101
ENCODING 257
SWIDTH 560 0
DWIDTH 14 0
BBX 12 17 1 0
BITMAP
3F80
3F80
0000
0000
1F80
7FC0
E0E0
C060
0060
03E0
3FE0
7C60
C060
C0E0
E1E0
7F60
3E30
ENDCHAR
STARTCHAR 0102
ENCODING 258
SWIDTH 680 0
DWIDTH 17 0
BBX 15 23 1 0
BITMAP
0C60
0FE0
07C0
0000
0000
0380
0380
06C0
06C0
0EC0
0C60
0C60
1C70
1830
1830
3FF8
3FF8
3018
600C
600C
600C
C006
C006
ENDCHAR
STARTCHAR 0103
ENCODING 259
SWIDTH 560 0
DWIDTH 14 0
BBX 12 18 1 0
BITMAP
3180
3F80
1F00
0000
0000
1F80
7FC0
E0E0
C060
0060
03E0
3FE0
7C60
C060
C0E0
E1E0
7F60
3E30
ENDCHAR
STARTCHAR 0104
ENCODING 260
SWIDTH 680 0
DWIDTH 17 0
BBX 17 23 1 -5
BITMAP
038000
038000
06C000
06C000
0EC000
0C6000
0C6000
1C7000
183000
183000
3FF800
3FF800
301800
600C00
600C00
600C00
C00600
C00600
000400
000800
000800
000C00
000780
ENDCHAR
STARTCHAR 0105
ENCODING 261
SWIDTH 560 0
DWIDTH 14 0
BBX 14 18 1 -5
BITMAP
1F80
7FC0
E0E0
C060
0060
03E0
3FE0
7C60
C060
C0E0
E1E0
7F60
3E30
0020
0040
0040
0060
003C
ENDCHAR
STARTCHAR 0106
ENCODING 262
SWIDTH 720 0
DWIDTH 18 0
BBX 15 23 2 0
BITMAP
01C0
0180
0300
0000
0000
07E0
1FF8
381C
700C
6006
E000
C000
C000
C000
C000
C000
C000
6006
600E
700C
3838
1FF0
07E0
ENDCHAR
STARTCHAR 0107
ENCODING 263
SWIDTH 520 0
DWIDTH 13 0
BBX 11 18 1 0
BITMAP
0700
0600
0C00
0000
0000
1F80
3FC0
70E0
E060
C000
C000
C000
C000
C060
E0E0
70C0
3F80
1F00
ENDCHAR
STARTCHAR 0108
ENCODING 264
SWIDTH 720 0
DWIDTH 18 0
BBX 15 23 2 0
BITMAP
0180
03C0
0660
0000
0000
07E0
1FF8
381C
700C
6006
E000
C000
C000
C000
C000
C000
C000
6006
600E
700C
3838
1FF0
07E0
ENDCHAR
STARTCHAR 0109
ENCODING 265
SWIDTH 520 0
DWIDTH 13 0
BBX 11 18 1 0
BITMAP
0600
0F00
1980
0000
0000
1F80
3FC0
70E0
E060
C000
C000
C000
C000
C060
E0E0
70C0
3F80
1F00
ENDCHAR
STARTCHAR 010A
ENCODING 266
SWIDTH 720 0
DWIDTH 18 0
BBX 15 22 2 0
BITMAP
0180
0180
0000
0000
07E0
1FF8
381C
700C
6006
E000
C000
C000
C000
C000
C000
C000
6006
600E
700C
3838
1FF0
07E0
ENDCHAR
STARTCHAR 010B
ENCODING 267
SWIDTH 520 0
DWIDTH 13 0
BBX 11 17 1 0
BITMAP
0600
0600
0000
0000
1F80
3FC0
70E0
E060
C000
C000
C000
C000
C060
E0E0
70C0
3F80
1F00
ENDCHAR
STARTCHAR 010C
ENCODING 268
SWIDTH 720 0
DWIDTH 18 0
BBX 15 23 2 0
BITMAP
0660
03C0
0180
0000
0000
07E0
1FF8
381C
700C
6006
E000
C000
C000
C000
C000
C000
C000
6006
600E
700C
3838
1FF0
07E0
ENDCHAR
STARTCHAR 010D
ENCODING 269
SWIDTH 520 0
DWIDTH 13 0
BBX 11 18 1 0
BITMAP
1980
0F00
0600
0000
0000
1F80
3FC0
70E0
E060
C000
C000
C000
C000
C060
E0E0
70C0
3F80
1F00
ENDCHAR
STARTCHAR 010E
ENCODING 270
SWIDTH 720 0
DWIDTH 18 0
BBX 15 23 2 0
BITMAP
1980
0F00
0600
0000
0000
FFC0
FFF0
C038
C01C
C00C
C00E
C006
C006
C006
C006
C006
C006
C00E
C00C
C01C
C038
FFF0
FFC0
ENDCHAR
STARTCHAR 010F
ENCODING 271
SWIDTH 600 0
DWIDTH 15 0
BBX 14 18 1 0
BITMAP
006C
006C
0064
0064
0068
1F60
3FE0
71E0
E0E0
C060
C060
C060
C060
C060
60E0
71E0
3FE0
1E60
ENDCHAR
STARTCHAR 0110
ENCODING 272
SWIDTH 720 0
DWIDTH 18 0
BBX 17 18 0 0
BITMAP
3FF000
3FFC00
300E00
300700
300300
300180
300180
300180
FF8180
FF8180
300180
300180
300380
300300
300700
300E00
3FFC00
3FF000
ENDCHAR
STARTCHAR 0111
ENCODING 273
SWIDTH 560 0
DWIDTH 14 0
BBX 13 18 1 0
BITMAP
0060
07F8
07F8
0060
0060
1E60
3FE0
71E0
E0E0
C060
C060
C060
C060
C060
60E0
71E0
3FE0
1E60
ENDCHAR
STARTCHAR 0112
ENCODING 274
SWIDTH 680 0
DWIDTH 17 0
BBX 14 22 2 0
BITMAP
0FE0
0FE0
0000
0000
FFFC
FFFC
C000
C000
C000
C000
C000
C000
FFF8
FFF8
C000
C000
C000
C000
C000
C000
FFFC
FFFC
ENDCHAR
STARTCHAR 0113
ENCODING 275
SWIDTH 560 0
DWIDTH 14 0
BBX 12 17 1 0
BITMAP
1FC0
1FC0
0000
0000
1F80
3FC0
70E0
6060
C030
FFF0
FFF0
C000
C000
E030
7060
3FC0
1F80
ENDCHAR
STARTCHAR 0114
ENCODING 276
SWIDTH 680 0
DWIDTH 17 0
BBX 14 23 2 0
BITMAP
18C0
1FC0
0F80
0000
0000
FFFC
FFFC
C000
C000
C000
C000
C000
C000
FFF8
FFF8
C000
C000
C000
C000
C000
C000
FFFC
FFFC
ENDCHAR
STARTCHAR 0115
ENCODING 277
SWIDTH 560 0
DWIDTH 14 0
BBX 12 18 1 0
BITMAP
3180
3F80
1F00
0000
0000
1F80
3FC0
70E0
6060
C030
FFF0
FFF0
C000
C000
E030
7060
3FC0
1F80
ENDCHAR
STARTCHAR 0116
ENCODING 278
SWIDTH 680 0
DWIDTH 17 0
BBX 14 22 2 0
BITMAP
0300
0300
0000
0000
FFFC
FFFC
C000
C000
C000
C000
C000
C000
FFF8
FFF8
C000
C000
C000
C000
C000
C000
FFFC
FFFC
ENDCHAR
STARTCHAR 0117
ENCODING 279
SWIDTH 560 0
DWIDTH 14 0
BBX 12 17 1 0
BITMAP
0600
0600
0000
0000
1F80
3FC0
70E0
6060
C030
FFF0
FFF0
C000
C000
E030
7060
3FC0
1F80
ENDCHAR
STARTCHAR 0118
ENCODING 280
SWIDTH 680 0
DWIDTH 17 0
BBX 14 23 2 -5
BITMAP
FFFC
FFFC
C000
C000
C000
C000
C000
C000
FFF8
FFF8
C000
C000
C000
C000
C000
C000
FFFC
FFFC
0020
0040
0040
0060
003C
ENDCHAR
STARTCHAR 0119
ENCODING 281
SWIDTH 560 0
DWIDTH 14 0
BBX 12 18 1 -5
BITMAP
1F80
3FC0
70E0
6060
C030
FFF0
FFF0
C000
C000
E030
7060
3FC0
1F80
0400
0800
0800
0C00
0780
ENDCHAR
STARTCHAR 011A
ENCODING 282
SWIDTH 680 0
DWIDTH 17 0
BBX 14 23 2 0
BITMAP
0CC0
0780
0300
0000
0000
FFFC
FFFC
C000
C000
C000
C000
C000
C000
FFF8
FFF8
C000
C000
C000
C000
C000
C000
FFFC
FFFC
ENDCHAR
STARTCHAR 011B
ENCODING 283
SWIDTH 560 0
DWIDTH 14 0
BBX 12 18 1 0
BITMAP
1980
0F00
0600
0000
0000
1F80
3FC0
70E0
6060
C030
FFF0
FFF0
C000
C000
E030
7060
3FC0
1F80
ENDCHAR
STARTCHAR 011C
ENCODING 284
SWIDTH 760 0
DWIDTH 19 0
BBX 15 23 2 0
BITMAP
0180
03C0
0660
0000
0000
07E0
1FF8
383C
700C
600E
6004
C000
C000
C000
C0FE
C0FE
C006
6006
6006
7006
3C1E
1FF8
07E0
ENDCHAR
STARTCHAR 011D
ENCODING 285
SWIDTH 560 0
DWIDTH 14 0
BBX 11 23 1 -5
BITMAP
0600
0F00
1980
0000
0000
1E60
3F60
71E0
60E0
C060
C060
C060
C060
C060
E0E0
71E0
3F60
1E60
0060
C0E0
E1C0
7FC0
3F00
ENDCHAR
STARTCHAR 011E
ENCODING 286
SWIDTH 760 0
DWIDTH 19 0
BBX 15 23 2 0
BITMAP
0630
07F0
03E0
0000
0000
07E0
1FF8
383C
700C
600E
6004
C000
C000
C000
C0FE
C0FE
C006
6006
6006
7006
3C1E
1FF8
07E0
ENDCHAR
STARTCHAR 011F
ENCODING 287
SWIDTH 560 0
DWIDTH 14 0
BBX 11 23 1 -5
BITMAP
3180
3F80
1F00
0000
0000
1E60
3F60
71E0
60E0
C060
C060
C060
C060
C060
E0E0
71E0
3F60
1E60
0060
C0E0
E1C0
7FC0
3F00
ENDCHAR
STARTCHAR 0120
ENCODING 288
SWIDTH 760 0
DWIDTH 19 0
BBX 15 22 2 0
BITMAP
0180
0180
0000
0000
07E0
1FF8
383C
700C
600E
6004
C000
C000
C000
C0FE
C0FE
C006
6006
6006
7006
3C1E
1FF8
07E0
ENDCHAR
STARTCHAR 0121
ENCODING 289
SWIDTH 560 0
DWIDTH 14 0
BBX 11 22 1 -5
BITMAP
0600
0600
0000
0000
1E60
3F60
71E0
60E0
C060
C060
C060
C060
C060
E0E0
71E0
3F60
1E60
0060
C0E0
E1C0
7FC0
3F00
ENDCHAR
STARTCHAR 0122
ENCODING 290
SWIDTH 760 0
DWIDTH 19 0
BBX 15 22 2 -4
BITMAP
07E0
1FF8
383C
700C
600E
6004
C000
C000
C000
C0FE
C0FE
C006
6006
6006
7006
3C1E
1FF8
07E0
0100
0180
00C0
0780
ENDCHAR
STARTCHAR 0123
ENCODING 291
SWIDTH 560 0
DWIDTH 14 0
BBX 11 24 1 -5
BITMAP
0400
0C00
0800
0C00
0C00
0000
1E60
3FE0
71E0
E0E0
C060
C060
C060
C060
C060
E0E0
71E0
3FE0
1E60
0060
C060
E1C0
7F80
3F00
ENDCHAR
STARTCHAR 0124
ENCODING 292
SWIDTH 720 0
DWIDTH 18 0
BBX 14 23 2 0
BITMAP
0300
0780
0CC0
0000
0000
C00C
C00C
C00C
C00C
C00C
C00C
C00C
C00C
FFFC
FFFC
C00C
C00C
C00C
C00C
C00C
C00C
C00C
C00C
ENDCHAR
STARTCHAR 0125
ENCODING 293
SWIDTH 560 0
DWIDTH 14 0
BBX 10 23 2 0
BITMAP
0600
0F00
1980
0000
0000
C000
C000
C000
C000
C000
CF00
DF80
F1C0
E0C0
C0C0
C0C0
C0C0
C0C0
C0C0
C0C0
C0C0
C0C0
C0C0
ENDCHAR
STARTCHAR 0126
ENCODING 294
SWIDTH 720 0
DWIDTH 18 0
BBX 18 18 0 0
BITMAP
300300
300300
300300
FFFFC0
FFFFC0
300300
300300
300300
3FFF00
3FFF00
300300
300300
300300
300300
300300
300300
300300
300300
ENDCHAR
STARTCHAR 0127
ENCODING 295
SWIDTH 560 0
DWIDTH 14 0
BBX 12 18 0 0
BITMAP
3000
FF00
FF00
3000
3000
33C0
37E0
3C70
3830
3030
3030
3030
3030
3030
3030
3030
3030
3030
ENDCHAR
STARTCHAR 0128
ENCODING 296
SWIDTH 240 0
DWIDTH 6 0
BBX 8 23 -1 0
BITMAP
73
FF
CE
00
00
18
18
18
18
18
18
18
18
18
18
18
18
18
18
18
18
18
18
ENDCHAR
STARTCHAR 0129
ENCODING 297
SWIDTH 240 0
DWIDTH 6 0
BBX 8 18 -1 0
BITMAP
73
FF
CE
00
00
18
18
18
18
18
18
18
18
18
18
18
18
18
ENDCHAR
STARTCHAR 012A
ENCODING 298
SWIDTH 240 0
DWIDTH 6 0
BBX 7 22 0 0
BITMAP
FE
FE
00
00
30
30
30
30
30
30
30
30
30
30
30
30
30
30
30
30
30
30
ENDCHAR
STARTCHAR 012B
ENCODING 299
SWIDTH 240 0
DWIDTH 6 0
BBX 7 17 0 0
BITMAP
FE
FE
00
00
30
30
30
30
30
30
30
30
30
30
30
30
30
ENDCHAR
STARTCHAR 012C
ENCODING 300
SWIDTH 240 0
DWIDTH 6 0
BBX 7 23 0 0
BITMAP
C6
FE
7C
00
00
30
30
30
30
30
30
30
30
30
30
30
30
30
30
30
30
30
30
ENDCHAR
STARTCHAR 012D
ENCODING 301
SWIDTH 240 0
DWIDTH 6 0
BBX 7 18 0 0
BITMAP
C6
FE
7C
00
00
30
30
30
30
30
30
30
30
30
30
30
30
30
ENDCHAR
STARTCHAR 012E
ENCODING 302
SWIDTH 240 0
DWIDTH 6 0
BBX 5 23 2 -5
BITMAP
C0
C0
C0
C0
C0
C0
C0
C0
C0
C0
C0
C0
C0
C0
C0
C0
C0
C0
80
80
80
F8
70
ENDCHAR
STARTCHAR 012F
ENCODING 303
SWIDTH 240 0
DWIDTH 6 0
BBX 6 23 1 -5
BITMAP
60
60
00
00
00
60
60
60
60
60
60
60
60
60
60
60
60
60
40
C0
C0
FC
78
ENDCHAR
STARTCHAR 0130
ENCODING 304
SWIDTH 240 0
DWIDTH 6 0
BBX 2 22 2 0
BITMAP
C0
C0
00
00
C0
C0
C0
C0
C0
C0
C0
C0
C0
C0
C0
C0
C0
C0
C0
C0
C0
C0
ENDCHAR
STARTCHAR 0131
ENCODING 305
SWIDTH 240 0
DWIDTH 6 0
BBX 2 13 2 0
BITMAP
C0
C0
C0
C0
C0
C0
C0
C0
C0
C0
C0
C0
C0
ENDCHAR
STARTCHAR 0132
ENCODING 306
SWIDTH 720 0
DWIDTH 18 0
BBX 14 18 2 0
BITMAP
C00C
C00C
C00C
C00C
C00C
C00C
C00C
C00C
C00C
C00C
C00C
C00C
CC0C
CC0C
CC0C
C618
C7F8
C3E0
ENDCHAR
STARTCHAR 0133
ENCODING 307
SWIDTH 440 0
DWIDTH 11 0
BBX 8 23 2 -5
BITMAP
C3
C3
00
00
00
C3
C3
C3
C3
C3
C3
C3
C3
C3
C3
C3
C3
C3
03
03
03
1F
1E
ENDCHAR
STARTCHAR 0134
ENCODING 308
SWIDTH 520 0
DWIDTH 13 0
BBX 12 23 1 0
BITMAP
00C0
01E0
0330
0000
0000
00C0
00C0
00C0
00C0
00C0
00C0
00C0
00C0
00C0
00C0
00C0
00C0
C0C0
C0C0
C0C0
6180
7F80
3E00
ENDCHAR
STARTCHAR 0135
ENCODING 309
SWIDTH 240 0
DWIDTH 6 0
BBX 7 23 -1 -5
BITMAP
18
3C
66
00
00
18
18
18
18
18
18
18
18
18
18
18
18
18
18
18
18
F8
F0
ENDCHAR
STARTCHAR 0136
ENCODING 310
SWIDTH 680 0
DWIDTH 17 0
BBX 15 23 2 -5
BITMAP
C01C
C038
C070
C0E0
C1C0
C380
C700
CE00
DF00
FF00
F380
E1C0
C0E0
C070
C070
C038
C01C
C00E
0000
0380
00C0
00C0
0780
ENDCHAR
STARTCHAR 0137
ENCODING 311
SWIDTH 520 0
DWIDTH 13 0
BBX 11 23 2 -5
BITMAP
C000
C000
C000
C000
C000
C1C0
C380
C700
CE00
DC00
F800
FC00
CE00
C700
C300
C180
C1C0
C0E0
0000
0E00
0300
0300
1E00
ENDCHAR
STARTCHAR 0138
ENCODING 312
SWIDTH 520 0
DWIDTH 13 0
BBX 10 13 2 0
BITMAP
C180
C300
C600
CC00
D800
F800
EC00
C600
C600
C300
C180
C180
C0C0
ENDCHAR
STARTCHAR 0139
ENCODING 313
SWIDTH 560 0
DWIDTH 14 0
BBX 11 23 2 0
BITMAP
1C00
1800
3000
0000
0000
C000
C000
C000
C000
C000
C000
C000
C000
C000
C000
C000
C000
C000
C000
C000
C000
FFE0
FFE0
ENDCHAR
STARTCHAR 013A
ENCODING 314
SWIDTH 240 0
DWIDTH 6 0
BBX 4 23 1 0
BITMAP
70
60
C0
00
00
60
60
60
60
60
60
60
60
60
60
60
60
60
60
60
60
60
60
ENDCHAR
STARTCHAR 013B
ENCODING 315
SWIDTH 560 0
DWIDTH 14 0
BBX 11 23 2 -5
BITMAP
C000
C000
C000
C000
C000
C000
C000
C000
C000
C000
C000
C000
C000
C000
C000
C000
FFE0
FFE0
0000
0E00
0300
0300
1E00
ENDCHAR
STARTCHAR 013C
ENCODING 316
SWIDTH 240 0
DWIDTH 6 0
BBX 5 23 1 -5
BITMAP
60
60
60
60
60
60
60
60
60
60
60
60
60
60
60
60
60
60
00
70
18
18
F0
ENDCHAR
STARTCHAR 013D
ENCODING 317
SWIDTH 560 0
DWIDTH 14 0
BBX 10 18 3 0
BITMAP
C300
C300
C100
C100
C300
C200
C000
C000
C000
C000
C000
C000
C000
C000
C000
C000
FFC0
FFC0
ENDCHAR
STARTCHAR 013E
ENCODING 318
SWIDTH 280 0
DWIDTH 7 0
BBX 5 18 2 0
BITMAP
D8
D8
C8
C8
D0
C0
C0
C0
C0
C0
C0
C0
C0
C0
C0
C0
C0
C0
ENDCHAR
STARTCHAR 013F
ENCODING 319
SWIDTH 560 0
DWIDTH 14 0
BBX 11 18 2 0
BITMAP
C000
C000
C000
C000
C000
C000
C000
C000
C180
C180
C000
C000
C000
C000
C000
C000
FFE0
FFE0
ENDCHAR
STARTCHAR 0140
ENCODING 320
SWIDTH 320 0
DWIDTH 8 0
BBX 6 18 2 0
BITMAP
C0
C0
C0
C0
C0
C0
C0
C0
CC
CC
C0
C0
C0
C0
C0
C0
C0
C0
ENDCHAR
STARTCHAR 0141
ENCODING 321
SWIDTH 560 0
DWIDTH 14 0
BBX 13 18 0 0
BITMAP
3000
3000
3000
3000
3100
3300
3600
3C00
3800
7000
F000
B000
3000
3000
3000
3000
3FF8
3FF8
ENDCHAR
STARTCHAR 0142
ENCODING 322
SWIDTH 240 0
DWIDTH 6 0
BBX 6 18 0 0
BITMAP
30
30
30
30
30
30
34
3C
38
70
F0
B0
30
30
30
30
30
30
ENDCHAR
STARTCHAR 0143
ENCODING 323
SWIDTH 720 0
DWIDTH 18 0
BBX 14 23 2 0
BITMAP
01C0
0180
0300
0000
0000
C00C
E00C
F00C
F00C
D80C
CC0C
CC0C
C60C
C30C
C30C
C18C
C0CC
C0CC
C06C
C03C
C03C
C01C
C00C
ENDCHAR
STARTCHAR 0144
ENCODING 324
SWIDTH 560 0
DWIDTH 14 0
BBX 10 18 2 0
BITMAP
0700
0600
0C00
0000
0000
CF00
DF80
F1C0
E0C0
C0C0
C0C0
C0C0
C0C0
C0C0
C0C0
C0C0
C0C0
C0C0
ENDCHAR
STARTCHAR 0145
ENCODING 325
SWIDTH 720 0
DWIDTH 18 0
BBX 14 23 2 -5
BITMAP
C00C
E00C
F00C
F00C
D80C
CC0C
CC0C
C60C
C30C
C30C
C18C
C0CC
C0CC
C06C
C03C
C03C
C01C
C00C
0000
0380
00C0
00C0
0780
ENDCHAR
STARTCHAR 0146
ENCODING 326
SWIDTH 560 0
DWIDTH 14 0
BBX 10 18 2 -5
BITMAP
CF00
DF80
F1C0
E0C0
C0C0
C0C0
C0C0
C0C0
C0C0
C0C0
C0C0
C0C0
C0C0
0000
0E00
0300
0300
1E00
ENDCHAR
STARTCHAR 0147
ENCODING 327
SWIDTH 720 0
DWIDTH 18 0
BBX 14 23 2 0
BITMAP
0CC0
0780
0300
0000
0000
C00C
E00C
F00C
F00C
D80C
CC0C
CC0C
C60C
C30C
C30C
C18C
C0CC
C0CC
C06C
C03C
C03C
C01C
C00C
ENDCHAR
STARTCHAR 0148
ENCODING 328
SWIDTH 560 0
DWIDTH 14 0
BBX 10 18 2 0
BITMAP
3300
1E00
0C00
0000
0000
CF00
DF80
F1C0
E0C0
C0C0
C0C0
C0C0
C0C0
C0C0
C0C0
C0C0
C0C0
C0C0
ENDCHAR
STARTCHAR 0149
ENCODING 329
SWIDTH 600 0
DWIDTH 15 0
BBX 13 18 0 0
BITMAP
C000
C000
4000
4000
C000
99E0
1BF0
1E38
1C18
1818
1818
1818
1818
1818
1818
1818
1818
1818
ENDCHAR
STARTCHAR 014A
ENCODING 330
SWIDTH 720 0
DWIDTH 18 0
BBX 15 18 2 0
BITMAP
CFE0
DFF0
F838
E01C
E00C
C006
C006
C006
C006
C006
C006
C006
C006
C00C
C00C
C11C
C3F8
C1E0
ENDCHAR
STARTCHAR 014B
ENCODING 331
SWIDTH 560 0
DWIDTH 14 0
BBX 10 18 2 -5
BITMAP
CF00
FF80
E1C0
C0C0
C0C0
C0C0
C0C0
C0C0
C0C0
C0C0
C0C0
C0C0
C0C0
00C0
00C0
00C0
03C0
0780
ENDCHAR
STARTCHAR 014C
ENCODING 332
SWIDTH 760 0
DWIDTH 19 0
BBX 16 22 2 0
BITMAP
07F0
07F0
0000
0000
07E0
1FF8
3C3C
700E
6006
6006
C003
C003
C003
C003
C003
C003
6006
6006
700E
383C
1FF8
07E0
ENDCHAR
STARTCHAR 014D
ENCODING 333
SWIDTH 560 0
DWIDTH 14 0
BBX 12 17 1 0
BITMAP
3F80
3F80
0000
0000
1F80
3FC0
70E0
E070
C030
C030
C030
C030
C030
E070
70E0
3FC0
1F80
ENDCHAR
STARTCHAR 014E
ENCODING 334
SWIDTH 760 0
DWIDTH 19 0
BBX 16 23 2 0
BITMAP
0C60
0FE0
07C0
0000
0000
07E0
1FF8
3C3C
700E
6006
6006
C003
C003
C003
C003
C003
C003
6006
6006
700E
383C
1FF8
07E0
ENDCHAR
STARTCHAR 014F
ENCODING 335
SWIDTH 560 0
DWIDTH 14 0
BBX 12 18 1 0
BITMAP
18C0
1FC0
0F80
0000
0000
1F80
3FC0
70E0
E070
C030
C030
C030
C030
C030
E070
70E0
3FC0
1F80
ENDCHAR
STARTCHAR 0150
ENCODING 336
SWIDTH 760 0
DWIDTH 19 0
BBX 16 23 2 0
BITMAP
0330
0660
0CC0
0000
0000
07E0
1FF8
3C3C
700E
6006
6006
C003
C003
C003
C003
C003
C003
6006
6006
700E
383C
1FF8
07E0
ENDCHAR
STARTCHAR 0151
ENCODING 337
SWIDTH 560 0
DWIDTH 14 0
BBX 12 18 1 0
BITMAP
0660
0CC0
1980
0000
0000
1F80
3FC0
70E0
E070
C030
C030
C030
C030
C030
E070
70E0
3FC0
1F80
ENDCHAR
STARTCHAR 0152
ENCODING 338
SWIDTH 1000 0
DWIDTH 25 0
BBX 23 18 1 0
BITMAP
07C7FE
1FF7FE
383E00
701E00
600E00
E00E00
C00600
C00600
C007FC
C007FC
C00600
C00600
C00E00
600E00
701E00
383E00
1FF7FE
07C7FE
ENDCHAR
STARTCHAR 0153
ENCODING 339
SWIDTH 960 0
DWIDTH 24 0
BBX 22 13 1 0
BITMAP
0F87C0
3FCFF0
70FC38
607818
C0300C
C03FFC
C03FFC
C03000
C03000
E0780C
70FC38
3FCFF8
1F03E0
ENDCHAR
STARTCHAR 0154
ENCODING 340
SWIDTH 720 0
DWIDTH 18 0
BBX 15 23 2 0
BITMAP
0380
0300
0600
0000
0000
FFE0
FFF8
C038
C00C
C00C
C00C
C01C
C038
FFF8
FFE0
C1C0
C0C0
C0E0
C070
C038
C038
C01C
C00E
ENDCHAR
STARTCHAR 0155
ENCODING 341
SWIDTH 320 0
DWIDTH 8 0
BBX 6 18 2 0
BITMAP
1C
18
30
00
00
DC
FC
E0
C0
C0
C0
C0
C0
C0
C0
C0
C0
C0
ENDCHAR
STARTCHAR 0156
ENCODING 342
SWIDTH 720 0
DWIDTH 18 0
BBX 15 23 2 -5
BITMAP
FFE0
FFF8
C038
C00C
C00C
C00C
C01C
C038
FFF8
FFE0
C1C0
C0C0
C0E0
C070
C038
C038
C01C
C00E
0000
0380
00C0
00C0
0780
ENDCHAR
STARTCHAR 0157
ENCODING 343
SWIDTH 320 0
DWIDTH 8 0
BBX 7 18 1 -5
BITMAP
6E
7E
70
60
60
60
60
60
60
60
60
60
60
00
70
18
18
F0
ENDCHAR
STARTCHAR 0158
ENCODING 344
SWIDTH 720 0
DWIDTH 18 0
BBX 15 23 2 0
BITMAP
1980
0F00
0600
0000
0000
FFE0
FFF8
C038
C00C
C00C
C00C
C01C
C038
FFF8
FFE0
C1C0
C0C0
C0E0
C070
C038
C038
C01C
C00E
ENDCHAR
STARTCHAR 0159
ENCODING 345
SWIDTH 320 0
DWIDTH 8 0
BBX 6 18 2 0
BITMAP
CC
78
30
00
00
DC
FC
E0
C0
C0
C0
C0
C0
C0
C0
C0
C0
C0
ENDCHAR
STARTCHAR 015A
ENCODING 346
SWIDTH 680 0
DWIDTH 17 0
BBX 14 23 2 0
BITMAP
01C0
0180
0300
0000
0000
0FC0
1FF0
3838
601C
600C
6000
7000
3F00
1FE0
03F8
0038
000C
C00C
C00C
601C
7838
3FF0
0FC0
ENDCHAR
STARTCHAR 015B
ENCODING 347
SWIDTH 520 0
DWIDTH 13 0
BBX 11 18 1 0
BITMAP
0700
0600
0C00
0000
0000
3F00
7FC0
E0C0
C000
E000
7E00
3FC0
07E0
00E0
C060
60E0
7FC0
1F00
ENDCHAR
STARTCHAR 015C
ENCODING 348
SWIDTH 680 0
DWIDTH 17 0
BBX 14 23 2 0
BITMAP
0300
0780
0CC0
0000
0000
0FC0
1FF0
3838
601C
600C
6000
7000
3F00
1FE0
03F8
0038
000C
C00C
C00C
601C
7838
3FF0
0FC0
ENDCHAR
STARTCHAR 015D
ENCODING 349
SWIDTH 520 0
DWIDTH 13 0
BBX 11 18 1 0
BITMAP
0C00
1E00
3300
0000
0000
3F00
7FC0
E0C0
C000
E000
7E00
3FC0
07E0
00E0
C060
60E0
7FC0
1F00
ENDCHAR
STARTCHAR 015E
ENCODING 350
SWIDTH 680 0
DWIDTH 17 0
BBX 14 22 2 -4
BITMAP
0FC0
1FF0
3838
601C
600C
6000
7000
3F00
1FE0
03F8
0038
000C
C00C
C00C
601C
7838
3FF0
0FC0
0100
0180
00C0
0780
ENDCHAR
STARTCHAR 015F
ENCODING 351
SWIDTH 520 0
DWIDTH 13 0
BBX 11 17 1 -4
BITMAP
3F00
7FC0
E0C0
C000
E000
7E00
3FC0
07E0
00E0
C060
60E0
7FC0
1F00
0400
0600
0300
1E00
ENDCHAR
STARTCHAR 0160
ENCODING 352
SWIDTH 680 0
DWIDTH 17 0
BBX 14 23 2 0
BITMAP
0660
03C0
0180
0000
0000
0FC0
1FF0
3838
601C
600C
6000
7000
3F00
1FE0
03F8
0038
000C
C00C
C00C
601C
7838
3FF0
0FC0
ENDCHAR
STARTCHAR 0161
ENCODING 353
SWIDTH 520 0
DWIDTH 13 0
BBX 11 18 1 0
BITMAP
3300
1E00
0C00
0000
0000
3F00
7FC0
E0C0
C000
E000
7E00
3FC0
07E0
00E0
C060
60E0
7FC0
1F00
ENDCHAR
STARTCHAR 0162
ENCODING 354
SWIDTH 560 0
DWIDTH 14 0
BBX 14 24 0 -6
BITMAP
FFFC
FFFC
0300
0300
0300
0300
0300
0300
0300
0300
0300
0300
0300
0300
0300
0300
0300
0300
0000
0300
0300
0100
0300
0200
ENDCHAR
STARTCHAR 0163
ENCODING 355
SWIDTH 280 0
DWIDTH 7 0
BBX 7 23 0 -6
BITMAP
30
30
30
30
FE
FE
30
30
30
30
30
30
30
30
30
3E
1E
00
0C
0C
04
0C
08
ENDCHAR
STARTCHAR 0164
ENCODING 356
SWIDTH 560 0
DWIDTH 14 0
BBX 14 23 0 0
BITMAP
0CC0
0780
0300
0000
0000
FFFC
FFFC
0300
0300
0300
0300
0300
0300
0300
0300
0300
0300
0300
0300
0300
0300
0300
0300
ENDCHAR
STARTCHAR 0165
ENCODING 357
SWIDTH 360 0
DWIDTH 9 0
BBX 9 18 0 0
BITMAP
0180
3180
3080
3080
3180
FD00
FC00
3000
3000
3000
3000
3000
3000
3000
3000
3000
3C00
1C00
ENDCHAR
STARTCHAR 0166
ENCODING 358
SWIDTH 600 0
DWIDTH 15 0
BBX 14 18 0 0
BITMAP
FFFC
FFFC
0300
0300
0300
0300
0300
0300
0300
3FF0
3FF0
0300
0300
0300
0300
0300
0300
0300
ENDCHAR
STARTCHAR 0167
ENCODING 359
SWIDTH 280 0
DWIDTH 7 0
BBX 7 17 0 0
BITMAP
30
30
30
30
FE
FE
30
30
30
FE
FE
30
30
30
30
3E
1E
ENDCHAR
STARTCHAR 0168
ENCODING 360
SWIDTH 720 0
DWIDTH 18 0
BBX 14 23 2 0
BITMAP
0E60
1FE0
19C0
0000
0000
C00C
C00C
C00C
C00C
C00C
C00C
C00C
C00C
C00C
C00C
C00C
C00C
C00C
C00C
6018
7038
3FF0
0FC0
ENDCHAR
STARTCHAR 0169
ENCODING 361
SWIDTH 560 0
DWIDTH 14 0
BBX 10 18 2 0
BITMAP
3980
7F80
6700
0000
0000
C0C0
C0C0
C0C0
C0C0
C0C0
C0C0
C0C0
C0C0
C0C0
C1C0
E3C0
7EC0
3CC0
ENDCHAR
STARTCHAR 016A
ENCODING 362
SWIDTH 720 0
DWIDTH 18 0
BBX 14 22 2 0
BITMAP
1FC0
1FC0
0000
0000
C00C
C00C
C00C
C00C
C00C
C00C
C00C
C00C
C00C
C00C
C00C
C00C
C00C
C00C
6018
7038
3FF0
0FC0
ENDCHAR
STARTCHAR 016B
ENCODING 363
SWIDTH 560 0
DWIDTH 14 0
BBX 10 17 2 0
BITMAP
3F80
3F80
0000
0000
C0C0
C0C0
C0C0
C0C0
C0C0
C0C0
C0C0
C0C0
C0C0
C1C0
E3C0
7EC0
3CC0
ENDCHAR
STARTCHAR 016C
ENCODING 364
SWIDTH 720 0
DWIDTH 18 0
BBX 14 23 2 0
BITMAP
0C60
0FE0
07C0
0000
0000
C00C
C00C
C00C
C00C
C00C
C00C
C00C
C00C
C00C
C00C
C00C
C00C
C00C
C00C
6018
7038
3FF0
0FC0
ENDCHAR
STARTCHAR 016D
ENCODING 365
SWIDTH 560 0
DWIDTH 14 0
BBX 10 18 2 0
BITMAP
3180
3F80
1F00
0000
0000
C0C0
C0C0
C0C0
C0C0
C0C0
C0C0
C0C0
C0C0
C0C0
C1C0
E3C0
7EC0
3CC0
ENDCHAR
STARTCHAR 016E
ENCODING 366
SWIDTH 720 0
DWIDTH 18 0
BBX 14 23 2 0
BITMAP
0380
0440
0440
0440
0380
C00C
C00C
C00C
C00C
C00C
C00C
C00C
C00C
C00C
C00C
C00C
C00C
C00C
C00C
6018
7038
3FF0
0FC0
ENDCHAR
STARTCHAR 016F
ENCODING 367
SWIDTH 560 0
DWIDTH 14 0
BBX 10 20 2 0
BITMAP
1C00
2200
2200
2200
1C00
0000
0000
C0C0
C0C0
C0C0
C0C0
C0C0
C0C0
C0C0
C0C0
C0C0
C1C0
E3C0
7EC0
3CC0
ENDCHAR
STARTCHAR 0170
ENCODING 368
SWIDTH 720 0
DWIDTH 18 0
BBX 14 23 2 0
BITMAP
0330
0660
0CC0
0000
0000
C00C
C00C
C00C
C00C
C00C
C00C
C00C
C00C
C00C
C00C
C00C
C00C
C00C
C00C
6018
7038
3FF0
0FC0
ENDCHAR
STARTCHAR 0171
ENCODING 369
SWIDTH 560 0
DWIDTH 14 0
BBX 10 18 2 0
BITMAP
0CC0
1980
3300
0000
0000
C0C0
C0C0
C0C0
C0C0
C0C0
C0C0
C0C0
C0C0
C0C0
C1C0
E3C0
7EC0
3CC0
ENDCHAR
STARTCHAR 0172
ENCODING 370
SWIDTH 720 0
DWIDTH 18 0
BBX 14 23 2 -5
BITMAP
C00C
C00C
C00C
C00C
C00C
C00C
C00C
C00C
C00C
C00C
C00C
C00C
C00C
C00C
6018
7038
3FF0
0FC0
0300
0300
0300
03E0
01C0
ENDCHAR
STARTCHAR 0173
ENCODING 371
SWIDTH 560 0
DWIDTH 14 0
BBX 13 18 2 -5
BITMAP
C0C0
C0C0
C0C0
C0C0
C0C0
C0C0
C0C0
C0C0
C0C0
C1C0
E3C0
7FC0
3CC0
00C0
00C0
00C0
00F8
0070
ENDCHAR
STARTCHAR 0174
ENCODING 372
SWIDTH 1040 0
DWIDTH 26 0
BBX 25 23 0 0
BITMAP
000C0000
001E0000
00330000
00000000
00000000
C01C0180
C01C0380
60360300
60360300
60360300
30770600
30630600
30630600
30630E00
18C18C00
18C18C00
18C18C00
0D80D800
0D80D800
0D80D800
0F80F800
07007000
07007000
ENDCHAR
STARTCHAR 0175
ENCODING 373
SWIDTH 760 0
DWIDTH 19 0
BBX 19 18 0 0
BITMAP
006000
00F000
019800
000000
000000
C04060
C0E060
60E0E0
61B0C0
61B0C0
31B180
331980
1B1B80
1B1B00
1B0B00
0E0E00
0E0E00
060600
ENDCHAR
STARTCHAR 0176
ENCODING 374
SWIDTH 640 0
DWIDTH 16 0
BBX 16 23 0 0
BITMAP
0180
03C0
0660
0000
0000
C007
600E
300C
381C
1C38
0C30
0E70
0660
03C0
03C0
0180
0180
0180
0180
0180
0180
0180
0180
ENDCHAR
STARTCHAR 0177
ENCODING 375
SWIDTH 480 0
DWIDTH 12 0
BBX 11 23 1 -5
BITMAP
0C00
1E00
3300
0000
0000
C060
C060
60C0
60C0
6180
3180
3180
3300
1B00
1E00
1E00
0E00
0C00
0C00
0C00
1800
7800
7000
ENDCHAR
STARTCHAR 0178
ENCODING 376
SWIDTH 640 0
DWIDTH 16 0
BBX 16 22 0 0
BITMAP
0660
0660
0000
0000
C007
600E
300C
381C
1C38
0C30
0E70
0660
03C0
03C0
0180
0180
0180
0180
0180
0180
0180
0180
ENDCHAR
STARTCHAR 0179
ENCODING 377
SWIDTH 600 0
DWIDTH 15 0
BBX 14 23 0 0
BITMAP
01C0
0180
0300
0000
0000
7FFC
7FFC
0018
0038
0070
00E0
00C0
01C0
0380
0700
0600
0E00
1C00
3800
3000
6000
FFFC
FFFC
ENDCHAR
STARTCHAR 017A
ENCODING 378
SWIDTH 480 0
DWIDTH 12 0
BBX 11 18 0 0
BITMAP
0380
0300
0600
0000
0000
7FE0
7FE0
00C0
0180
0300
0700
0E00
1C00
3800
7000
6000
FFE0
FFE0
ENDCHAR
STARTCHAR 017B
ENCODING 379
SWIDTH 600 0
DWIDTH 15 0
BBX 14 22 0 0
BITMAP
0180
0180
0000
0000
7FFC
7FFC
0018
0038
0070
00E0
00C0
01C0
0380
0700
0600
0E00
1C00
3800
3000
6000
FFFC
FFFC
ENDCHAR
STARTCHAR 017C
ENCODING 380
SWIDTH 480 0
DWIDTH 12 0
BBX 11 17 0 0
BITMAP
0600
0600
0000
0000
7FE0
7FE0
00C0
0180
0300
0700
0E00
1C00
3800
7000
6000
FFE0
FFE0
ENDCHAR
STARTCHAR 017D
ENCODING 381
SWIDTH 600 0
DWIDTH 15 0
BBX 14 23 0 0
BITMAP
0660
03C0
0180
0000
0000
7FFC
7FFC
0018
0038
0070
00E0
00C0
01C0
0380
0700
0600
0E00
1C00
3800
3000
6000
FFFC
FFFC
ENDCHAR
STARTCHAR 017E
ENCODING 382
SWIDTH 480 0
DWIDTH 12 0
BBX 11 18 0 0
BITMAP
1980
0F00
0600
0000
0000
7FE0
7FE0
00C0
0180
0300
0700
0E00
1C00
3800
7000
6000
FFE0
FFE0
ENDCHAR
STARTCHAR 017F
ENCODING 383
SWIDTH 240 0
DWIDTH 6 0
BBX 5 18 2 0
BITMAP
78
F8
C0
C0
C0
C0
C0
C0
C0
C0
C0
C0
C0
C0
C0
C0
C0
C0
ENDCHAR
STARTCHAR 018F
ENCODING 399
SWIDTH 760 0
DWIDTH 19 0
BBX 16 18 2 0
BITMAP
07E0
1FF8
3C1C
300E
7006
6006
0003
0003
FFFF
FFFF
C003
C003
E007
6006
700E
381C
1FF8
07E0
ENDCHAR
STARTCHAR 0192
ENCODING 402
SWIDTH 560 0
DWIDTH 14 0
BBX 12 23 1 -5
BITMAP
00F0
01F0
0380
0300
0300
1FE0
1FE0
0700
0600
0600
0600
0600
0600
0C00
0C00
0C00
0C00
0C00
1C00
1800
1800
F800
F000
ENDCHAR
STARTCHAR 01A0
ENCODING 416
SWIDTH 840 0
DWIDTH 21 0
BBX 18 18 2 0
BITMAP
07E0C0
1FF8C0
383C40
700E40
600680
600700
C00300
C00300
C00300
C00300
C00300
C00300
600600
600600
700C00
383C00
1FF800
07E000
ENDCHAR
STARTCHAR 01A1
ENCODING 417
SWIDTH 640 0
DWIDTH 16 0
BBX 14 13 1 0
BITMAP
1F8C
3FCC
70E4
E074
C038
C038
C030
C030
C030
E060
70E0
3FC0
1F80
ENDCHAR
STARTCHAR 01AF
ENCODING 431
SWIDTH 840 0
DWIDTH 21 0
BBX 18 18 2 0
BITMAP
C00CC0
C00CC0
C00C40
C00C40
C00CC0
C00D80
C00F00
C00C00
C00C00
C00C00
C00C00
C00C00
C00C00
C00C00
601800
703800
3FF000
0FC000
ENDCHAR
STARTCHAR 01B0
ENCODING 432
SWIDTH 680 0
DWIDTH 17 0
BBX 14 13 2 0
BITMAP
C0CC
C0CC
C0C4
C0C4
C0C8
C0F0
C0C0
C0C0
C0C0
C1C0
E3C0
7EC0
3CC0
ENDCHAR
STARTCHAR 01CD
ENCODING 461
SWIDTH 680 0
DWIDTH 17 0
BBX 15 23 1 0
BITMAP
0660
03C0
0180
0000
0000
0380
0380
06C0
06C0
0EC0
0C60
0C60
1C70
1830
1830
3FF8
3FF8
3018
600C
600C
600C
C006
C006
ENDCHAR
STARTCHAR 01CE
ENCODING 462
SWIDTH 560 0
DWIDTH 14 0
BBX 12 18 1 0
BITMAP
1980
0F00
0600
0000
0000
1F80
7FC0
E0E0
C060
0060
03E0
3FE0
7C60
C060
C0E0
E1E0
7F60
3E30
ENDCHAR
STARTCHAR 01CF
ENCODING 463
SWIDTH 240 0
DWIDTH 6 0
BBX 6 23 0 0
BITMAP
CC
78
30
00
00
30
30
30
30
30
30
30
30
30
30
30
30
30
30
30
30
30
30
ENDCHAR
STARTCHAR 01D0
ENCODING 464
SWIDTH 240 0
DWIDTH 6 0
BBX 6 18 0 0
BITMAP
CC
78
30
00
00
30
30
30
30
30
30
30
30
30
30
30
30
30
ENDCHAR
STARTCHAR 01D1
ENCODING 465
SWIDTH 760 0
DWIDTH 19 0
BBX 16 23 2 0
BITMAP
0660
03C0
0180
0000
0000
07E0
1FF8
3C3C
700E
6006
6006
C003
C003
C003
C003
C003
C003
6006
6006
700E
383C
1FF8
07E0
ENDCHAR
STARTCHAR 01D2
ENCODING 466
SWIDTH 560 0
DWIDTH 14 0
BBX 12 18 1 0
BITMAP
1980
0F00
0600
0000
0000
1F80
3FC0
70E0
E070
C030
C030
C030
C030
C030
E070
70E0
3FC0
1F80
ENDCHAR
STARTCHAR 01D3
ENCODING 467
SWIDTH 720 0
DWIDTH 18 0
BBX 14 23 2 0
BITMAP
0CC0
0780
0300
0000
0000
C00C
C00C
C00C
C00C
C00C
C00C
C00C
C00C
C00C
C00C
C00C
C00C
C00C
C00C
6018
7038
3FF0
0FC0
ENDCHAR
STARTCHAR 01D4
ENCODING 468
SWIDTH 560 0
DWIDTH 14 0
BBX 10 18 2 0
BITMAP
3300
1E00
0C00
0000
0000
C0C0
C0C0
C0C0
C0C0
C0C0
C0C0
C0C0
C0C0
C0C0
C1C0
E3C0
7EC0
3CC0
ENDCHAR
STARTCHAR 01D5
ENCODING 469
SWIDTH 720 0
DWIDTH 18 0
BBX 14 23 2 0
BITMAP
0FE0
0000
0C60
0C60
0000
C00C
C00C
C00C
C00C
C00C
C00C
C00C
C00C
C00C
C00C
C00C
C00C
C00C
C00C
6018
7038
3FF0
0FC0
ENDCHAR
STARTCHAR 01D6
ENCODING 470
SWIDTH 560 0
DWIDTH 14 0
BBX 10 22 2 0
BITMAP
3F80
3F80
0000
0000
0000
3300
3300
0000
0000
C0C0
C0C0
C0C0
C0C0
C0C0
C0C0
C0C0
C0C0
C0C0
C1C0
E3C0
7EC0
3CC0
ENDCHAR
STARTCHAR 01D7
ENCODING 471
SWIDTH 720 0
DWIDTH 18 0
BBX 14 23 2 0
BITMAP
00C0
0180
0C60
0C60
0000
C00C
C00C
C00C
C00C
C00C
C00C
C00C
C00C
C00C
C00C
C00C
C00C
C00C
C00C
6018
7038
3FF0
0FC0
ENDCHAR
STARTCHAR 01D8
ENCODING 472
SWIDTH 560 0
DWIDTH 14 0
BBX 10 23 2 0
BITMAP
0700
0600
0C00
0000
0000
0000
3300
3300
0000
0000
C0C0
C0C0
C0C0
C0C0
C0C0
C0C0
C0C0
C0C0
C0C0
C1C0
E3C0
7EC0
3CC0
ENDCHAR
STARTCHAR 01D9
ENCODING 473
SWIDTH 720 0
DWIDTH 18 0
BBX 14 23 2 0
BITMAP
06C0
0380
0C60
0C60
0000
C00C
C00C
C00C
C00C
C00C
C00C
C00C
C00C
C00C
C00C
C00C
C00C
C00C
C00C
6018
7038
3FF0
0FC0
ENDCHAR
STARTCHAR 01DA
ENCODING 474
SWIDTH 560 0
DWIDTH 14 0
BBX 10 23 2 0
BITMAP
3300
1E00
0C00
0000
0000
0000
3300
3300
0000
0000
C0C0
C0C0
C0C0
C0C0
C0C0
C0C0
C0C0
C0C0
C0C0
C1C0
E3C0
7EC0
3CC0
ENDCHAR
STARTCHAR 01DB
ENCODING 475
SWIDTH 720 0
DWIDTH 18 0
BBX 14 23 2 0
BITMAP
0600
0300
0C60
0C60
0000
C00C
C00C
C00C
C00C
C00C
C00C
C00C
C00C
C00C
C00C
C00C
C00C
C00C
C00C
6018
7038
3FF0
0FC0
ENDCHAR
STARTCHAR 01DC
ENCODING 476
SWIDTH 560 0
DWIDTH 14 0
BBX 10 23 2 0
BITMAP
3800
1800
0C00
0000
0000
0000
3300
3300
0000
0000
C0C0
C0C0
C0C0
C0C0
C0C0
C0C0
C0C0
C0C0
C0C0
C1C0
E3C0
7EC0
3CC0
ENDCHAR
STARTCHAR 01FA
ENCODING 506
SWIDTH 680 0
DWIDTH 17 0
BBX 15 25 1 0
BITMAP
01C0
0180
0300
0380
0440
0440
0440
0380
0380
06C0
06C0
0EC0
0C60
0C60
1C70
1830
1830
3FF8
3FF8
3018
600C
600C
600C
C006
C006
ENDCHAR
STARTCHAR 01FB
ENCODING 507
SWIDTH 560 0
DWIDTH 14 0
BBX 12 24 1 0
BITMAP
0380
0300
0600
0000
0700
0880
0880
0880
0700
0000
0000
1F80
7FC0
E0E0
C060
0060
03E0
3FE0
7C60
C060
C0E0
E1E0
7F60
3E30
ENDCHAR
STARTCHAR 01FC
ENCODING 508
SWIDTH 1000 0
DWIDTH 25 0
BBX 24 23 0 0
BITMAP
001C00
001800
003000
000000
000000
00FFFF
00FFFF
018C00
018C00
030C00
030C00
060C00
060C00
0C0FFE
0C0FFE
180C00
1FFC00
3FFC00
300C00
600C00
600C00
C00FFF
C00FFF
ENDCHAR
STARTCHAR 01FD
ENCODING 509
SWIDTH 880 0
DWIDTH 22 0
BBX 20 18 1 0
BITMAP
001C00
001800
003000
000000
000000
1F8F80
7FFFC0
60F0E0
C0E060
03C030
3FFFF0
7CFFF0
E0C000
C0C000
C1E030
E3F0E0
7FBFE0
3E0F80
ENDCHAR
STARTCHAR 01FE
ENCODING 510
SWIDTH 760 0
DWIDTH 19 0
BBX 16 24 2 -1
BITMAP
0070
0060
00C0
0000
0000
07E3
1FFF
3C3E
300E
601E
603B
C073
C063
C0C3
C183
C303
C703
EE06
7C06
780E
3C3C
7FF8
CFE0
4000
ENDCHAR
STARTCHAR 01FF
ENCODING 511
SWIDTH 600 0
DWIDTH 15 0
BBX 12 19 1 -1
BITMAP
0700
0600
0C00
0000
0030
1FB0
3FE0
70E0
E1F0
C330
C730
C630
CC30
D830
F860
70E0
7FC0
DF80
C000
ENDCHAR
STARTCHAR 0259
ENCODING 601
SWIDTH 560 0
DWIDTH 14 0
BBX 12 13 1 0
BITMAP
1F80
7FC0
60E0
C060
0030
0030
FFF0
FFF0
C030
C060
70E0
3FC0
1F80
ENDCHAR
STARTCHAR 02C6
ENCODING 710
SWIDTH 320 0
DWIDTH 8 0
BBX 6 3 1 15
BITMAP
30
78
CC
ENDCHAR
STARTCHAR 02C7
ENCODING 711
SWIDTH 320 0
DWIDTH 8 0
BBX 6 3 1 15
BITMAP
CC
78
30
ENDCHAR
STARTCHAR 02C9
ENCODING 713
SWIDTH 320 0
DWIDTH 8 0
BBX 7 2 0 15
BITMAP
FE
FE
ENDCHAR
STARTCHAR 02D8
ENCODING 728
SWIDTH 320 0
DWIDTH 8 0
BBX 7 3 0 15
BITMAP
C6
FE
7C
ENDCHAR
STARTCHAR 02D9
ENCODING 729
SWIDTH 320 0
DWIDTH 8 0
BBX 2 2 3 15
BITMAP
C0
C0
ENDCHAR
STARTCHAR 02DA
ENCODING 730
SWIDTH 320 0
DWIDTH 8 0
BBX 5 5 2 13
BITMAP
70
88
88
88
70
ENDCHAR
STARTCHAR 02DB
ENCODING 731
SWIDTH 320 0
DWIDTH 8 0
BBX 5 5 2 -5
BITMAP
40
80
80
C0
78
ENDCHAR
STARTCHAR 02DC
ENCODING 732
SWIDTH 320 0
DWIDTH 8 0
BBX 8 3 0 15
BITMAP
73
FF
CE
ENDCHAR
STARTCHAR 02DD
ENCODING 733
SWIDTH 320 0
DWIDTH 8 0
BBX 8 3 1 15
BITMAP
33
66
CC
ENDCHAR
STARTCHAR 0300
ENCODING 768
SWIDTH 0 0
DWIDTH 0 0
BBX 5 3 -7 19
BITMAP
E0
70
38
ENDCHAR
STARTCHAR 0301
ENCODING 769
SWIDTH 0 0
DWIDTH 0 0
BBX 5 3 -5 19
BITMAP
38
70
E0
ENDCHAR
STARTCHAR 0303
ENCODING 771
SWIDTH 0 0
DWIDTH 0 0
BBX 9 3 -11 19
BITMAP
7180
FF80
C700
ENDCHAR
STARTCHAR 0309
ENCODING 777
SWIDTH 0 0
DWIDTH 0 0
BBX 5 4 -6 19
BITMAP
F0
18
38
20
ENDCHAR
STARTCHAR 0323
ENCODING 803
SWIDTH 0 0
DWIDTH 0 0
BBX 2 2 -9 -4
BITMAP
C0
C0
ENDCHAR
STARTCHAR 037E
ENCODING 894
SWIDTH 280 0
DWIDTH 7 0
BBX 2 17 2 -4
BITMAP
C0
C0
00
00
00
00
00
00
00
00
00
C0
C0
40
40
C0
80
ENDCHAR
STARTCHAR 0384
ENCODING 900
SWIDTH 320 0
DWIDTH 8 0
BBX 4 3 3 15
BITMAP
70
60
C0
ENDCHAR
STARTCHAR 0385
ENCODING 901
SWIDTH 320 0
DWIDTH 8 0
BBX 8 4 0 14
BITMAP
0C
08
DB
D3
ENDCHAR
STARTCHAR 0386
ENCODING 902
SWIDTH 680 0
DWIDTH 17 0
BBX 15 18 1 0
BITMAP
1B80
3380
66C0
06C0
0EC0
0C60
0C60
1C70
1830
1830
3FF8
3FF8
3018
600C
600C
600C
C006
C006
ENDCHAR
STARTCHAR 0387
ENCODING 903
SWIDTH 240 0
DWIDTH 6 0
BBX 2 2 2 11
BITMAP
C0
C0
ENDCHAR
STARTCHAR 0388
ENCODING 904
SWIDTH 800 0
DWIDTH 20 0
BBX 19 18 0 0
BITMAP
37FFE0
67FFE0
C60000
060000
060000
060000
060000
060000
07FFC0
07FFC0
060000
060000
060000
060000
060000
060000
07FFE0
07FFE0
ENDCHAR
STARTCHAR 0389
ENCODING 905
SWIDTH 840 0
DWIDTH 21 0
BBX 20 18 -1 0
BITMAP
360030
660030
C60030
060030
060030
060030
060030
060030
07FFF0
07FFF0
060030
060030
060030
060030
060030
060030
060030
060030
ENDCHAR
STARTCHAR 038A
ENCODING 906
SWIDTH 400 0
DWIDTH 10 0
BBX 7 18 -1 0
BITMAP
36
66
C6
06
06
06
06
06
06
06
06
06
06
06
06
06
06
06
ENDCHAR
STARTCHAR 038C
ENCODING 908
SWIDTH 760 0
DWIDTH 19 0
BBX 19 18 -1 0
BITMAP
30F800
67FE00
CF0780
0C0180
1800C0
1800C0
300060
300060
300060
300060
300060
300060
1800C0
1800C0
0C0180
0F0780
03FF00
00FC00
ENDCHAR
STARTCHAR 038E
ENCODING 910
SWIDTH 800 0
DWIDTH 20 0
BBX 21 18 -1 0
BITMAP
360038
630070
C18060
01C0E0
00E1C0
007180
003300
003F00
001E00
000C00
000C00
000C00
000C00
000C00
000C00
000C00
000C00
000C00
ENDCHAR
STARTCHAR 038F
ENCODING 911
SWIDTH 760 0
DWIDTH 19 0
BBX 19 18 -1 0
BITMAP
30FC00
63FF00
C70380
0E01C0
0C00C0
1800E0
180060
180060
180060
180060
180060
080040
0C00C0
040080
060180
038700
1FCFE0
1FCFE0
ENDCHAR
STARTCHAR 0390
ENCODING 912
SWIDTH 240 0
DWIDTH 6 0
BBX 8 19 -1 0
BITMAP
0C
08
DB
D3
00
00
18
18
18
18
18
18
18
18
18
18
18
18
18
ENDCHAR
STARTCHAR 0391
ENCODING 913
SWIDTH 680 0
DWIDTH 17 0
BBX 15 18 1 0
BITMAP
0380
0380
06C0
06C0
0EC0
0C60
0C60
1C70
1830
1830
3FF8
3FF8
3018
600C
600C
600C
C006
C006
ENDCHAR
STARTCHAR 0392
ENCODING 914
SWIDTH 680 0
DWIDTH 17 0
BBX 14 18 2 0
BITMAP
FFC0
FFF0
C030
C018
C018
C018
C018
C030
FFE0
FFF0
C038
C01C
C00C
C00C
C00C
C038
FFF8
FFE0
ENDCHAR
STARTCHAR 0393
ENCODING 915
SWIDTH 560 0
DWIDTH 14 0
BBX 11 18 3 0
BITMAP
FFE0
FFE0
C000
C000
C000
C000
C000
C000
C000
C000
C000
C000
C000
C000
C000
C000
C000
C000
ENDCHAR
STARTCHAR 0394
ENCODING 916
SWIDTH 680 0
DWIDTH 17 0
BBX 15 18 1 0
BITMAP
0380
0380
06C0
06C0
06C0
0C60
0C60
1C70
1830
1830
3018
3018
3018
600C
600C
C006
FFFE
FFFE
ENDCHAR
STARTCHAR 0395
ENCODING 917
SWIDTH 680 0
DWIDTH 17 0
BBX 14 18 2 0
BITMAP
FFFC
FFFC
C000
C000
C000
C000
C000
C000
FFF8
FFF8
C000
C000
C000
C000
C000
C000
FFFC
FFFC
ENDCHAR
STARTCHAR 0396
ENCODING 918
SWIDTH 600 0
DWIDTH 15 0
BBX 14 18 0 0
BITMAP
7FFC
7FFC
0018
0038
0070
00E0
00C0
01C0
0380
0700
0600
0E00
1C00
3800
3000
6000
FFFC
FFFC
ENDCHAR
STARTCHAR 0397
ENCODING 919
SWIDTH 720 0
DWIDTH 18 0
BBX 14 18 2 0
BITMAP
C00C
C00C
C00C
C00C
C00C
C00C
C00C
C00C
FFFC
FFFC
C00C
C00C
C00C
C00C
C00C
C00C
C00C
C00C
ENDCHAR
STARTCHAR 0398
ENCODING 920
SWIDTH 760 0
DWIDTH 19 0
BBX 16 18 2 0
BITMAP
07E0
1FF8
3C3C
700C
6006
6006
C003
C003
CFF3
CFF3
C003
C003
6007
6006
700E
383C
1FF8
07E0
ENDCHAR
STARTCHAR 0399
ENCODING 921
SWIDTH 240 0
DWIDTH 6 0
BBX 2 18 2 0
BITMAP
C0
C0
C0
C0
C0
C0
C0
C0
C0
C0
C0
C0
C0
C0
C0
C0
C0
C0
ENDCHAR
STARTCHAR 039A
ENCODING 922
SWIDTH 680 0
DWIDTH 17 0
BBX 15 18 2 0
BITMAP
C01C
C038
C070
C0E0
C1C0
C380
C700
CE00
DF00
FF00
F380
E1C0
C0E0
C070
C070
C038
C01C
C00E
ENDCHAR
STARTCHAR 039B
ENCODING 923
SWIDTH 680 0
DWIDTH 17 0
BBX 15 18 1 0
BITMAP
0380
0380
06C0
06C0
06C0
0C60
0C60
1C70
1830
1830
3018
3018
3018
600C
600C
E00E
C006
C006
ENDCHAR
STARTCHAR 039C
ENCODING 924
SWIDTH 840 0
DWIDTH 21 0
BBX 17 18 2 0
BITMAP
E00380
F00780
F00780
D80D80
D80D80
D80D80
CC1980
CC1980
CC1980
C63180
C63180
C63180
C36180
C36180
C36180
C1C180
C1C180
C1C180
ENDCHAR
STARTCHAR 039D
ENCODING 925
SWIDTH 720 0
DWIDTH 18 0
BBX 14 18 2 0
BITMAP
C00C
E00C
F00C
F00C
D80C
CC0C
CC0C
C60C
C30C
C30C
C18C
C0CC
C0CC
C06C
C03C
C03C
C01C
C00C
ENDCHAR
STARTCHAR 039E
ENCODING 926
SWIDTH 640 0
DWIDTH 16 0
BBX 14 18 1 0
BITMAP
FFFC
FFFC
0000
0000
0000
0000
0000
0000
7FF8
7FF8
0000
0000
0000
0000
0000
0000
FFFC
FFFC
ENDCHAR
STARTCHAR 039F
ENCODING 927
SWIDTH 760 0
DWIDTH 19 0
BBX 16 18 2 0
BITMAP
07E0
1FF8
3C3C
700E
6006
6006
C003
C003
C003
C003
C003
C003
6006
6006
700E
383C
1FF8
07E0
ENDCHAR
STARTCHAR 03A0
ENCODING 928
SWIDTH 720 0
DWIDTH 18 0
BBX 14 18 2 0
BITMAP
FFFC
FFFC
C00C
C00C
C00C
C00C
C00C
C00C
C00C
C00C
C00C
C00C
C00C
C00C
C00C
C00C
C00C
C00C
ENDCHAR
STARTCHAR 03A1
ENCODING 929
SWIDTH 680 0
DWIDTH 17 0
BBX 14 18 2 0
BITMAP
FFE0
FFF0
C038
C01C
C00C
C00C
C00C
C01C
C038
FFF0
FFE0
C000
C000
C000
C000
C000
C000
C000
ENDCHAR
STARTCHAR 03A3
ENCODING 931
SWIDTH 600 0
DWIDTH 15 0
BBX 12 18 2 0
BITMAP
FFE0
FFE0
C000
6000
3000
1800
0C00
0600
0300
0600
0C00
0C00
1800
3000
6000
C000
FFF0
FFF0
ENDCHAR
STARTCHAR 03A4
ENCODING 932
SWIDTH 560 0
DWIDTH 14 0
BBX 14 18 0 0
BITMAP
FFFC
FFFC
0300
0300
0300
0300
0300
0300
0300
0300
0300
0300
0300
0300
0300
0300
0300
0300
ENDCHAR
STARTCHAR 03A5
ENCODING 933
SWIDTH 640 0
DWIDTH 16 0
BBX 16 18 0 0
BITMAP
C007
600E
300C
381C
1C38
0C30
0E70
0660
03C0
03C0
0180
0180
0180
0180
0180
0180
0180
0180
ENDCHAR
STARTCHAR 03A6
ENCODING 934
SWIDTH 720 0
DWIDTH 18 0
BBX 15 18 2 0
BITMAP
0180
0180
0FE0
3FF8
799C
618C
C186
C186
C186
C186
C186
618C
799C
3FF8
0FE0
0180
0180
0180
ENDCHAR
STARTCHAR 03A7
ENCODING 935
SWIDTH 680 0
DWIDTH 17 0
BBX 17 18 0 0
BITMAP
700700
380E00
1C1C00
0C3800
0E3800
077000
036000
01C000
01C000
03E000
036000
077000
0E3800
1C1C00
180C00
380E00
700700
E00380
ENDCHAR
STARTCHAR 03A8
ENCODING 936
SWIDTH 800 0
DWIDTH 20 0
BBX 16 18 2 0
BITMAP
C183
C183
C183
C183
C183
C183
C183
C187
6186
799E
3FFC
0FF0
0180
0180
0180
0180
0180
0180
ENDCHAR
STARTCHAR 03A9
ENCODING 937
SWIDTH 760 0
DWIDTH 19 0
BBX 16 18 2 0
BITMAP
07E0
1FF8
381C
700E
6006
C007
C003
C003
C003
C003
C003
4002
6006
2004
300C
1C38
FE7F
FE7F
ENDCHAR
STARTCHAR 03AA
ENCODING 938
SWIDTH 240 0
DWIDTH 6 0
BBX 6 22 0 0
BITMAP
CC
CC
00
00
30
30
30
30
30
30
30
30
30
30
30
30
30
30
30
30
30
30
ENDCHAR
STARTCHAR 03AB
ENCODING 939
SWIDTH 640 0
DWIDTH 16 0
BBX 16 22 0 0
BITMAP
0660
0660
0000
0000
C007
600E
300C
381C
1C38
0C30
0E70
0660
03C0
03C0
0180
0180
0180
0180
0180
0180
0180
0180
ENDCHAR
STARTCHAR 03AC
ENCODING 940
SWIDTH 560 0
DWIDTH 14 0
BBX 12 18 1 0
BITMAP
0380
0300
0600
0000
0000
1E30
3FB0
71F0
E0E0
C060
C060
C060
C060
C060
E0E0
71F0
3FB0
1F30
ENDCHAR
STARTCHAR 03AD
ENCODING 941
SWIDTH 440 0
DWIDTH 11 0
BBX 9 18 1 0
BITMAP
0E00
0C00
1800
0000
0000
3E00
7F80
E300
C000
E000
7C00
7C00
E000
C000
C100
E380
7F00
3E00
ENDCHAR
STARTCHAR 03AE
ENCODING 942
SWIDTH 560 0
DWIDTH 14 0
BBX 10 23 2 -5
BITMAP
0700
0600
0C00
0000
0000
CF00
FF80
E1C0
C0C0
C0C0
C0C0
C0C0
C0C0
C0C0
C0C0
C0C0
C0C0
C0C0
00C0
00C0
00C0
00C0
00C0
ENDCHAR
STARTCHAR 03AF
ENCODING 943
SWIDTH 240 0
DWIDTH 6 0
BBX 4 18 1 0
BITMAP
70
60
C0
00
00
60
60
60
60
60
60
60
60
60
60
60
60
60
ENDCHAR
STARTCHAR 03B0
ENCODING 944
SWIDTH 560 0
DWIDTH 14 0
BBX 10 19 2 0
BITMAP
0600
0400
6D80
6980
0000
0000
C0C0
C0C0
C0C0
C0C0
C0C0
C0C0
C0C0
C0C0
C0C0
C0C0
6180
7F80
1E00
ENDCHAR
STARTCHAR 03B1
ENCODING 945
SWIDTH 560 0
DWIDTH 14 0
BBX 12 13 1 0
BITMAP
1E30
3FB0
71F0
E0E0
C060
C060
C060
C060
C060
E0E0
71F0
3FB0
1F30
ENDCHAR
STARTCHAR 03B2
ENCODING 946
SWIDTH 560 0
DWIDTH 14 0
BBX 11 23 2 -5
BITMAP
1F00
7F80
61C0
C0C0
C0C0
C0C0
C180
CE00
CF80
C1C0
C0E0
C060
C060
C060
E0E0
F0C0
DFC0
CF00
C000
C000
C000
C000
C000
ENDCHAR
STARTCHAR 03B3
ENCODING 947
SWIDTH 480 0
DWIDTH 12 0
BBX 10 18 1 -5
BITMAP
C0C0
C0C0
C0C0
6180
6180
6380
3300
3300
3F00
1E00
1E00
1E00
0C00
0C00
0C00
0C00
0C00
0C00
ENDCHAR
STARTCHAR 03B4
ENCODING 948
SWIDTH 560 0
DWIDTH 14 0
BBX 12 18 1 0
BITMAP
7FE0
7FE0
3000
1C00
0700
1F80
3FC0
70E0
E070
C030
C030
C030
C030
C030
6060
70E0
3FC0
1F80
ENDCHAR
STARTCHAR 03B5
ENCODING 949
SWIDTH 440 0
DWIDTH 11 0
BBX 9 13 1 0
BITMAP
3E00
7F80
E300
C000
E000
7C00
7C00
E000
C000
C100
E380
7F00
3E00
ENDCHAR
STARTCHAR 03B6
ENCODING 950
SWIDTH 440 0
DWIDTH 11 0
BBX 10 23 1 -5
BITMAP
3FC0
3FC0
0380
0700
0C00
1800
3800
3000
6000
6000
C000
C000
C000
C000
C000
6000
7F00
3F80
01C0
00C0
01C0
0780
0700
ENDCHAR
STARTCHAR 03B7
ENCODING 951
SWIDTH 560 0
DWIDTH 14 0
BBX 10 18 2 -5
BITMAP
CF00
FF80
E1C0
C0C0
C0C0
C0C0
C0C0
C0C0
C0C0
C0C0
C0C0
C0C0
C0C0
00C0
00C0
00C0
00C0
00C0
ENDCHAR
STARTCHAR 03B8
ENCODING 952
SWIDTH 560 0
DWIDTH 14 0
BBX 12 18 1 0
BITMAP
0F00
3FC0
70E0
6060
E060
C030
C030
C030
FFF0
FFF0
C030
C030
C030
6060
6060
70E0
3FC0
0F00
ENDCHAR
STARTCHAR 03B9
ENCODING 953
SWIDTH 240 0
DWIDTH 6 0
BBX 2 13 2 0
BITMAP
C0
C0
C0
C0
C0
C0
C0
C0
C0
C0
C0
C0
C0
ENDCHAR
STARTCHAR 03BA
ENCODING 954
SWIDTH 520 0
DWIDTH 13 0
BBX 10 13 2 0
BITMAP
C180
C300
C600
CC00
D800
F000
F800
CC00
C600
C600
C300
C180
C0C0
ENDCHAR
STARTCHAR 03BB
ENCODING 955
SWIDTH 520 0
DWIDTH 13 0
BBX 11 18 1 0
BITMAP
1800
1800
1800
0C00
0C00
0600
0E00
0E00
1B00
1B00
1B80
3180
3180
60C0
60C0
60E0
C060
C060
ENDCHAR
STARTCHAR 03BC
ENCODING 956
SWIDTH 560 0
DWIDTH 14 0
BBX 10 18 2 -5
BITMAP
C0C0
C0C0
C0C0
C0C0
C0C0
C0C0
C0C0
C0C0
C0C0
C1C0
E1C0
FFC0
DEC0
C000
C000
C000
C000
C000
ENDCHAR
STARTCHAR 03BD
ENCODING 957
SWIDTH 440 0
DWIDTH 11 0
BBX 11 13 0 0
BITMAP
C060
C060
60C0
60C0
60C0
3180
3180
1B00
1B00
1B00
0E00
0E00
0400
ENDCHAR
STARTCHAR 03BE
ENCODING 958
SWIDTH 440 0
DWIDTH 11 0
BBX 9 23 1 -5
BITMAP
1F00
3F00
7000
6000
6000
7000
3F00
0F00
3C00
7000
6000
C000
C000
C000
C000
6000
7E00
1F00
0180
0180
0380
0F00
0E00
ENDCHAR
STARTCHAR 03BF
ENCODING 959
SWIDTH 560 0
DWIDTH 14 0
BBX 12 13 1 0
BITMAP
1F80
3FC0
70E0
E070
C030
C030
C030
C030
C030
E070
70E0
3FC0
1F80
ENDCHAR
STARTCHAR 03C0
ENCODING 960
SWIDTH 680 0
DWIDTH 17 0
BBX 16 13 0 0
BITMAP
FFFF
FFFF
1818
1818
1818
1818
1818
1818
1818
1818
1818
1818
1818
ENDCHAR
STARTCHAR 03C1
ENCODING 961
SWIDTH 560 0
DWIDTH 14 0
BBX 11 18 2 -5
BITMAP
1F00
3F80
71C0
E0C0
C060
C060
C060
C060
C060
E0C0
F1C0
FF80
DF00
C000
C000
C000
C000
C000
ENDCHAR
STARTCHAR 03C2
ENCODING 962
SWIDTH 480 0
DWIDTH 12 0
BBX 11 18 1 -5
BITMAP
07E0
1FE0
3800
7000
6000
C000
C000
C000
C000
E000
7000
3F00
0F80
01C0
00C0
01C0
0F80
0F00
ENDCHAR
STARTCHAR 03C3
ENCODING 963
SWIDTH 600 0
DWIDTH 15 0
BBX 14 13 1 0
BITMAP
1FFC
3FFC
70E0
E060
C030
C030
C030
C030
C030
E070
70E0
3FC0
1F80
ENDCHAR
STARTCHAR 03C4
ENCODING 964
SWIDTH 400 0
DWIDTH 10 0
BBX 6 13 2 0
BITMAP
FC
FC
30
30
30
30
30
30
30
30
30
30
30
ENDCHAR
STARTCHAR 03C5
ENCODING 965
SWIDTH 560 0
DWIDTH 14 0
BBX 10 13 2 0
BITMAP
C0C0
C0C0
C0C0
C0C0
C0C0
C0C0
C0C0
C0C0
C0C0
C0C0
6180
7F80
1E00
ENDCHAR
STARTCHAR 03C6
ENCODING 966
SWIDTH 640 0
DWIDTH 16 0
BBX 14 18 1 -5
BITMAP
19E0
3BF0
7318
E30C
C30C
C30C
C30C
C30C
E31C
6318
7B70
3FE0
0FC0
0300
0300
0300
0300
0300
ENDCHAR
STARTCHAR 03C7
ENCODING 967
SWIDTH 520 0
DWIDTH 13 0
BBX 11 18 1 -5
BITMAP
C060
C0E0
60C0
71C0
3180
1B80
1B00
0E00
0E00
0E00
0E00
1B00
1B00
3180
71C0
60C0
E060
C060
ENDCHAR
STARTCHAR 03C8
ENCODING 968
SWIDTH 720 0
DWIDTH 18 0
BBX 14 18 2 -5
BITMAP
C30C
C30C
C30C
C30C
C30C
C30C
C30C
C30C
C30C
E31C
7338
3FF0
1FE0
0300
0300
0300
0300
0300
ENDCHAR
STARTCHAR 03C9
ENCODING 969
SWIDTH 800 0
DWIDTH 20 0
BBX 18 13 1 0
BITMAP
300300
600180
600180
E0C1C0
C0C0C0
C0C0C0
C0C0C0
C0C0C0
C0C0C0
E0C1C0
71E380
3F3F00
1E1E00
ENDCHAR
STARTCHAR 03CA
ENCODING 970
SWIDTH 240 0
DWIDTH 6 0
BBX 6 17 0 0
BITMAP
CC
CC
00
00
30
30
30
30
30
30
30
30
30
30
30
30
30
ENDCHAR
STARTCHAR 03CB
ENCODING 971
SWIDTH 560 0
DWIDTH 14 0
BBX 10 17 2 0
BITMAP
3300
3300
0000
0000
C0C0
C0C0
C0C0
C0C0
C0C0
C0C0
C0C0
C0C0
C0C0
C0C0
6180
7F80
1E00
ENDCHAR
STARTCHAR 03CC
ENCODING 972
SWIDTH 560 0
DWIDTH 14 0
BBX 12 18 1 0
BITMAP
0380
0300
0600
0000
0000
1F80
3FC0
70E0
E070
C030
C030
C030
C030
C030
E070
70E0
3FC0
1F80
ENDCHAR
STARTCHAR 03CD
ENCODING 973
SWIDTH 560 0
DWIDTH 14 0
BBX 10 18 2 0
BITMAP
0700
0600
0C00
0000
0000
C0C0
C0C0
C0C0
C0C0
C0C0
C0C0
C0C0
C0C0
C0C0
C0C0
6180
7F80
1E00
ENDCHAR
STARTCHAR 03CE
ENCODING 974
SWIDTH 800 0
DWIDTH 20 0
BBX 18 18 1 0
BITMAP
00E000
00C000
018000
000000
000000
300300
600180
600180
E0C1C0
C0C0C0
C0C0C0
C0C0C0
C0C0C0
C0C0C0
E0C1C0
71E380
3F3F00
1E1E00
ENDCHAR
STARTCHAR 0401
ENCODING 1025
SWIDTH 680 0
DWIDTH 17 0
BBX 14 22 2 0
BITMAP
1980
1980
0000
0000
FFFC
FFFC
C000
C000
C000
C000
C000
C000
FFF8
FFF8
C000
C000
C000
C000
C000
C000
FFFC
FFFC
ENDCHAR
STARTCHAR 0402
ENCODING 1026
SWIDTH 880 0
DWIDTH 22 0
BBX 20 18 1 0
BITMAP
FFFC00
FFFC00
030000
030000
030000
030000
033F00
03FFC0
03C0E0
030060
030030
030030
030030
030030
030070
0310E0
031FC0
030F80
ENDCHAR
STARTCHAR 0403
ENCODING 1027
SWIDTH 560 0
DWIDTH 14 0
BBX 11 23 3 0
BITMAP
0700
0600
0C00
0000
0000
FFE0
FFE0
C000
C000
C000
C000
C000
C000
C000
C000
C000
C000
C000
C000
C000
C000
C000
C000
ENDCHAR
STARTCHAR 0404
ENCODING 1028
SWIDTH 720 0
DWIDTH 18 0
BBX 15 18 2 0
BITMAP
07E0
1FF8
383C
700C
600E
E004
C000
C000
FF80
FF80
C000
C004
C006
600E
701C
3838
1FF0
07E0
ENDCHAR
STARTCHAR 0405
ENCODING 1029
SWIDTH 680 0
DWIDTH 17 0
BBX 14 18 2 0
BITMAP
0FC0
1FF0
3838
601C
600C
6000
7000
3F00
1FE0
03F8
0038
000C
C00C
C00C
601C
7838
3FF0
0FC0
ENDCHAR
STARTCHAR 0406
ENCODING 1030
SWIDTH 240 0
DWIDTH 6 0
BBX 2 18 2 0
BITMAP
C0
C0
C0
C0
C0
C0
C0
C0
C0
C0
C0
C0
C0
C0
C0
C0
C0
C0
ENDCHAR
STARTCHAR 0407
ENCODING 1031
SWIDTH 240 0
DWIDTH 6 0
BBX 6 22 0 0
BITMAP
CC
CC
00
00
30
30
30
30
30
30
30
30
30
30
30
30
30
30
30
30
30
30
ENDCHAR
STARTCHAR 0408
ENCODING 1032
SWIDTH 520 0
DWIDTH 13 0
BBX 10 18 1 0
BITMAP
00C0
00C0
00C0
00C0
00C0
00C0
00C0
00C0
00C0
00C0
00C0
00C0
C0C0
C0C0
C0C0
6180
7F80
3E00
ENDCHAR
STARTCHAR 0409
ENCODING 1033
SWIDTH 1040 0
DWIDTH 26 0
BBX 25 18 0 0
BITMAP
1FFC0000
1FFC0000
180C0000
180C0000
180C0000
180C0000
180C0000
180C0000
180FFC00
180FFF00
180C0700
180C0180
180C0180
180C0180
180C0180
380C0300
F00FFF00
600FFC00
ENDCHAR
STARTCHAR 040A
ENCODING 1034
SWIDTH 1000 0
DWIDTH 25 0
BBX 22 18 2 0
BITMAP
C06000
C06000
C06000
C06000
C06000
C06000
C06000
C06000
FFFFE0
FFFFF8
C06038
C0600C
C0600C
C0600C
C0600C
C06018
C07FF8
C07FE0
ENDCHAR
STARTCHAR 040B
ENCODING 1035
SWIDTH 840 0
DWIDTH 21 0
BBX 19 18 0 0
BITMAP
FFFC00
FFFC00
030000
030000
030000
030000
030000
033F00
03FF80
03C1C0
0300E0
030060
030060
030060
030060
030060
030060
030060
ENDCHAR
STARTCHAR 040C
ENCODING 1036
SWIDTH 600 0
DWIDTH 15 0
BBX 13 23 2 0
BITMAP
0380
0300
0600
0000
0000
C038
C0F8
C0C0
C180
C180
C380
C300
C700
FE00
F800
CE00
C300
C180
C0C0
C0E0
C060
C030
C038
ENDCHAR
STARTCHAR 040E
ENCODING 1038
SWIDTH 640 0
DWIDTH 16 0
BBX 15 23 1 0
BITMAP
0C60
0FE0
07C0
0000
0000
C006
C006
600C
701C
3018
3838
1830
0C70
0C60
06E0
06C0
03C0
0380
0300
0300
0600
3E00
3C00
ENDCHAR
STARTCHAR 040F
ENCODING 1039
SWIDTH 720 0
DWIDTH 18 0
BBX 14 23 2 -5
BITMAP
C00C
C00C
C00C
C00C
C00C
C00C
C00C
C00C
C00C
C00C
C00C
C00C
C00C
C00C
C00C
C00C
FFFC
FFFC
0300
0300
0300
0300
0300
ENDCHAR
STARTCHAR 0410
ENCODING 1040
SWIDTH 680 0
DWIDTH 17 0
BBX 15 18 1 0
BITMAP
0380
0380
06C0
06C0
0EC0
0C60
0C60
1C70
1830
1830
3FF8
3FF8
3018
600C
600C
600C
C006
C006
ENDCHAR
STARTCHAR 0411
ENCODING 1041
SWIDTH 640 0
DWIDTH 16 0
BBX 13 18 2 0
BITMAP
FFE0
FFE0
C000
C000
C000
C000
C000
C000
FFC0
FFF0
C070
C018
C018
C018
C018
C030
FFF0
FFC0
ENDCHAR
STARTCHAR 0412
ENCODING 1042
SWIDTH 680 0
DWIDTH 17 0
BBX 14 18 2 0
BITMAP
FFC0
FFF0
C030
C018
C018
C018
C018
C030
FFE0
FFF0
C038
C01C
C00C
C00C
C00C
C038
FFF8
FFE0
ENDCHAR
STARTCHAR 0413
ENCODING 1043
SWIDTH 560 0
DWIDTH 14 0
BBX 11 18 3 0
BITMAP
FFE0
FFE0
C000
C000
C000
C000
C000
C000
C000
C000
C000
C000
C000
C000
C000
C000
C000
C000
ENDCHAR
STARTCHAR 0414
ENCODING 1044
SWIDTH 680 0
DWIDTH 17 0
BBX 17 22 0 -4
BITMAP
0FFE00
0FFE00
0C0600
0C0600
0C0600
0C0600
0C0600
0C0600
0C0600
080600
180600
180600
180600
300600
300600
600600
FFFF80
FFFF80
C00180
C00180
C00180
C00180
ENDCHAR
STARTCHAR 0415
ENCODING 1045
SWIDTH 680 0
DWIDTH 17 0
BBX 14 18 2 0
BITMAP
FFFC
FFFC
C000
C000
C000
C000
C000
C000
FFF8
FFF8
C000
C000
C000
C000
C000
C000
FFFC
FFFC
ENDCHAR
STARTCHAR 0416
ENCODING 1046
SWIDTH 920 0
DWIDTH 23 0
BBX 24 18 -1 0
BITMAP
E01807
F8181F
181818
0C1830
0C1830
0E1870
061860
0718E0
03FFC0
01FF80
0799E0
061860
0C1830
181818
38181C
30180C
601806
E01807
ENDCHAR
STARTCHAR 0417
ENCODING 1047
SWIDTH 600 0
DWIDTH 15 0
BBX 13 18 1 0
BITMAP
0F80
3FC0
70E0
6030
E030
C030
4030
00E0
07C0
07E0
0070
0038
4018
E018
6038
7870
3FE0
0F80
ENDCHAR
STARTCHAR 0418
ENCODING 1048
SWIDTH 720 0
DWIDTH 18 0
BBX 14 18 2 0
BITMAP
C00C
C01C
C03C
C03C
C06C
C0EC
C0CC
C18C
C38C
C70C
C60C
CC0C
DC0C
D80C
F00C
F00C
E00C
C00C
ENDCHAR
STARTCHAR 0419
ENCODING 1049
SWIDTH 720 0
DWIDTH 18 0
BBX 14 23 2 0
BITMAP
0C60
0FE0
07C0
0000
0000
C00C
C01C
C03C
C03C
C06C
C0EC
C0CC
C18C
C38C
C70C
C60C
CC0C
DC0C
D80C
F00C
F00C
E00C
C00C
ENDCHAR
STARTCHAR 041A
ENCODING 1050
SWIDTH 600 0
DWIDTH 15 0
BBX 13 18 2 0
BITMAP
C038
C0F8
C0C0
C180
C180
C380
C300
C700
FE00
F800
CE00
C300
C180
C0C0
C0E0
C060
C030
C038
ENDCHAR
STARTCHAR 041B
ENCODING 1051
SWIDTH 640 0
DWIDTH 16 0
BBX 14 18 0 0
BITMAP
1FFC
1FFC
180C
180C
180C
180C
180C
180C
180C
180C
180C
180C
180C
180C
180C
380C
F00C
600C
ENDCHAR
STARTCHAR 041C
ENCODING 1052
SWIDTH 840 0
DWIDTH 21 0
BBX 17 18 2 0
BITMAP
E00380
F00780
F00780
D80D80
D80D80
D80D80
CC1980
CC1980
CC1980
C63180
C63180
C63180
C36180
C36180
C36180
C1C180
C1C180
C1C180
ENDCHAR
STARTCHAR 041D
ENCODING 1053
SWIDTH 720 0
DWIDTH 18 0
BBX 14 18 2 0
BITMAP
C00C
C00C
C00C
C00C
C00C
C00C
C00C
C00C
FFFC
FFFC
C00C
C00C
C00C
C00C
C00C
C00C
C00C
C00C
ENDCHAR
STARTCHAR 041E
ENCODING 1054
SWIDTH 760 0
DWIDTH 19 0
BBX 16 18 2 0
BITMAP
07E0
1FF8
3C3C
700E
6006
6006
C003
C003
C003
C003
C003
C003
6006
6006
700E
383C
1FF8
07E0
ENDCHAR
STARTCHAR 041F
ENCODING 1055
SWIDTH 720 0
DWIDTH 18 0
BBX 14 18 2 0
BITMAP
FFFC
FFFC
C00C
C00C
C00C
C00C
C00C
C00C
C00C
C00C
C00C
C00C
C00C
C00C
C00C
C00C
C00C
C00C
ENDCHAR
STARTCHAR 0420
ENCODING 1056
SWIDTH 680 0
DWIDTH 17 0
BBX 14 18 2 0
BITMAP
FFE0
FFF0
C038
C01C
C00C
C00C
C00C
C01C
C038
FFF0
FFE0
C000
C000
C000
C000
C000
C000
C000
ENDCHAR
STARTCHAR 0421
ENCODING 1057
SWIDTH 720 0
DWIDTH 18 0
BBX 15 18 2 0
BITMAP
07E0
1FF8
381C
700C
6006
E000
C000
C000
C000
C000
C000
C000
6006
600E
700C
3838
1FF0
07E0
ENDCHAR
STARTCHAR 0422
ENCODING 1058
SWIDTH 560 0
DWIDTH 14 0
BBX 14 18 0 0
BITMAP
FFFC
FFFC
0300
0300
0300
0300
0300
0300
0300
0300
0300
0300
0300
0300
0300
0300
0300
0300
ENDCHAR
STARTCHAR 0423
ENCODING 1059
SWIDTH 640 0
DWIDTH 16 0
BBX 15 18 1 0
BITMAP
C006
C006
600C
701C
3018
3838
1830
0C70
0C60
06E0
06C0
03C0
0380
0300
0300
0600
3E00
3C00
ENDCHAR
STARTCHAR 0424
ENCODING 1060
SWIDTH 760 0
DWIDTH 19 0
BBX 16 18 1 0
BITMAP
0180
0180
0FE0
1FF8
399C
6186
E187
C183
C183
C183
C183
E187
6186
399C
1FF8
0FF0
0180
0180
ENDCHAR
STARTCHAR 0425
ENCODING 1061
SWIDTH 680 0
DWIDTH 17 0
BBX 17 18 0 0
BITMAP
700700
380E00
1C1C00
0C3800
0E3800
077000
036000
01C000
01C000
03E000
036000
077000
0E3800
1C1C00
180C00
380E00
700700
E00380
ENDCHAR
STARTCHAR 0426
ENCODING 1062
SWIDTH 760 0
DWIDTH 19 0
BBX 16 23 2 -5
BITMAP
C00C
C00C
C00C
C00C
C00C
C00C
C00C
C00C
C00C
C00C
C00C
C00C
C00C
C00C
C00C
C00C
FFFF
FFFF
0003
0003
0003
0003
0003
ENDCHAR
STARTCHAR 0427
ENCODING 1063
SWIDTH 680 0
DWIDTH 17 0
BBX 13 18 2 0
BITMAP
C018
C018
C018
C018
C018
C018
C018
C018
E018
7078
3FF8
1F98
0018
0018
0018
0018
0018
0018
ENDCHAR
STARTCHAR 0428
ENCODING 1064
SWIDTH 920 0
DWIDTH 23 0
BBX 18 18 2 0
BITMAP
C0C0C0
C0C0C0
C0C0C0
C0C0C0
C0C0C0
C0C0C0
C0C0C0
C0C0C0
C0C0C0
C0C0C0
C0C0C0
C0C0C0
C0C0C0
C0C0C0
C0C0C0
C0C0C0
FFFFC0
FFFFC0
ENDCHAR
STARTCHAR 0429
ENCODING 1065
SWIDTH 920 0
DWIDTH 23 0
BBX 20 23 2 -5
BITMAP
C0C0C0
C0C0C0
C0C0C0
C0C0C0
C0C0C0
C0C0C0
C0C0C0
C0C0C0
C0C0C0
C0C0C0
C0C0C0
C0C0C0
C0C0C0
C0C0C0
C0C0C0
C0C0C0
FFFFF0
FFFFF0
000030
000030
000030
000030
000030
ENDCHAR
STARTCHAR 042A
ENCODING 1066
SWIDTH 800 0
DWIDTH 20 0
BBX 19 18 0 0
BITMAP
FE0000
FE0000
060000
060000
060000
060000
060000
060000
07FF00
07FFC0
0601C0
060060
060060
060060
060060
0601C0
07FFC0
07FF00
ENDCHAR
STARTCHAR 042B
ENCODING 1067
SWIDTH 880 0
DWIDTH 22 0
BBX 18 18 2 0
BITMAP
C000C0
C000C0
C000C0
C000C0
C000C0
C000C0
C000C0
C000C0
FFE0C0
FFF8C0
C038C0
C00CC0
C00CC0
C00CC0
C00CC0
C038C0
FFF8C0
FFE0C0
ENDCHAR
STARTCHAR 042C
ENCODING 1068
SWIDTH 640 0
DWIDTH 16 0
BBX 13 18 2 0
BITMAP
C000
C000
C000
C000
C000
C000
C000
C000
FFC0
FFF0
C030
C018
C018
C018
C018
C030
FFF0
FFC0
ENDCHAR
STARTCHAR 042D
ENCODING 1069
SWIDTH 720 0
DWIDTH 18 0
BBX 15 18 2 0
BITMAP
0FC0
3FF0
7838
601C
E00C
400C
0006
0006
03FE
03FE
0006
4006
C006
E00C
701C
3838
1FF0
0FC0
ENDCHAR
STARTCHAR 042E
ENCODING 1070
SWIDTH 1000 0
DWIDTH 25 0
BBX 22 18 2 0
BITMAP
C03F00
C0FFC0
C1E0F0
C38030
C30018
C70018
C6000C
C6000C
FE000C
FE000C
C6000C
C6000C
C30018
C30018
C38030
C1E0F0
C0FFC0
C03F00
ENDCHAR
STARTCHAR 042F
ENCODING 1071
SWIDTH 720 0
DWIDTH 18 0
BBX 15 18 1 0
BITMAP
0FFE
3FFE
3806
6006
6006
6006
7006
3806
3FFE
0FFE
0706
0606
0E06
1C06
3806
3806
7006
E006
ENDCHAR
STARTCHAR 0430
ENCODING 1072
SWIDTH 560 0
DWIDTH 14 0
BBX 12 13 1 0
BITMAP
1F80
7FC0
E0E0
C060
0060
03E0
3FE0
7C60
C060
C0E0
E1E0
7F60
3E30
ENDCHAR
STARTCHAR 0431
ENCODING 1073
SWIDTH 560 0
DWIDTH 14 0
BBX 12 18 1 0
BITMAP
0FF0
3FE0
7000
4000
C000
CF80
FFC0
F0E0
E060
C030
C030
C030
C030
C030
6060
70E0
3FC0
1F80
ENDCHAR
STARTCHAR 0432
ENCODING 1074
SWIDTH 520 0
DWIDTH 13 0
BBX 10 13 2 0
BITMAP
FE00
FF00
C180
C180
C380
FF00
FF80
C1C0
C0C0
C0C0
C1C0
FF80
FF00
ENDCHAR
STARTCHAR 0433
ENCODING 1075
SWIDTH 360 0
DWIDTH 9 0
BBX 7 13 2 0
BITMAP
FE
FE
C0
C0
C0
C0
C0
C0
C0
C0
C0
C0
C0
ENDCHAR
STARTCHAR 0434
ENCODING 1076
SWIDTH 600 0
DWIDTH 15 0
BBX 12 17 1 -4
BITMAP
1FE0
1FE0
1860
1860
1860
1860
1860
3060
3060
3060
6060
FFF0
FFF0
C030
C030
C030
C030
ENDCHAR
STARTCHAR 0435
ENCODING 1077
SWIDTH 560 0
DWIDTH 14 0
BBX 12 13 1 0
BITMAP
1F80
3FC0
70E0
6060
C030
FFF0
FFF0
C000
C000
E030
7060
3FC0
1F80
ENDCHAR
STARTCHAR 0436
ENCODING 1078
SWIDTH 640 0
DWIDTH 16 0
BBX 16 13 0 0
BITMAP
718E
718E
1998
1998
1DB8
0DB0
07E0
1DB0
1998
318C
718E
6186
C183
ENDCHAR
STARTCHAR 0437
ENCODING 1079
SWIDTH 440 0
DWIDTH 11 0
BBX 9 13 1 0
BITMAP
3E00
7F00
6380
C180
0180
0F00
0F00
0380
0180
C180
E380
7F00
3E00
ENDCHAR
STARTCHAR 0438
ENCODING 1080
SWIDTH 560 0
DWIDTH 14 0
BBX 10 13 2 0
BITMAP
C1C0
C1C0
C3C0
C3C0
C6C0
C6C0
CCC0
DCC0
D8C0
F0C0
F0C0
E0C0
E0C0
ENDCHAR
STARTCHAR 0439
ENCODING 1081
SWIDTH 560 0
DWIDTH 14 0
BBX 10 18 2 0
BITMAP
3180
3F80
1F00
0000
0000
C1C0
C1C0
C3C0
C3C0
C6C0
C6C0
CCC0
DCC0
D8C0
F0C0
F0C0
E0C0
E0C0
ENDCHAR
STARTCHAR 043A
ENCODING 1082
SWIDTH 440 0
DWIDTH 11 0
BBX 9 13 2 0
BITMAP
C700
C700
CC00
CC00
CC00
D800
F000
D800
CC00
C600
C700
C300
C180
ENDCHAR
STARTCHAR 043B
ENCODING 1083
SWIDTH 600 0
DWIDTH 15 0
BBX 13 13 0 0
BITMAP
3FF8
3FF8
3018
3018
3018
3018
3018
3018
3018
3018
3018
F018
E018
ENDCHAR
STARTCHAR 043C
ENCODING 1084
SWIDTH 680 0
DWIDTH 17 0
BBX 13 13 2 0
BITMAP
E038
E038
F078
D078
D058
D8D8
C8D8
C898
CD98
C518
C718
C718
C218
ENDCHAR
STARTCHAR 043D
ENCODING 1085
SWIDTH 560 0
DWIDTH 14 0
BBX 10 13 2 0
BITMAP
C0C0
C0C0
C0C0
C0C0
C0C0
FFC0
FFC0
C0C0
C0C0
C0C0
C0C0
C0C0
C0C0
ENDCHAR
STARTCHAR 043E
ENCODING 1086
SWIDTH 560 0
DWIDTH 14 0
BBX 12 13 1 0
BITMAP
1F80
3FC0
70E0
E070
C030
C030
C030
C030
C030
E070
70E0
3FC0
1F80
ENDCHAR
STARTCHAR 043F
ENCODING 1087
SWIDTH 560 0
DWIDTH 14 0
BBX 10 13 2 0
BITMAP
FFC0
FFC0
C0C0
C0C0
C0C0
C0C0
C0C0
C0C0
C0C0
C0C0
C0C0
C0C0
C0C0
ENDCHAR
STARTCHAR 0440
ENCODING 1088
SWIDTH 560 0
DWIDTH 14 0
BBX 11 18 2 -5
BITMAP
CF00
DF80
F1C0
E0C0
C060
C060
C060
C060
C060
E0C0
F1C0
DF80
CF00
C000
C000
C000
C000
C000
ENDCHAR
STARTCHAR 0441
ENCODING 1089
SWIDTH 520 0
DWIDTH 13 0
BBX 11 13 1 0
BITMAP
1F80
3FC0
70E0
E060
C000
C000
C000
C000
C060
E0E0
70C0
3F80
1F00
ENDCHAR
STARTCHAR 0442
ENCODING 1090
SWIDTH 440 0
DWIDTH 11 0
BBX 12 13 -1 0
BITMAP
FFF0
FFF0
0600
0600
0600
0600
0600
0600
0600
0600
0600
0600
0600
ENDCHAR
STARTCHAR 0443
ENCODING 1091
SWIDTH 480 0
DWIDTH 12 0
BBX 11 18 1 -5
BITMAP
C060
C060
60C0
60C0
6180
3180
3180
3300
1B00
1E00
1E00
0E00
0C00
0C00
0C00
1800
7800
7000
ENDCHAR
STARTCHAR 0444
ENCODING 1092
SWIDTH 840 0
DWIDTH 21 0
BBX 19 23 1 -5
BITMAP
00C000
00C000
00C000
00C000
00C000
1EDF00
3FFF80
71F1C0
E1E0C0
C0C060
C0C060
C0C060
C0C060
C0C060
E1C0C0
71E1C0
3FFF80
1EDF00
00C000
00C000
00C000
00C000
00C000
ENDCHAR
STARTCHAR 0445
ENCODING 1093
SWIDTH 440 0
DWIDTH 11 0
BBX 11 13 0 0
BITMAP
E060
60C0
31C0
3980
1B00
0E00
0E00
0E00
1B00
3B80
3180
60C0
E0E0
ENDCHAR
STARTCHAR 0446
ENCODING 1094
SWIDTH 560 0
DWIDTH 14 0
BBX 11 18 2 -5
BITMAP
C0C0
C0C0
C0C0
C0C0
C0C0
C0C0
C0C0
C0C0
C0C0
C0C0
C0C0
FFE0
FFE0
0060
0060
0060
0060
0060
ENDCHAR
STARTCHAR 0447
ENCODING 1095
SWIDTH 520 0
DWIDTH 13 0
BBX 10 13 1 0
BITMAP
C0C0
C0C0
C0C0
C0C0
C0C0
C0C0
E1C0
7FC0
3EC0
00C0
00C0
00C0
00C0
ENDCHAR
STARTCHAR 0448
ENCODING 1096
SWIDTH 800 0
DWIDTH 20 0
BBX 16 13 2 0
BITMAP
C183
C183
C183
C183
C183
C183
C183
C183
C183
C183
C183
FFFF
FFFF
ENDCHAR
STARTCHAR 0449
ENCODING 1097
SWIDTH 840 0
DWIDTH 21 0
BBX 18 18 2 -5
BITMAP
C18300
C18300
C18300
C18300
C18300
C18300
C18300
C18300
C18300
C18300
C18300
FFFFC0
FFFFC0
0000C0
0000C0
0000C0
0000C0
0000C0
ENDCHAR
STARTCHAR 044A
ENCODING 1098
SWIDTH 640 0
DWIDTH 16 0
BBX 13 13 2 0
BITMAP
F800
F800
1800
1800
1800
1FE0
1FF0
1838
1818
1818
1838
1FF0
1FE0
ENDCHAR
STARTCHAR 044B
ENCODING 1099
SWIDTH 720 0
DWIDTH 18 0
BBX 14 13 2 0
BITMAP
C00C
C00C
C00C
C00C
C00C
FF0C
FFCC
C0EC
C06C
C06C
C0EC
FFCC
FF8C
ENDCHAR
STARTCHAR 044C
ENCODING 1100
SWIDTH 560 0
DWIDTH 14 0
BBX 11 13 2 0
BITMAP
C000
C000
C000
C000
C000
FF00
FFC0
C0E0
C060
C060
C0E0
FFC0
FF80
ENDCHAR
STARTCHAR 044D
ENCODING 1101
SWIDTH 520 0
DWIDTH 13 0
BBX 11 13 1 0
BITMAP
1F00
7F80
61C0
C0C0
0060
0FE0
0FE0
0060
C060
C0E0
61C0
3F80
1F00
ENDCHAR
STARTCHAR 044E
ENCODING 1102
SWIDTH 760 0
DWIDTH 19 0
BBX 16 13 2 0
BITMAP
C0F8
C1FC
C38E
C707
C603
FE03
FE03
C603
C603
C707
C38E
C1FC
C0F8
ENDCHAR
STARTCHAR 044F
ENCODING 1103
SWIDTH 560 0
DWIDTH 14 0
BBX 12 13 0 0
BITMAP
1FF0
3FF0
7030
6030
6030
7030
3FF0
07F0
0C30
1830
3030
7030
E030
ENDCHAR
STARTCHAR 0451
ENCODING 1105
SWIDTH 560 0
DWIDTH 14 0
BBX 12 17 1 0
BITMAP
1980
1980
0000
0000
1F80
3FC0
70E0
6060
C030
FFF0
FFF0
C000
C000
E030
7060
3FC0
1F80
ENDCHAR
STARTCHAR 0452
ENCODING 1106
SWIDTH 560 0
DWIDTH 14 0
BBX 12 23 0 -5
BITMAP
3000
FF00
FF00
3000
3000
33C0
3FE0
3C70
3830
3030
3030
3030
3030
3030
3030
3030
3030
3030
0030
0030
0030
01F0
01E0
ENDCHAR
STARTCHAR 0453
ENCODING 1107
SWIDTH 360 0
DWIDTH 9 0
BBX 7 18 2 0
BITMAP
1C
18
30
00
00
FE
FE
C0
C0
C0
C0
C0
C0
C0
C0
C0
C0
C0
ENDCHAR
STARTCHAR 0454
ENCODING 1108
SWIDTH 520 0
DWIDTH 13 0
BBX 11 13 1 0
BITMAP
1F00
3FC0
70C0
E060
C000
FE00
FE00
C000
C060
E0E0
70C0
3F80
1F00
ENDCHAR
STARTCHAR 0455
ENCODING 1109
SWIDTH 520 0
DWIDTH 13 0
BBX 11 13 1 0
BITMAP
3F00
7FC0
E0C0
C000
E000
7E00
3FC0
07E0
00E0
C060
60E0
7FC0
1F00
ENDCHAR
STARTCHAR 0456
ENCODING 1110
SWIDTH 240 0
DWIDTH 6 0
BBX 2 18 2 0
BITMAP
C0
C0
00
00
00
C0
C0
C0
C0
C0
C0
C0
C0
C0
C0
C0
C0
C0
ENDCHAR
STARTCHAR 0457
ENCODING 1111
SWIDTH 240 0
DWIDTH 6 0
BBX 6 17 0 0
BITMAP
CC
CC
00
00
30
30
30
30
30
30
30
30
30
30
30
30
30
ENDCHAR
STARTCHAR 0458
ENCODING 1112
SWIDTH 240 0
DWIDTH 6 0
BBX 5 23 -1 -5
BITMAP
18
18
00
00
00
18
18
18
18
18
18
18
18
18
18
18
18
18
18
18
18
F8
F0
ENDCHAR
STARTCHAR 0459
ENCODING 1113
SWIDTH 920 0
DWIDTH 23 0
BBX 22 13 0 0
BITMAP
1FF800
1FF800
181800
181800
181800
181FE0
181FF8
18181C
18180C
18180C
18181C
F81FF8
F01FF0
ENDCHAR
STARTCHAR 045A
ENCODING 1114
SWIDTH 800 0
DWIDTH 20 0
BBX 17 13 2 0
BITMAP
C18000
C18000
C18000
C18000
C18000
FFFE00
FFFF00
C18380
C18180
C18180
C18380
C1FF00
C1FE00
ENDCHAR
STARTCHAR 045B
ENCODING 1115
SWIDTH 560 0
DWIDTH 14 0
BBX 12 18 0 0
BITMAP
3000
FF00
FF00
3000
3000
33C0
3FE0
3C70
3830
3030
3030
3030
3030
3030
3030
3030
3030
3030
ENDCHAR
STARTCHAR 045C
ENCODING 1116
SWIDTH 440 0
DWIDTH 11 0
BBX 9 18 2 0
BITMAP
1C00
1800
3000
0000
0000
C700
C700
CC00
CC00
CC00
D800
F000
D800
CC00
C600
C700
C300
C180
ENDCHAR
STARTCHAR 045E
ENCODING 1118
SWIDTH 480 0
DWIDTH 12 0
BBX 11 23 1 -5
BITMAP
3180
3F80
1F00
0000
0000
C060
C060
60C0
60C0
6180
3180
3180
3300
1B00
1E00
1E00
0E00
0C00
0C00
0C00
1800
7800
7000
ENDCHAR
STARTCHAR 045F
ENCODING 1119
SWIDTH 560 0
DWIDTH 14 0
BBX 10 18 2 -5
BITMAP
C0C0
C0C0
C0C0
C0C0
C0C0
C0C0
C0C0
C0C0
C0C0
C0C0
C0C0
FFC0
FFC0
0C00
0C00
0C00
0C00
0C00
ENDCHAR
STARTCHAR 0490
ENCODING 1168
SWIDTH 480 0
DWIDTH 12 0
BBX 9 23 2 0
BITMAP
0180
0180
0180
0180
0180
FF80
FF80
C000
C000
C000
C000
C000
C000
C000
C000
C000
C000
C000
C000
C000
C000
C000
C000
ENDCHAR
STARTCHAR 0491
ENCODING 1169
SWIDTH 400 0
DWIDTH 10 0
BBX 7 18 2 0
BITMAP
06
06
06
06
06
FE
FE
C0
C0
C0
C0
C0
C0
C0
C0
C0
C0
C0
ENDCHAR
STARTCHAR 0492
ENCODING 1170
SWIDTH 560 0
DWIDTH 14 0
BBX 14 18 0 0
BITMAP
3FFC
3FFC
3000
3000
3000
3000
3000
3000
FF80
FF80
3000
3000
3000
3000
3000
3000
3000
3000
ENDCHAR
STARTCHAR 0493
ENCODING 1171
SWIDTH 360 0
DWIDTH 9 0
BBX 9 13 0 0
BITMAP
3F80
3F80
3000
3000
3000
FE00
FE00
3000
3000
3000
3000
3000
3000
ENDCHAR
STARTCHAR 0496
ENCODING 1174
SWIDTH 920 0
DWIDTH 23 0
BBX 22 23 0 -5
BITMAP
E0301C
F0303C
183070
183060
0C30C0
0C30C0
0E31C0
073380
03FF00
03FF00
073380
0E30C0
1C3060
183060
303030
303038
60301C
E0300C
00000C
00000C
00000C
00000C
00000C
ENDCHAR
STARTCHAR 0497
ENCODING 1175
SWIDTH 680 0
DWIDTH 17 0
BBX 16 17 0 -4
BITMAP
7187
718F
198C
199C
1D98
0FF0
0FF0
1D98
199C
318C
7186
6187
E183
0003
0003
0003
0003
ENDCHAR
STARTCHAR 049A
ENCODING 1178
SWIDTH 600 0
DWIDTH 15 0
BBX 13 23 2 -5
BITMAP
C078
C0F8
C0C0
C180
C180
C380
C300
C600
FC00
FC00
CF00
C380
C180
C0C0
C0E0
C060
C038
C038
0018
0018
0018
0018
0018
ENDCHAR
STARTCHAR 049B
ENCODING 1179
SWIDTH 440 0
DWIDTH 11 0
BBX 9 17 2 -4
BITMAP
C380
C780
C600
CE00
CC00
F800
F800
CC00
C600
C600
C300
C380
C180
0180
0180
0180
0180
ENDCHAR
STARTCHAR 049C
ENCODING 1180
SWIDTH 600 0
DWIDTH 15 0
BBX 13 18 2 0
BITMAP
C078
C0F8
C1C0
C980
CB80
CB00
CE00
CE00
FC00
F800
CC00
CE00
CB00
C980
C8C0
C060
C070
C038
ENDCHAR
STARTCHAR 049D
ENCODING 1181
SWIDTH 440 0
DWIDTH 11 0
BBX 9 13 2 0
BITMAP
C300
D700
DC00
DC00
D800
F800
F800
DC00
DC00
D600
D600
C300
C180
ENDCHAR
STARTCHAR 04A2
ENCODING 1186
SWIDTH 720 0
DWIDTH 18 0
BBX 16 23 2 -5
BITMAP
C00C
C00C
C00C
C00C
C00C
C00C
C00C
C00C
FFFC
FFFC
C00C
C00C
C00C
C00C
C00C
C00C
C00F
C00F
0003
0003
0003
0003
0003
ENDCHAR
STARTCHAR 04A3
ENCODING 1187
SWIDTH 560 0
DWIDTH 14 0
BBX 11 17 2 -4
BITMAP
C0C0
C0C0
C0C0
C0C0
C0C0
FFC0
FFC0
C0C0
C0C0
C0C0
C0C0
C0E0
C0E0
0060
0060
0060
0060
ENDCHAR
STARTCHAR 04AE
ENCODING 1198
SWIDTH 560 0
DWIDTH 14 0
BBX 14 18 0 0
BITMAP
E01C
6018
3038
3030
1860
1CE0
0CC0
07C0
0780
0300
0300
0300
0300
0300
0300
0300
0300
0300
ENDCHAR
STARTCHAR 04AF
ENCODING 1199
SWIDTH 520 0
DWIDTH 13 0
BBX 12 18 0 -5
BITMAP
C030
6060
6060
70E0
30C0
30C0
19C0
1980
1980
0F00
0F00
0F00
0600
0600
0600
0600
0600
0600
ENDCHAR
STARTCHAR 04B0
ENCODING 1200
SWIDTH 560 0
DWIDTH 14 0
BBX 14 18 0 0
BITMAP
C00C
6018
7038
3030
1860
1860
0CC0
0CC0
0780
7FF8
7FF8
0300
0300
0300
0300
0300
0300
0300
ENDCHAR
STARTCHAR 04B1
ENCODING 1201
SWIDTH 520 0
DWIDTH 13 0
BBX 12 18 0 -5
BITMAP
C030
6060
6060
70E0
30C0
30C0
19C0
1980
1980
0F00
0F00
0F00
0600
7FE0
7FE0
0600
0600
0600
ENDCHAR
STARTCHAR 04B2
ENCODING 1202
SWIDTH 680 0
DWIDTH 17 0
BBX 18 23 -1 -5
BITMAP
700380
380700
180600
0C0C00
061800
073800
03F000
01E000
00C000
01E000
03F000
073000
0E1800
0C0C00
180E00
300700
7003C0
E001C0
0000C0
0000C0
0000C0
0000C0
0000C0
ENDCHAR
STARTCHAR 04B3
ENCODING 1203
SWIDTH 520 0
DWIDTH 13 0
BBX 12 17 0 -4
BITMAP
E070
6060
30C0
1980
0F80
0F00
0600
0F00
1D80
18C0
30E0
6070
E030
0030
0030
0030
0030
ENDCHAR
STARTCHAR 04B8
ENCODING 1208
SWIDTH 680 0
DWIDTH 17 0
BBX 13 18 2 0
BITMAP
C018
C018
C018
C018
C218
C218
C218
C218
E218
7278
3FF8
1F98
0218
0218
0218
0018
0018
0018
ENDCHAR
STARTCHAR 04B9
ENCODING 1209
SWIDTH 520 0
DWIDTH 13 0
BBX 10 13 1 0
BITMAP
C0C0
C0C0
C0C0
C8C0
C8C0
E9C0
7FC0
3EC0
08C0
08C0
08C0
00C0
00C0
ENDCHAR
STARTCHAR 04BA
ENCODING 1210
SWIDTH 680 0
DWIDTH 17 0
BBX 14 18 2 0
BITMAP
C000
C000
C000
C000
C000
C000
CFE0
FFF0
F038
C01C
C00C
C00C
C00C
C00C
C00C
C00C
C00C
C00C
ENDCHAR
STARTCHAR 04BB
ENCODING 1211
SWIDTH 560 0
DWIDTH 14 0
BBX 10 18 2 0
BITMAP
C000
C000
C000
C000
C000
CF00
DF80
F1C0
E0C0
C0C0
C0C0
C0C0
C0C0
C0C0
C0C0
C0C0
C0C0
C0C0
ENDCHAR
STARTCHAR 04D8
ENCODING 1240
SWIDTH 760 0
DWIDTH 19 0
BBX 16 18 2 0
BITMAP
07E0
1FF8
3C1C
300E
7006
6006
0003
0003
FFFF
FFFF
C003
C003
E007
6006
700E
381C
1FF8
07E0
ENDCHAR
STARTCHAR 04D9
ENCODING 1241
SWIDTH 560 0
DWIDTH 14 0
BBX 12 13 1 0
BITMAP
1F80
7FC0
60E0
C060
0030
0030
FFF0
FFF0
C030
C060
70E0
3FC0
1F80
ENDCHAR
STARTCHAR 04E8
ENCODING 1256
SWIDTH 760 0
DWIDTH 19 0
BBX 16 18 2 0
BITMAP
07E0
1FF8
3C3C
700E
6006
6006
C003
C003
FFFF
FFFF
C003
C003
6007
6006
700E
383C
1FF8
07E0
ENDCHAR
STARTCHAR 04E9
ENCODING 1257
SWIDTH 560 0
DWIDTH 14 0
BBX 12 13 1 0
BITMAP
1F80
3FC0
70E0
E060
C030
FFF0
FFF0
C030
C030
E060
70E0
3FC0
1F80
ENDCHAR
STARTCHAR 05B0
ENCODING 1456
SWIDTH 320 0
DWIDTH 8 0
BBX 1 3 3 -5
BITMAP
80
00
80
ENDCHAR
STARTCHAR 05B1
ENCODING 1457
SWIDTH 320 0
DWIDTH 8 0
BBX 5 3 1 -5
BITMAP
A8
00
48
ENDCHAR
STARTCHAR 05B2
ENCODING 1458
SWIDTH 320 0
DWIDTH 8 0
BBX 6 3 1 -5
BITMAP
F4
00
04
ENDCHAR
STARTCHAR 05B3
ENCODING 1459
SWIDTH 320 0
DWIDTH 8 0
BBX 5 3 2 -5
BITMAP
E8
40
08
ENDCHAR
STARTCHAR 05B4
ENCODING 1460
SWIDTH 320 0
DWIDTH 8 0
BBX 1 1 3 -5
BITMAP
80
ENDCHAR
STARTCHAR 05B5
ENCODING 1461
SWIDTH 320 0
DWIDTH 8 0
BBX 3 1 2 -5
BITMAP
A0
ENDCHAR
STARTCHAR 05B6
ENCODING 1462
SWIDTH 320 0
DWIDTH 8 0
BBX 3 3 2 -5
BITMAP
A0
00
40
ENDCHAR
STARTCHAR 05B7
ENCODING 1463
SWIDTH 320 0
DWIDTH 8 0
BBX 5 1 2 -4
BITMAP
F8
ENDCHAR
STARTCHAR 05B8
ENCODING 1464
SWIDTH 320 0
DWIDTH 8 0
BBX 5 3 1 -5
BITMAP
F8
20
20
ENDCHAR
STARTCHAR 05B9
ENCODING 1465
SWIDTH 320 0
DWIDTH 8 0
BBX 1 1 3 14
BITMAP
80
ENDCHAR
STARTCHAR 05BA
ENCODING 1466
SWIDTH 320 0
DWIDTH 8 0
BBX 1 1 3 14
BITMAP
80
ENDCHAR
STARTCHAR 05BB
ENCODING 1467
SWIDTH 320 0
DWIDTH 8 0
BBX 5 3 1 -5
BITMAP
80
20
08
ENDCHAR
STARTCHAR 05BC
ENCODING 1468
SWIDTH 320 0
DWIDTH 8 0
BBX 1 1 3 7
BITMAP
80
ENDCHAR
STARTCHAR 05BD
ENCODING 1469
SWIDTH 320 0
DWIDTH 8 0
BBX 1 4 4 -5
BITMAP
80
80
80
80
ENDCHAR
STARTCHAR 05BE
ENCODING 1470
SWIDTH 400 0
DWIDTH 10 0
BBX 6 2 2 11
BITMAP
FC
FC
ENDCHAR
STARTCHAR 05BF
ENCODING 1471
SWIDTH 320 0
DWIDTH 8 0
BBX 5 1 2 16
BITMAP
F8
ENDCHAR
STARTCHAR 05C0
ENCODING 1472
SWIDTH 240 0
DWIDTH 6 0
BBX 2 16 2 0
BITMAP
C0
C0
C0
C0
C0
C0
C0
C0
C0
C0
C0
C0
C0
C0
C0
C0
ENDCHAR
STARTCHAR 05C1
ENCODING 1473
SWIDTH 320 0
DWIDTH 8 0
BBX 1 1 10 15
BITMAP
80
ENDCHAR
STARTCHAR 05C2
ENCODING 1474
SWIDTH 320 0
DWIDTH 8 0
BBX 1 1 -2 15
BITMAP
80
ENDCHAR
STARTCHAR 05C3
ENCODING 1475
SWIDTH 280 0
DWIDTH 7 0
BBX 2 13 2 0
BITMAP
C0
C0
00
00
00
00
00
00
00
00
00
C0
C0
ENDCHAR
STARTCHAR 05D0
ENCODING 1488
SWIDTH 560 0
DWIDTH 14 0
BBX 13 13 1 0
BITMAP
E030
7030
3030
1870
1C60
3EE0
77C0
6380
6180
C0C0
C060
C070
C038
ENDCHAR
STARTCHAR 05D1
ENCODING 1489
SWIDTH 560 0
DWIDTH 14 0
BBX 12 13 1 0
BITMAP
FE00
FF00
0380
01C0
00C0
00C0
00C0
00C0
00C0
00C0
00C0
FFF0
FFF0
ENDCHAR
STARTCHAR 05D2
ENCODING 1490
SWIDTH 400 0
DWIDTH 10 0
BBX 9 13 0 0
BITMAP
7C00
7E00
0700
0300
0300
0300
0300
0F00
3F00
3300
6380
E180
C180
ENDCHAR
STARTCHAR 05D3
ENCODING 1491
SWIDTH 520 0
DWIDTH 13 0
BBX 11 13 1 0
BITMAP
FFE0
FFE0
0180
0180
0180
0180
0180
0180
0180
0180
0180
0180
0180
ENDCHAR
STARTCHAR 05D4
ENCODING 1492
SWIDTH 600 0
DWIDTH 15 0
BBX 11 13 2 0
BITMAP
FF00
FFC0
01C0
00E0
0060
0060
C060
C060
C060
C060
C060
C060
C060
ENDCHAR
STARTCHAR 05D5
ENCODING 1493
SWIDTH 240 0
DWIDTH 6 0
BBX 2 13 2 0
BITMAP
C0
C0
C0
C0
C0
C0
C0
C0
C0
C0
C0
C0
C0
ENDCHAR
STARTCHAR 05D6
ENCODING 1494
SWIDTH 400 0
DWIDTH 10 0
BBX 8 13 1 0
BITMAP
FF
FF
1C
38
30
30
30
30
30
30
30
30
30
ENDCHAR
STARTCHAR 05D7
ENCODING 1495
SWIDTH 600 0
DWIDTH 15 0
BBX 11 13 2 0
BITMAP
FF00
FFC0
C1C0
C0E0
C060
C060
C060
C060
C060
C060
C060
C060
C060
ENDCHAR
STARTCHAR 05D8
ENCODING 1496
SWIDTH 600 0
DWIDTH 15 0
BBX 11 13 2 0
BITMAP
C780
CFC0
C8E0
C060
C060
C060
C060
C060
C060
E0E0
71C0
3F80
1F00
ENDCHAR
STARTCHAR 05D9
ENCODING 1497
SWIDTH 240 0
DWIDTH 6 0
BBX 2 7 2 6
BITMAP
C0
C0
C0
C0
C0
C0
C0
ENDCHAR
STARTCHAR 05DA
ENCODING 1498
SWIDTH 520 0
DWIDTH 13 0
BBX 11 18 0 -5
BITMAP
FE00
FF80
01C0
00E0
0060
0060
0060
0060
0060
0060
0060
0060
0060
0060
0060
0060
0060
0060
ENDCHAR
STARTCHAR 05DB
ENCODING 1499
SWIDTH 480 0
DWIDTH 12 0
BBX 10 13 1 0
BITMAP
FC00
FF00
0780
0180
00C0
00C0
00C0
00C0
00C0
0180
0780
FF00
FC00
ENDCHAR
STARTCHAR 05DC
ENCODING 1500
SWIDTH 480 0
DWIDTH 12 0
BBX 10 18 1 0
BITMAP
C000
C000
C000
C000
C000
FFC0
FFC0
00C0
00C0
00C0
00C0
0180
0380
0700
0600
0600
0600
0600
ENDCHAR
STARTCHAR 05DD
ENCODING 1501
SWIDTH 600 0
DWIDTH 15 0
BBX 11 13 2 0
BITMAP
FF00
FFC0
C1C0
C0E0
C060
C060
C060
C060
C060
C060
C060
FFE0
FFE0
ENDCHAR
STARTCHAR 05DE
ENCODING 1502
SWIDTH 600 0
DWIDTH 15 0
BBX 12 13 1 0
BITMAP
C780
CFE0
5C60
7830
7030
3030
6030
6030
6030
6030
6030
C7F0
C7F0
ENDCHAR
STARTCHAR 05DF
ENCODING 1503
SWIDTH 240 0
DWIDTH 6 0
BBX 2 18 2 -5
BITMAP
C0
C0
C0
C0
C0
C0
C0
C0
C0
C0
C0
C0
C0
C0
C0
C0
C0
C0
ENDCHAR
STARTCHAR 05E0
ENCODING 1504
SWIDTH 360 0
DWIDTH 9 0
BBX 6 13 1 0
BITMAP
F0
F8
1C
0C
0C
0C
0C
0C
0C
0C
0C
FC
FC
ENDCHAR
STARTCHAR 05E1
ENCODING 1505
SWIDTH 560 0
DWIDTH 14 0
BBX 12 13 1 0
BITMAP
1F00
3FC0
70E0
6060
C030
C030
C030
C030
C030
6060
70E0
3FC0
1F80
ENDCHAR
STARTCHAR 05E2
ENCODING 1506
SWIDTH 520 0
DWIDTH 13 0
BBX 11 14 0 -1
BITMAP
6060
6060
3060
3060
3060
3060
3860
18E0
18C0
19C0
1B80
3F00
FC00
E000
ENDCHAR
STARTCHAR 05E3
ENCODING 1507
SWIDTH 560 0
DWIDTH 14 0
BBX 11 18 1 -5
BITMAP
7E00
FF80
C1C0
C0E0
C060
C060
C060
F860
7860
0060
0060
0060
0060
0060
0060
0060
0060
0060
ENDCHAR
STARTCHAR 05E4
ENCODING 1508
SWIDTH 560 0
DWIDTH 14 0
BBX 12 13 1 0
BITMAP
7F00
FFC0
C1E0
C060
C030
C030
F830
7830
0030
0060
41E0
FFC0
7F00
ENDCHAR
STARTCHAR 05E5
ENCODING 1509
SWIDTH 480 0
DWIDTH 12 0
BBX 10 18 1 -5
BITMAP
E0C0
60C0
70C0
30C0
3980
1B80
1F00
0E00
0C00
0C00
0C00
0C00
0C00
0C00
0C00
0C00
0C00
0C00
ENDCHAR
STARTCHAR 05E6
ENCODING 1510
SWIDTH 480 0
DWIDTH 12 0
BBX 10 13 1 0
BITMAP
C0C0
60C0
70C0
30C0
3980
1B80
0E00
0C00
0600
0300
0300
FF80
FF80
ENDCHAR
STARTCHAR 05E7
ENCODING 1511
SWIDTH 560 0
DWIDTH 14 0
BBX 11 18 2 -5
BITMAP
FFE0
FFE0
0060
0060
0060
0060
C0C0
C1C0
C380
C300
C300
C300
C300
C000
C000
C000
C000
C000
ENDCHAR
STARTCHAR 05E8
ENCODING 1512
SWIDTH 520 0
DWIDTH 13 0
BBX 10 13 1 0
BITMAP
FE00
FF00
0380
01C0
00C0
00C0
00C0
00C0
00C0
00C0
00C0
00C0
00C0
ENDCHAR
STARTCHAR 05E9
ENCODING 1513
SWIDTH 680 0
DWIDTH 17 0
BBX 15 13 1 0
BITMAP
C306
C306
C306
C306
C706
CE0C
FE0C
780C
600C
6018
3838
1FF0
0FC0
ENDCHAR
STARTCHAR 05EA
ENCODING 1514
SWIDTH 640 0
DWIDTH 16 0
BBX 13 13 1 0
BITMAP
FFC0
FFF0
1870
1838
1818
1818
1818
1818
1818
1818
1818
F818
F018
ENDCHAR
STARTCHAR 05F0
ENCODING 1520
SWIDTH 480 0
DWIDTH 12 0
BBX 8 13 2 0
BITMAP
C3
C3
C3
C3
C3
C3
C3
C3
C3
C3
C3
C3
C3
ENDCHAR
STARTCHAR 05F1
ENCODING 1521
SWIDTH 480 0
DWIDTH 12 0
BBX 8 13 2 0
BITMAP
C3
C3
C3
C3
C3
C3
C3
03
03
03
03
03
03
ENDCHAR
STARTCHAR 05F2
ENCODING 1522
SWIDTH 480 0
DWIDTH 12 0
BBX 8 7 2 6
BITMAP
C3
C3
C3
C3
C3
C3
C3
ENDCHAR
STARTCHAR 05F3
ENCODING 1523
SWIDTH 240 0
DWIDTH 6 0
BBX 3 5 1 8
BITMAP
60
60
E0
C0
C0
ENDCHAR
STARTCHAR 05F4
ENCODING 1524
SWIDTH 400 0
DWIDTH 10 0
BBX 7 5 1 8
BITMAP
66
66
EE
CC
CC
ENDCHAR
STARTCHAR 060C
ENCODING 1548
SWIDTH 320 0
DWIDTH 8 0
BBX 4 8 2 3
BITMAP
20
40
80
80
E0
F0
F0
60
ENDCHAR
STARTCHAR 061B
ENCODING 1563
SWIDTH 320 0
DWIDTH 8 0
BBX 4 12 2 3
BITMAP
20
40
80
80
E0
F0
F0
60
00
70
70
70
ENDCHAR
STARTCHAR 061F
ENCODING 1567
SWIDTH 360 0
DWIDTH 9 0
BBX 7 15 1 3
BITMAP
3C
46
CE
CE
E0
E0
70
70
30
10
10
00
38
38
38
ENDCHAR
STARTCHAR 0621
ENCODING 1569
SWIDTH 400 0
DWIDTH 10 0
BBX 8 8 1 3
BITMAP
18
3C
48
C0
E3
FE
3C
30
ENDCHAR
STARTCHAR 0622
ENCODING 1570
SWIDTH 200 0
DWIDTH 5 0
BBX 5 18 1 3
BITMAP
C8
B0
00
20
20
20
20
20
20
20
20
20
20
20
20
20
20
20
ENDCHAR
STARTCHAR 0623
ENCODING 1571
SWIDTH 200 0
DWIDTH 5 0
BBX 3 19 2 3
BITMAP
60
80
60
80
00
40
40
40
40
40
40
40
40
40
40
40
40
40
40
ENDCHAR
STARTCHAR 0624
ENCODING 1572
SWIDTH 440 0
DWIDTH 11 0
BBX 10 18 1 -2
BITMAP
0600
0800
0600
0800
0000
0000
0180
03C0
02C0
0240
03C0
01C0
0040
00C0
0180
0380
8700
7E00
ENDCHAR
STARTCHAR 0625
ENCODING 1573
SWIDTH 200 0
DWIDTH 5 0
BBX 3 21 1 -3
BITMAP
20
20
20
20
20
20
20
20
20
20
20
20
20
20
20
00
00
60
80
60
80
ENDCHAR
STARTCHAR 0626
ENCODING 1574
SWIDTH 640 0
DWIDTH 16 0
BBX 15 14 1 -1
BITMAP
6000
800C
603E
8022
0040
2080
4080
40FC
80FC
8004
8018
C0F8
FFE0
3F80
ENDCHAR
STARTCHAR 0627
ENCODING 1575
SWIDTH 200 0
DWIDTH 5 0
BBX 1 15 3 3
BITMAP
80
80
80
80
80
80
80
80
80
80
80
80
80
80
80
ENDCHAR
STARTCHAR 0628
ENCODING 1576
SWIDTH 720 0
DWIDTH 18 0
BBX 17 13 1 -1
BITMAP
400100
800100
800180
800080
800080
E00080
7FFF80
3FFF80
000000
000000
008000
01C000
008000
ENDCHAR
STARTCHAR 0629
ENCODING 1577
SWIDTH 280 0
DWIDTH 7 0
BBX 7 13 0 4
BITMAP
08
5C
E8
40
00
20
38
3C
46
42
46
7C
38
ENDCHAR
STARTCHAR 062A
ENCODING 1578
SWIDTH 720 0
DWIDTH 18 0
BBX 17 12 1 4
BITMAP
002000
017000
03A000
010000
400100
800100
800180
800080
800080
E00080
7FFF80
3FFF80
ENDCHAR
STARTCHAR 062B
ENCODING 1579
SWIDTH 720 0
DWIDTH 18 0
BBX 17 14 1 4
BITMAP
010000
038000
012000
017000
03A000
010000
400100
800100
800180
800080
800080
E00080
7FFF80
3FFF80
ENDCHAR
STARTCHAR 062C
ENCODING 1580
SWIDTH 560 0
DWIDTH 14 0
BBX 11 15 1 -5
BITMAP
7FE0
FFE0
0F00
1800
2000
4000
8200
8700
8200
8000
C000
E000
7800
3FE0
0FC0
ENDCHAR
STARTCHAR 062D
ENCODING 1581
SWIDTH 560 0
DWIDTH 14 0
BBX 11 15 1 -5
BITMAP
7FE0
FFE0
0F00
1800
2000
4000
8000
8000
8000
8000
C000
E000
7800
3FE0
0FC0
ENDCHAR
STARTCHAR 062E
ENCODING 1582
SWIDTH 560 0
DWIDTH 14 0
BBX 11 20 1 -5
BITMAP
0400
0E00
0400
0000
0000
7FE0
FFE0
0F00
1800
2000
4000
8000
8000
8000
8000
C000
E000
7800
3FE0
0FC0
ENDCHAR
STARTCHAR 062F
ENCODING 1583
SWIDTH 320 0
DWIDTH 8 0
BBX 7 10 1 4
BITMAP
10
18
0C
04
06
02
02
82
FE
FE
ENDCHAR
STARTCHAR 0630
ENCODING 1584
SWIDTH 320 0
DWIDTH 8 0
BBX 7 15 1 4
BITMAP
20
70
20
00
00
10
18
0C
04
06
02
02
82
FE
FE
ENDCHAR
STARTCHAR 0631
ENCODING 1585
SWIDTH 480 0
DWIDTH 12 0
BBX 11 13 1 -2
BITMAP
0080
00C0
00E0
0060
0020
0020
0020
0020
0060
00C0
0180
8700
7E00
ENDCHAR
STARTCHAR 0632
ENCODING 1586
SWIDTH 480 0
DWIDTH 12 0
BBX 11 18 1 -2
BITMAP
0100
0380
0100
0000
0000
0080
00C0
00E0
0060
0020
0020
0020
0020
0060
00C0
0180
8700
7E00
ENDCHAR
STARTCHAR 0633
ENCODING 1587
SWIDTH 840 0
DWIDTH 21 0
BBX 20 13 1 -2
BITMAP
002020
0020B0
0030B0
401090
401090
801FF0
801F70
801000
801000
802000
C0E000
7FC000
3F0000
ENDCHAR
STARTCHAR 0634
ENCODING 1588
SWIDTH 840 0
DWIDTH 21 0
BBX 20 20 1 -2
BITMAP
000200
000700
000240
0002E0
000740
000200
000000
002020
0020B0
0030B0
401090
401090
801FF0
801F70
801000
801000
802000
C0E000
7FC000
3F0000
ENDCHAR
STARTCHAR 0635
ENCODING 1589
SWIDTH 1080 0
DWIDTH 27 0
BBX 26 13 1 -2
BITMAP
00200780
00201FC0
003031C0
4010C0C0
401180C0
801FFFC0
801FFFC0
80100000
80100000
80200000
C0E00000
7FC00000
3F000000
ENDCHAR
STARTCHAR 0636
ENCODING 1590
SWIDTH 1080 0
DWIDTH 27 0
BBX 26 18 1 -2
BITMAP
00008000
0001C000
00008000
00000000
00000000
00200780
00201FC0
003031C0
4010C0C0
401180C0
801FFFC0
801FFFC0
80100000
80100000
80200000
C0E00000
7FC00000
3F000000
ENDCHAR
STARTCHAR 0637
ENCODING 1591
SWIDTH 600 0
DWIDTH 15 0
BBX 16 15 -1 4
BITMAP
0800
0E00
0600
0400
0400
0200
0200
0200
0200
023E
02FF
0383
0C03
FFFF
FFFF
ENDCHAR
STARTCHAR 0638
ENCODING 1592
SWIDTH 600 0
DWIDTH 15 0
BBX 16 15 -1 4
BITMAP
0800
0E00
0600
0410
0438
0210
0200
0200
0200
023E
02FF
0383
0C03
FFFF
FFFF
ENDCHAR
STARTCHAR 0639
ENCODING 1593
SWIDTH 560 0
DWIDTH 14 0
BBX 11 19 1 -5
BITMAP
3800
7E00
E000
8000
80C0
E3C0
7F00
3C00
3000
6000
4000
8000
8000
8000
8000
C000
7000
3FE0
0FC0
ENDCHAR
STARTCHAR 063A
ENCODING 1594
SWIDTH 560 0
DWIDTH 14 0
BBX 11 24 1 -5
BITMAP
1000
3800
1000
0000
0000
3800
7E00
E000
8000
80C0
E3C0
7F00
3C00
3000
6000
4000
8000
8000
8000
8000
C000
7000
3FE0
0FC0
ENDCHAR
STARTCHAR 0640
ENCODING 1600
SWIDTH 200 0
DWIDTH 5 0
BBX 6 2 -1 4
BITMAP
FC
FC
ENDCHAR
STARTCHAR 0641
ENCODING 1601
SWIDTH 800 0
DWIDTH 20 0
BBX 20 13 0 4
BITMAP
000080
0001C0
000080
000000
000000
400060
8000F0
800190
800190
C001F0
F00070
7FFFF0
1FFFF0
ENDCHAR
STARTCHAR 0642
ENCODING 1602
SWIDTH 600 0
DWIDTH 15 0
BBX 14 19 1 -2
BITMAP
0020
0170
03A0
0100
0000
0000
0030
0078
0098
408C
40FC
807C
8004
8004
8004
800C
E038
7FF0
1FC0
ENDCHAR
STARTCHAR 0643
ENCODING 1603
SWIDTH 600 0
DWIDTH 15 0
BBX 14 16 1 4
BITMAP
0010
0018
001C
000C
0088
0108
0208
03C8
0048
4044
80C4
8F84
8004
C004
FFFC
3FFC
ENDCHAR
STARTCHAR 0644
ENCODING 1604
SWIDTH 520 0
DWIDTH 13 0
BBX 12 20 1 0
BITMAP
0040
0060
0070
0030
0020
0020
0020
0020
0020
2010
4010
4010
8010
8010
8010
8010
C030
E0E0
7FE0
3F80
ENDCHAR
STARTCHAR 0645
ENCODING 1605
SWIDTH 320 0
DWIDTH 8 0
BBX 8 15 0 -5
BITMAP
1C
3E
26
03
1F
7F
E0
80
80
80
80
40
40
40
40
ENDCHAR
STARTCHAR 0646
ENCODING 1606
SWIDTH 520 0
DWIDTH 13 0
BBX 12 17 1 -2
BITMAP
0200
0700
0200
0000
0020
0020
0030
4010
4010
8010
8010
8010
8010
8030
C0E0
7FC0
3F80
ENDCHAR
STARTCHAR 0647
ENCODING 1607
SWIDTH 280 0
DWIDTH 7 0
BBX 5 8 1 4
BITMAP
40
70
78
98
88
98
F8
F0
ENDCHAR
STARTCHAR 0648
ENCODING 1608
SWIDTH 440 0
DWIDTH 11 0
BBX 10 12 1 -2
BITMAP
0180
03C0
02C0
0240
03C0
01C0
0040
00C0
0180
0380
8700
7E00
ENDCHAR
STARTCHAR 0649
ENCODING 1609
SWIDTH 640 0
DWIDTH 16 0
BBX 15 13 1 -1
BITMAP
000C
003E
0022
0040
2080
4080
40FC
80FC
8004
8018
C0F8
FFE0
3F80
ENDCHAR
STARTCHAR 064A
ENCODING 1610
SWIDTH 640 0
DWIDTH 16 0
BBX 15 17 1 -5
BITMAP
000C
003E
0022
0040
2080
4080
40FC
80FC
8004
8018
C0F8
FFE0
3F80
0080
05C0
0E80
0400
ENDCHAR
STARTCHAR 064B
ENCODING 1611
SWIDTH 200 0
DWIDTH 5 0
BBX 4 4 1 15
BITMAP
30
C0
30
C0
ENDCHAR
STARTCHAR 064C
ENCODING 1612
SWIDTH 240 0
DWIDTH 6 0
BBX 6 5 0 15
BITMAP
0C
14
DC
54
60
ENDCHAR
STARTCHAR 064D
ENCODING 1613
SWIDTH 200 0
DWIDTH 5 0
BBX 4 4 1 -3
BITMAP
30
C0
30
C0
ENDCHAR
STARTCHAR 064E
ENCODING 1614
SWIDTH 200 0
DWIDTH 5 0
BBX 4 2 1 15
BITMAP
30
C0
ENDCHAR
STARTCHAR 064F
ENCODING 1615
SWIDTH 200 0
DWIDTH 5 0
BBX 4 5 1 15
BITMAP
30
50
70
30
C0
ENDCHAR
STARTCHAR 0650
ENCODING 1616
SWIDTH 200 0
DWIDTH 5 0
BBX 4 2 1 -1
BITMAP
30
C0
ENDCHAR
STARTCHAR 0651
ENCODING 1617
SWIDTH 200 0
DWIDTH 5 0
BBX 7 3 0 15
BITMAP
12
BE
E0
ENDCHAR
STARTCHAR 0652
ENCODING 1618
SWIDTH 160 0
DWIDTH 4 0
BBX 4 4 0 15
BITMAP
60
B0
90
E0
ENDCHAR
STARTCHAR 0653
ENCODING 1619
SWIDTH 200 0
DWIDTH 5 0
BBX 5 2 0 17
BITMAP
C0
38
ENDCHAR
STARTCHAR 0654
ENCODING 1620
SWIDTH 200 0
DWIDTH 5 0
BBX 3 4 1 18
BITMAP
60
80
60
80
ENDCHAR
STARTCHAR 0655
ENCODING 1621
SWIDTH 200 0
DWIDTH 5 0
BBX 3 4 1 -2
BITMAP
60
80
60
80
ENDCHAR
STARTCHAR 0660
ENCODING 1632
SWIDTH 520 0
DWIDTH 13 0
BBX 4 6 5 5
BITMAP
40
60
F0
F0
60
20
ENDCHAR
STARTCHAR 0661
ENCODING 1633
SWIDTH 520 0
DWIDTH 13 0
BBX 4 14 4 4
BITMAP
80
C0
E0
E0
70
30
30
30
10
10
10
10
10
10
ENDCHAR
STARTCHAR 0662
ENCODING 1634
SWIDTH 520 0
DWIDTH 13 0
BBX 7 14 3 4
BITMAP
82
82
C6
7E
7C
30
30
18
18
18
18
08
08
08
ENDCHAR
STARTCHAR 0663
ENCODING 1635
SWIDTH 520 0
DWIDTH 13 0
BBX 10 14 2 4
BITMAP
8440
CCC0
FFC0
FB80
6000
7000
3000
3000
3000
1000
1000
1000
1000
1000
ENDCHAR
STARTCHAR 0664
ENCODING 1636
SWIDTH 520 0
DWIDTH 13 0
BBX 6 14 4 4
BITMAP
08
18
30
40
E0
F0
F8
30
20
40
40
E0
FC
38
ENDCHAR
STARTCHAR 0665
ENCODING 1637
SWIDTH 520 0
DWIDTH 13 0
BBX 9 9 3 6
BITMAP
1C00
3F00
4700
8180
8080
8080
C100
FF00
7C00
ENDCHAR
STARTCHAR 0666
ENCODING 1638
SWIDTH 520 0
DWIDTH 13 0
BBX 8 14 2 4
BITMAP
80
FC
FC
FC
04
04
04
04
06
06
07
03
03
01
ENDCHAR
STARTCHAR 0667
ENCODING 1639
SWIDTH 520 0
DWIDTH 13 0
BBX 11 14 1 4
BITMAP
8020
C040
C040
E0C0
60C0
3180
3100
1900
0A00
0A00
0C00
0400
0400
0400
ENDCHAR
STARTCHAR 0668
ENCODING 1640
SWIDTH 520 0
DWIDTH 13 0
BBX 11 14 1 4
BITMAP
0400
0400
0400
0C00
0E00
0A00
1300
1380
3180
61C0
E0E0
C0E0
C060
8020
ENDCHAR
STARTCHAR 0669
ENCODING 1641
SWIDTH 520 0
DWIDTH 13 0
BBX 7 14 3 4
BITMAP
38
7C
4C
84
84
FC
7C
04
04
04
06
06
06
02
ENDCHAR
STARTCHAR 066A
ENCODING 1642
SWIDTH 520 0
DWIDTH 13 0
BBX 9 17 2 2
BITMAP
E080
E100
E100
0200
0200
0400
0400
0800
0800
0800
1000
1000
2000
2000
4380
4380
8380
ENDCHAR
STARTCHAR 066B
ENCODING 1643
SWIDTH 320 0
DWIDTH 8 0
BBX 3 6 2 0
BITMAP
E0
E0
E0
60
C0
80
ENDCHAR
STARTCHAR 066C
ENCODING 1644
SWIDTH 320 0
DWIDTH 8 0
BBX 4 8 2 3
BITMAP
20
40
80
80
E0
F0
F0
60
ENDCHAR
STARTCHAR 066D
ENCODING 1645
SWIDTH 520 0
DWIDTH 13 0
BBX 9 9 2 9
BITMAP
0800
6B00
6B00
1C00
F780
1C00
6B00
6B00
0800
ENDCHAR
STARTCHAR 066E
ENCODING 1646
SWIDTH 720 0
DWIDTH 18 0
BBX 17 8 1 4
BITMAP
400100
800100
800180
800080
800080
E00080
7FFF80
3FFF80
ENDCHAR
STARTCHAR 066F
ENCODING 1647
SWIDTH 600 0
DWIDTH 15 0
BBX 14 13 1 -2
BITMAP
0030
0078
0098
408C
40FC
807C
8004
8004
8004
800C
E038
7FF0
1FC0
ENDCHAR
STARTCHAR 0670
ENCODING 1648
SWIDTH 0 0
DWIDTH 0 0
BBX 2 6 -1 13
BITMAP
80
C0
40
40
40
40
ENDCHAR
STARTCHAR 0671
ENCODING 1649
SWIDTH 200 0
DWIDTH 5 0
BBX 5 19 0 3
BITMAP
38
68
F0
80
10
10
10
10
10
10
10
10
10
10
10
10
10
10
10
ENDCHAR
STARTCHAR 0672
ENCODING 1650
SWIDTH 200 0
DWIDTH 5 0
BBX 4 19 1 3
BITMAP
30
40
30
C0
00
20
20
20
20
20
20
20
20
20
20
20
20
20
20
ENDCHAR
STARTCHAR 0673
ENCODING 1651
SWIDTH 200 0
DWIDTH 5 0
BBX 4 21 1 -3
BITMAP
20
20
20
20
20
20
20
20
20
20
20
20
20
20
20
00
00
30
40
30
C0
ENDCHAR
STARTCHAR 0674
ENCODING 1652
SWIDTH 200 0
DWIDTH 5 0
BBX 3 4 1 18
BITMAP
60
80
60
80
ENDCHAR
STARTCHAR 0675
ENCODING 1653
SWIDTH 200 0
DWIDTH 5 0
BBX 5 15 2 3
BITMAP
98
A0
98
A0
80
80
80
80
80
80
80
80
80
80
80
ENDCHAR
STARTCHAR 0676
ENCODING 1654
SWIDTH 440 0
DWIDTH 11 0
BBX 11 17 1 -2
BITMAP
0060
0080
0060
0080
0000
0180
03C0
02C0
0240
03C0
01C0
0040
00C0
0180
0380
8700
7E00
ENDCHAR
STARTCHAR 0677
ENCODING 1655
SWIDTH 440 0
DWIDTH 11 0
BBX 11 17 1 -2
BITMAP
0660
0A80
0E60
0680
1800
0180
03C0
02C0
0240
03C0
01C0
0040
00C0
0180
0380
8700
7E00
ENDCHAR
STARTCHAR 0678
ENCODING 1656
SWIDTH 640 0
DWIDTH 16 0
BBX 16 18 1 -1
BITMAP
0003
0004
0003
0004
0000
000C
003E
0022
0040
2080
4080
40FC
80FC
8004
8018
C0F8
FFE0
3F80
ENDCHAR
STARTCHAR 0679
ENCODING 1657
SWIDTH 720 0
DWIDTH 18 0
BBX 17 17 1 4
BITMAP
010000
018000
010000
008000
008000
00B800
00C800
07F800
000000
400100
800100
800180
800080
800080
E00080
7FFF80
3FFF80
ENDCHAR
STARTCHAR 067A
ENCODING 1658
SWIDTH 720 0
DWIDTH 18 0
BBX 17 15 1 4
BITMAP
010000
038000
010000
008000
01C000
008000
000000
400100
800100
800180
800080
800080
E00080
7FFF80
3FFF80
ENDCHAR
STARTCHAR 067B
ENCODING 1659
SWIDTH 720 0
DWIDTH 18 0
BBX 17 16 1 -4
BITMAP
400100
800100
800180
800080
800080
E00080
7FFF80
3FFF80
000000
000000
008000
01C000
008000
004000
00E000
004000
ENDCHAR
STARTCHAR 067C
ENCODING 1660
SWIDTH 720 0
DWIDTH 18 0
BBX 17 15 1 1
BITMAP
002000
017000
03A000
010000
400100
800100
800180
800080
800080
E00080
7FFF80
3FFF80
016000
012000
01C000
ENDCHAR
STARTCHAR 067D
ENCODING 1661
SWIDTH 720 0
DWIDTH 18 0
BBX 17 15 1 4
BITMAP
004000
02E000
074000
028000
01C000
008000
000000
400100
800100
800180
800080
800080
E00080
7FFF80
3FFF80
ENDCHAR
STARTCHAR 067E
ENCODING 1662
SWIDTH 720 0
DWIDTH 18 0
BBX 17 16 1 -4
BITMAP
400100
800100
800180
800080
800080
E00080
7FFF80
3FFF80
000000
000000
002000
017000
03A000
014000
00E000
004000
ENDCHAR
STARTCHAR 067F
ENCODING 1663
SWIDTH 720 0
DWIDTH 18 0
BBX 17 15 1 4
BITMAP
004000
02E000
074000
022000
017000
03A000
010000
400100
800100
800180
800080
800080
E00080
7FFF80
3FFF80
ENDCHAR
STARTCHAR 0680
ENCODING 1664
SWIDTH 720 0
DWIDTH 18 0
BBX 17 17 1 -5
BITMAP
400100
800100
800180
800080
800080
E00080
7FFF80
3FFF80
000000
000000
004000
02E000
074000
022000
017000
03A000
010000
ENDCHAR
STARTCHAR 0681
ENCODING 1665
SWIDTH 560 0
DWIDTH 14 0
BBX 11 22 1 -5
BITMAP
0600
0800
0600
0800
0000
0000
0000
7FE0
FFE0
0F00
1800
2000
4000
8000
8000
8000
8000
C000
E000
7800
3FE0
0FC0
ENDCHAR
STARTCHAR 0682
ENCODING 1666
SWIDTH 560 0
DWIDTH 14 0
BBX 11 24 1 -5
BITMAP
0800
1C00
0800
0400
0E00
0400
0000
0000
0000
7FE0
FFE0
0F00
1800
2000
4000
8000
8000
8000
8000
C000
E000
7800
3FE0
0FC0
ENDCHAR
STARTCHAR 0683
ENCODING 1667
SWIDTH 560 0
DWIDTH 14 0
BBX 11 15 1 -5
BITMAP
7FE0
FFE0
0F00
1800
2000
4000
8040
82E0
8740
8200
C000
E000
7800
3FE0
0FC0
ENDCHAR
STARTCHAR 0684
ENCODING 1668
SWIDTH 560 0
DWIDTH 14 0
BBX 11 15 1 -5
BITMAP
7FE0
FFE0
0F00
1800
2000
4400
8E00
8400
8200
8700
C200
E000
7800
3FE0
0FC0
ENDCHAR
STARTCHAR 0685
ENCODING 1669
SWIDTH 560 0
DWIDTH 14 0
BBX 11 24 1 -5
BITMAP
0800
1C00
0900
0B80
1D00
0800
0000
0000
0000
7FE0
FFE0
0F00
1800
2000
4000
8000
8000
8000
8000
C000
E000
7800
3FE0
0FC0
ENDCHAR
STARTCHAR 0686
ENCODING 1670
SWIDTH 560 0
DWIDTH 14 0
BBX 11 15 1 -5
BITMAP
7FE0
FFE0
0F00
1800
2000
4080
85C0
8E80
8500
8380
C100
E000
7800
3FE0
0FC0
ENDCHAR
STARTCHAR 0687
ENCODING 1671
SWIDTH 560 0
DWIDTH 14 0
BBX 11 15 1 -5
BITMAP
7FE0
FFE0
0F00
1800
2000
4100
8B80
9D00
8880
85C0
CE80
E400
7800
3FE0
0FC0
ENDCHAR
STARTCHAR 0688
ENCODING 1672
SWIDTH 320 0
DWIDTH 8 0
BBX 8 19 0 4
BITMAP
20
30
20
10
10
17
19
FF
00
08
0C
06
02
03
01
01
41
7F
7F
ENDCHAR
STARTCHAR 0689
ENCODING 1673
SWIDTH 320 0
DWIDTH 8 0
BBX 7 13 1 1
BITMAP
10
18
0C
04
06
02
02
82
FE
FE
2C
24
38
ENDCHAR
STARTCHAR 068A
ENCODING 1674
SWIDTH 320 0
DWIDTH 8 0
BBX 7 15 1 -1
BITMAP
10
18
0C
04
06
02
02
82
FE
FE
00
00
10
38
10
ENDCHAR
STARTCHAR 068B
ENCODING 1675
SWIDTH 320 0
DWIDTH 8 0
BBX 8 24 0 -1
BITMAP
20
30
20
10
10
17
19
FF
00
08
0C
06
02
03
01
01
41
7F
7F
00
00
08
1C
08
ENDCHAR
STARTCHAR 068C
ENCODING 1676
SWIDTH 320 0
DWIDTH 8 0
BBX 7 15 1 4
BITMAP
04
2E
74
20
00
10
18
0C
04
06
02
02
82
FE
FE
ENDCHAR
STARTCHAR 068D
ENCODING 1677
SWIDTH 320 0
DWIDTH 8 0
BBX 7 16 1 -2
BITMAP
10
18
0C
04
06
02
02
82
FE
FE
00
00
04
2E
74
20
ENDCHAR
STARTCHAR 068E
ENCODING 1678
SWIDTH 320 0
DWIDTH 8 0
BBX 7 18 1 4
BITMAP
40
E0
48
5C
E8
40
00
00
10
18
0C
04
06
02
02
82
FE
FE
ENDCHAR
STARTCHAR 068F
ENCODING 1679
SWIDTH 320 0
DWIDTH 8 0
BBX 7 18 1 4
BITMAP
08
5C
E8
50
38
10
00
00
10
18
0C
04
06
02
02
82
FE
FE
ENDCHAR
STARTCHAR 0690
ENCODING 1680
SWIDTH 320 0
DWIDTH 8 0
BBX 8 17 0 4
BITMAP
08
5C
E8
44
2E
74
20
08
0C
06
02
03
01
01
41
7F
7F
ENDCHAR
STARTCHAR 0691
ENCODING 1681
SWIDTH 480 0
DWIDTH 12 0
BBX 11 23 1 -2
BITMAP
0400
0600
0400
0200
0200
02E0
0320
1FE0
0000
0000
0080
00C0
00E0
0060
0020
0020
0020
0020
0060
00C0
0180
8700
7E00
ENDCHAR
STARTCHAR 0692
ENCODING 1682
SWIDTH 480 0
DWIDTH 12 0
BBX 11 18 1 -2
BITMAP
06C0
0280
0100
0000
0000
0080
00C0
00E0
0060
0020
0020
0020
0020
0060
00C0
0180
8700
7E00
ENDCHAR
STARTCHAR 0693
ENCODING 1683
SWIDTH 480 0
DWIDTH 12 0
BBX 11 14 1 -3
BITMAP
0080
00C0
00E0
0060
0020
0020
0020
0020
0060
00C0
01C0
8760
7F20
01C0
ENDCHAR
STARTCHAR 0694
ENCODING 1684
SWIDTH 480 0
DWIDTH 12 0
BBX 12 14 1 -3
BITMAP
0080
00C0
00E0
0060
0020
0020
0020
0020
0060
00C0
0180
8720
7E70
0020
ENDCHAR
STARTCHAR 0695
ENCODING 1685
SWIDTH 480 0
DWIDTH 12 0
BBX 11 16 1 -5
BITMAP
0080
00C0
00E0
0060
0020
0020
0020
0020
0060
00C0
0180
8700
7E00
0360
0140
0080
ENDCHAR
STARTCHAR 0696
ENCODING 1686
SWIDTH 480 0
DWIDTH 12 0
BBX 12 14 1 -3
BITMAP
0080
00C0
00E0
0060
0020
1020
3820
1020
0060
00C0
0180
8720
7E70
0020
ENDCHAR
STARTCHAR 0697
ENCODING 1687
SWIDTH 480 0
DWIDTH 12 0
BBX 11 18 1 -2
BITMAP
0080
05C0
0E80
0400
0000
0080
00C0
00E0
0060
0020
0020
0020
0020
0060
00C0
0180
8700
7E00
ENDCHAR
STARTCHAR 0698
ENCODING 1688
SWIDTH 480 0
DWIDTH 12 0
BBX 11 20 1 -2
BITMAP
0200
0700
0280
05C0
0E80
0400
0000
0080
00C0
00E0
0060
0020
0020
0020
0020
0060
00C0
0180
8700
7E00
ENDCHAR
STARTCHAR 0699
ENCODING 1689
SWIDTH 480 0
DWIDTH 12 0
BBX 11 21 1 -2
BITMAP
0100
0B80
1D00
0880
05C0
0E80
0400
0000
0080
00C0
00E0
0060
0020
0020
0020
0020
0060
00C0
0180
8700
7E00
ENDCHAR
STARTCHAR 069A
ENCODING 1690
SWIDTH 840 0
DWIDTH 21 0
BBX 20 17 1 -2
BITMAP
000100
000380
000100
000000
002020
0020B0
0030B0
401090
401090
801FF0
801F70
801000
801000
802080
C0E1C0
7FC080
3F0000
ENDCHAR
STARTCHAR 069B
ENCODING 1691
SWIDTH 840 0
DWIDTH 21 0
BBX 20 15 1 -4
BITMAP
002020
0020B0
0030B0
401090
401090
801FF0
801F70
801000
801000
802020
C0E170
7FC3A0
3F0140
0000E0
000040
ENDCHAR
STARTCHAR 069C
ENCODING 1692
SWIDTH 840 0
DWIDTH 21 0
BBX 20 22 1 -4
BITMAP
000400
000E00
000480
0005C0
000E80
000400
000000
002020
0020B0
0030B0
401090
401090
801FF0
801F70
801000
801000
802020
C0E170
7FC3A0
3F0140
0000E0
000040
ENDCHAR
STARTCHAR 069D
ENCODING 1693
SWIDTH 1080 0
DWIDTH 27 0
BBX 26 13 1 -2
BITMAP
00200780
00201FC0
003031C0
4010C0C0
401180C0
801FFFC0
801FFFC0
80100000
80100000
80200800
C0E05C00
7FC0E800
3F004000
ENDCHAR
STARTCHAR 069E
ENCODING 1694
SWIDTH 1080 0
DWIDTH 27 0
BBX 26 20 1 -2
BITMAP
00004000
0000E000
00004800
00005C00
0000E800
00004000
00000000
00200780
00201FC0
003031C0
4010C0C0
401180C0
801FFFC0
801FFFC0
80100000
80100000
80200000
C0E00000
7FC00000
3F000000
ENDCHAR
STARTCHAR 069F
ENCODING 1695
SWIDTH 600 0
DWIDTH 15 0
BBX 16 15 -1 4
BITMAP
0800
0E20
0670
0424
042E
0274
0220
0200
0200
023E
02FF
0383
0C03
FFFF
FFFF
ENDCHAR
STARTCHAR 06A0
ENCODING 1696
SWIDTH 560 0
DWIDTH 14 0
BBX 11 27 1 -5
BITMAP
2000
7000
2400
2E00
7400
2000
0000
0000
3800
7E00
E000
8000
80C0
E3C0
7F00
3C00
3000
6000
4000
8000
8000
8000
8000
C000
7000
3FE0
0FC0
ENDCHAR
STARTCHAR 06A1
ENCODING 1697
SWIDTH 800 0
DWIDTH 20 0
BBX 20 8 0 4
BITMAP
400060
8000F0
800190
800190
C001F0
F00070
7FFFF0
1FFFF0
ENDCHAR
STARTCHAR 06A2
ENCODING 1698
SWIDTH 800 0
DWIDTH 20 0
BBX 20 13 0 -1
BITMAP
400060
8000F0
800190
800190
C001F0
F00070
7FFFF0
1FFFF0
000000
000000
000040
0000E0
000040
ENDCHAR
STARTCHAR 06A3
ENCODING 1699
SWIDTH 800 0
DWIDTH 20 0
BBX 20 17 0 -1
BITMAP
000040
0000E0
000040
000000
400060
8000F0
800190
800190
C001F0
F00070
7FFFF0
1FFFF0
000000
000000
002000
007000
002000
ENDCHAR
STARTCHAR 06A4
ENCODING 1700
SWIDTH 800 0
DWIDTH 20 0
BBX 20 16 0 4
BITMAP
000100
000380
000120
000170
0003A0
000100
000000
000000
400060
8000F0
800190
800190
C001F0
F00070
7FFFF0
1FFFF0
ENDCHAR
STARTCHAR 06A5
ENCODING 1701
SWIDTH 800 0
DWIDTH 20 0
BBX 21 16 0 -4
BITMAP
400060
8000F0
800190
800190
C001F0
F00070
7FFFF0
1FFFF0
000000
000000
000010
0000B8
0001D0
0000A0
000070
000020
ENDCHAR
STARTCHAR 06A6
ENCODING 1702
SWIDTH 800 0
DWIDTH 20 0
BBX 21 15 0 4
BITMAP
000020
000170
0003A0
000110
0000B8
0001D0
000080
400060
8000F0
800190
800190
C001F0
F00070
7FFFF0
1FFFF0
ENDCHAR
STARTCHAR 06A7
ENCODING 1703
SWIDTH 600 0
DWIDTH 15 0
BBX 14 18 1 -2
BITMAP
0040
00E0
0040
0000
0000
0030
0078
0098
408C
40FC
807C
8004
8004
8004
800C
E038
7FF0
1FC0
ENDCHAR
STARTCHAR 06A8
ENCODING 1704
SWIDTH 600 0
DWIDTH 15 0
BBX 14 20 1 -2
BITMAP
0100
0380
0120
0170
03A0
0100
0000
0030
0078
0098
408C
40FC
807C
8004
8004
8004
800C
E038
7FF0
1FC0
ENDCHAR
STARTCHAR 06A9
ENCODING 1705
SWIDTH 800 0
DWIDTH 20 0
BBX 20 14 0 4
BITMAP
000020
0001E0
000780
000E00
001800
001C00
001E00
400F00
800180
8000C0
800060
C00030
FFFFF0
3FFFF0
ENDCHAR
STARTCHAR 06AA
ENCODING 1706
SWIDTH 800 0
DWIDTH 20 0
BBX 20 13 0 4
BITMAP
001000
00F000
01E000
070000
040000
0C0000
0FC000
07FE00
803FC0
8001E0
C00030
FFFFF0
3FFFF0
ENDCHAR
STARTCHAR 06AB
ENCODING 1707
SWIDTH 800 0
DWIDTH 20 0
BBX 20 14 0 4
BITMAP
000020
0001E0
0007E0
000F20
0019C0
001C00
001E00
400F00
800180
8000C0
800060
C00030
FFFFF0
3FFFF0
ENDCHAR
STARTCHAR 06AC
ENCODING 1708
SWIDTH 600 0
DWIDTH 15 0
BBX 14 16 1 4
BITMAP
0110
0398
011C
000C
0088
0108
0208
03C8
0048
4044
80C4
8F84
8004
C004
FFFC
3FFC
ENDCHAR
STARTCHAR 06AD
ENCODING 1709
SWIDTH 600 0
DWIDTH 15 0
BBX 14 17 1 4
BITMAP
0400
0E10
0498
05DC
0E8C
0408
0088
0108
0208
03C8
4044
8044
80C4
8F84
C004
FFFC
3FFC
ENDCHAR
STARTCHAR 06AE
ENCODING 1710
SWIDTH 600 0
DWIDTH 15 0
BBX 14 24 1 -4
BITMAP
0010
0018
001C
000C
0088
0108
0208
03C8
0048
4044
80C4
8F84
8004
C004
FFFC
3FFC
0000
0000
0040
02E0
0740
0280
01C0
0080
ENDCHAR
STARTCHAR 06AF
ENCODING 1711
SWIDTH 800 0
DWIDTH 20 0
BBX 20 17 0 4
BITMAP
000020
0001E0
0003C0
000E20
0019E0
000780
000E00
001800
001C00
001E00
400F00
800180
8000C0
800060
C00030
FFFFF0
3FFFF0
ENDCHAR
STARTCHAR 06B0
ENCODING 1712
SWIDTH 800 0
DWIDTH 20 0
BBX 20 17 0 4
BITMAP
000020
0001E0
0003C0
000E20
0019E0
0007E0
000F20
0019C0
001C00
001E00
400F00
800180
8000C0
800060
C00030
FFFFF0
3FFFF0
ENDCHAR
STARTCHAR 06B1
ENCODING 1713
SWIDTH 800 0
DWIDTH 20 0
BBX 20 18 0 4
BITMAP
000600
001E20
0019E0
0003C0
000E20
0019E0
000780
000E00
001800
001C00
001E00
400F00
800180
8000C0
800060
C00030
FFFFF0
3FFFF0
ENDCHAR
STARTCHAR 06B2
ENCODING 1714
SWIDTH 800 0
DWIDTH 20 0
BBX 20 23 0 -2
BITMAP
000020
0001E0
0003C0
000E20
0019E0
000780
000E00
001800
001C00
001E00
400F00
800180
8000C0
800060
C00030
FFFFF0
3FFFF0
000000
000000
001000
00B800
01D000
008000
ENDCHAR
STARTCHAR 06B3
ENCODING 1715
SWIDTH 800 0
DWIDTH 20 0
BBX 20 25 0 -4
BITMAP
000020
0001E0
0003C0
000E20
0019E0
000780
000E00
001800
001C00
001E00
400F00
800180
8000C0
800060
C00030
FFFFF0
3FFFF0
000000
000000
004000
00E000
004000
002000
007000
002000
ENDCHAR
STARTCHAR 06B4
ENCODING 1716
SWIDTH 800 0
DWIDTH 20 0
BBX 20 18 0 4
BITMAP
000C00
000F20
001BE0
001BC0
000E20
0019E0
000780
000E00
001800
001C00
001E00
400F00
800180
8000C0
800060
C00030
FFFFF0
3FFFF0
ENDCHAR
STARTCHAR 06B5
ENCODING 1717
SWIDTH 520 0
DWIDTH 13 0
BBX 12 23 1 0
BITMAP
01B0
00A0
0040
0000
0000
0070
0030
0020
0020
0020
0020
0020
2010
4010
4010
8010
8010
8010
8010
C030
E0E0
7FE0
3F80
ENDCHAR
STARTCHAR 06B6
ENCODING 1718
SWIDTH 520 0
DWIDTH 13 0
BBX 12 22 1 0
BITMAP
0020
0070
0020
0000
0070
0030
0020
0020
0020
0020
0020
2010
4010
4010
8010
8010
8010
8010
C030
E0E0
7FE0
3F80
ENDCHAR
STARTCHAR 06B7
ENCODING 1719
SWIDTH 520 0
DWIDTH 13 0
BBX 12 22 1 0
BITMAP
00C0
00F0
01B0
0180
0070
0030
0020
0020
0020
0020
0020
2010
4010
4010
8010
8010
8010
8010
C030
E0E0
7FE0
3F80
ENDCHAR
STARTCHAR 06B8
ENCODING 1720
SWIDTH 520 0
DWIDTH 13 0
BBX 12 25 1 -5
BITMAP
0040
0060
0070
0030
0020
0020
0020
0020
0020
2010
4010
4010
8010
8010
8010
8010
C030
E0E0
7FE0
3F80
0000
0300
0A00
0D00
0300
ENDCHAR
STARTCHAR 06B9
ENCODING 1721
SWIDTH 520 0
DWIDTH 13 0
BBX 12 20 1 -5
BITMAP
0200
0700
0200
0000
0020
0020
0030
4010
4010
8010
8010
8010
8010
8030
C0E0
7FC0
3F80
0200
0700
0200
ENDCHAR
STARTCHAR 06BA
ENCODING 1722
SWIDTH 520 0
DWIDTH 13 0
BBX 12 13 1 -2
BITMAP
0020
0020
0030
4010
4010
8010
8010
8010
8010
8030
C0E0
7FC0
3F80
ENDCHAR
STARTCHAR 06BB
ENCODING 1723
SWIDTH 520 0
DWIDTH 13 0
BBX 12 22 1 -2
BITMAP
0800
0C00
0800
0400
0400
05C0
0640
3FC0
0000
0020
0020
0030
4010
4010
8010
8010
8010
8010
8030
C0E0
7FC0
3F80
ENDCHAR
STARTCHAR 06BC
ENCODING 1724
SWIDTH 520 0
DWIDTH 13 0
BBX 12 20 1 -5
BITMAP
0200
0700
0200
0000
0020
0020
0030
4010
4010
8010
8010
8010
8010
8030
C0E0
7FC0
3F80
0B00
0900
0E00
ENDCHAR
STARTCHAR 06BD
ENCODING 1725
SWIDTH 520 0
DWIDTH 13 0
BBX 12 20 1 -2
BITMAP
0800
1C00
0900
0B80
1D00
0800
0000
0020
0020
0030
4010
4010
8010
8010
8010
8010
8030
C0E0
7FC0
3F80
ENDCHAR
STARTCHAR 06BE
ENCODING 1726
SWIDTH 440 0
DWIDTH 11 0
BBX 10 10 -1 4
BITMAP
0400
0600
0E00
0F00
1380
1380
1AC0
0C40
FFC0
F180
ENDCHAR
STARTCHAR 06BF
ENCODING 1727
SWIDTH 560 0
DWIDTH 14 0
BBX 11 21 1 -5
BITMAP
0400
0E00
0400
0000
0000
0000
7FE0
FFE0
0F00
1800
2000
4080
85C0
8E80
8500
8380
C100
E000
7800
3FE0
0FC0
ENDCHAR
STARTCHAR 06C0
ENCODING 1728
SWIDTH 280 0
DWIDTH 7 0
BBX 5 13 1 4
BITMAP
30
40
30
40
00
40
70
78
98
88
98
F8
F0
ENDCHAR
STARTCHAR 06C1
ENCODING 1729
SWIDTH 400 0
DWIDTH 10 0
BBX 10 6 0 2
BITMAP
0E00
1F00
33C0
61C0
4000
8000
ENDCHAR
STARTCHAR 06C2
ENCODING 1730
SWIDTH 400 0
DWIDTH 10 0
BBX 10 11 0 2
BITMAP
0C00
1000
0C00
1000
0000
0E00
1F00
33C0
61C0
4000
8000
ENDCHAR
STARTCHAR 06C3
ENCODING 1731
SWIDTH 400 0
DWIDTH 10 0
BBX 10 12 0 2
BITMAP
0200
1700
3A00
1000
0000
0000
0E00
1F00
33C0
61C0
4000
8000
ENDCHAR
STARTCHAR 06C4
ENCODING 1732
SWIDTH 440 0
DWIDTH 11 0
BBX 10 12 1 -2
BITMAP
0180
03C0
02C0
0240
03C0
01C0
0040
06C0
0B80
0B80
8F00
7E00
ENDCHAR
STARTCHAR 06C5
ENCODING 1733
SWIDTH 440 0
DWIDTH 11 0
BBX 10 12 1 -2
BITMAP
0180
03C0
0240
0240
03C0
01C0
1C40
07C0
0180
0380
8700
7E00
ENDCHAR
STARTCHAR 06C6
ENCODING 1734
SWIDTH 440 0
DWIDTH 11 0
BBX 10 17 1 -2
BITMAP
06C0
0280
0100
0000
0000
0180
03C0
02C0
0240
03C0
01C0
0040
00C0
0180
0380
8700
7E00
ENDCHAR
STARTCHAR 06C7
ENCODING 1735
SWIDTH 440 0
DWIDTH 11 0
BBX 10 18 1 -2
BITMAP
00C0
0140
01C0
00C0
0300
0000
0180
03C0
02C0
0240
03C0
01C0
0040
00C0
0180
0380
8700
7E00
ENDCHAR
STARTCHAR 06C8
ENCODING 1736
SWIDTH 440 0
DWIDTH 11 0
BBX 10 19 1 -2
BITMAP
0200
0300
0100
0100
0100
0100
0000
0180
03C0
02C0
0240
03C0
01C0
0040
00C0
0180
0380
8700
7E00
ENDCHAR
STARTCHAR 06C9
ENCODING 1737
SWIDTH 440 0
DWIDTH 11 0
BBX 10 17 1 -2
BITMAP
0100
0280
06C0
0000
0000
0180
03C0
02C0
0240
03C0
01C0
0040
00C0
0180
0380
8700
7E00
ENDCHAR
STARTCHAR 06CA
ENCODING 1738
SWIDTH 440 0
DWIDTH 11 0
BBX 10 18 1 -2
BITMAP
0080
05C0
0E80
0400
0000
0000
0180
03C0
02C0
0240
03C0
01C0
0040
00C0
0180
0380
8700
7E00
ENDCHAR
STARTCHAR 06CB
ENCODING 1739
SWIDTH 440 0
DWIDTH 11 0
BBX 10 20 1 -2
BITMAP
0400
0E00
0480
05C0
0E80
0400
0000
0000
0180
03C0
02C0
0240
03C0
01C0
0040
00C0
0180
0380
8700
7E00
ENDCHAR
STARTCHAR 06CC
ENCODING 1740
SWIDTH 640 0
DWIDTH 16 0
BBX 15 13 1 -1
BITMAP
000C
003E
0022
0040
2080
4080
40FC
80FC
8004
8018
C0F8
FFE0
3F80
ENDCHAR
STARTCHAR 06CD
ENCODING 1741
SWIDTH 640 0
DWIDTH 16 0
BBX 16 13 0 -1
BITMAP
0007
001F
0011
0020
1040
6040
A07E
407E
4002
400C
607C
7FF0
1FC0
ENDCHAR
STARTCHAR 06CE
ENCODING 1742
SWIDTH 640 0
DWIDTH 16 0
BBX 15 14 1 -1
BITMAP
1B00
0A0C
043E
0022
0040
2080
4080
40FC
80FC
8004
8018
C0F8
FFE0
3F80
ENDCHAR
STARTCHAR 06CF
ENCODING 1743
SWIDTH 440 0
DWIDTH 11 0
BBX 10 17 1 -2
BITMAP
0100
0380
0100
0000
0000
0180
03C0
02C0
0240
03C0
01C0
0040
00C0
0180
0380
8700
7E00
ENDCHAR
STARTCHAR 06D0
ENCODING 1744
SWIDTH 640 0
DWIDTH 16 0
BBX 15 16 1 -4
BITMAP
000C
003E
0022
0040
2080
4080
40FC
80FC
8004
8018
C0F8
FFE0
3F80
0000
0600
0600
ENDCHAR
STARTCHAR 06D1
ENCODING 1745
SWIDTH 640 0
DWIDTH 16 0
BBX 15 16 1 -4
BITMAP
000C
003E
0022
0040
2080
4080
40FC
80FC
8004
8018
C0F8
FFE0
3F80
0000
0500
0200
ENDCHAR
STARTCHAR 06D2
ENCODING 1746
SWIDTH 800 0
DWIDTH 20 0
BBX 18 10 1 -1
BITMAP
00C000
01E000
032000
0E2000
1C0000
780000
600000
800000
FFFFC0
FFFF80
ENDCHAR
STARTCHAR 06D3
ENCODING 1747
SWIDTH 800 0
DWIDTH 20 0
BBX 18 14 1 -1
BITMAP
060000
080000
060000
080000
00C000
01E000
032000
0E2000
1C0000
780000
600000
800000
FFFFC0
FFFF80
ENDCHAR
STARTCHAR 06D4
ENCODING 1748
SWIDTH 200 0
DWIDTH 5 0
BBX 4 2 0 4
BITMAP
F0
F0
ENDCHAR
STARTCHAR 06D5
ENCODING 1749
SWIDTH 280 0
DWIDTH 7 0
BBX 5 8 1 4
BITMAP
40
70
78
98
88
98
F8
F0
ENDCHAR
STARTCHAR 06D6
ENCODING 1750
SWIDTH 0 0
DWIDTH 0 0
BBX 12 9 -6 13
BITMAP
2000
3800
1000
0A30
0AD0
3FF0
4000
8000
FFC0
ENDCHAR
STARTCHAR 06D7
ENCODING 1751
SWIDTH 0 0
DWIDTH 0 0
BBX 9 9 -4 13
BITMAP
4200
7400
2200
2500
1700
1100
7F00
8000
FF80
ENDCHAR
STARTCHAR 06D8
ENCODING 1752
SWIDTH 0 0
DWIDTH 0 0
BBX 5 3 -3 13
BITMAP
10
28
D8
ENDCHAR
STARTCHAR 06D9
ENCODING 1753
SWIDTH 0 0
DWIDTH 0 0
BBX 6 8 -3 13
BITMAP
98
CC
48
28
28
10
28
38
ENDCHAR
STARTCHAR 06DA
ENCODING 1754
SWIDTH 0 0
DWIDTH 0 0
BBX 6 8 -3 13
BITMAP
FC
30
40
90
80
80
40
38
ENDCHAR
STARTCHAR 06DB
ENCODING 1755
SWIDTH 0 0
DWIDTH 0 0
BBX 2 2 -1 13
BITMAP
80
C0
ENDCHAR
STARTCHAR 06DC
ENCODING 1756
SWIDTH 0 0
DWIDTH 0 0
BBX 10 6 -5 13
BITMAP
4940
8940
8FC0
8800
9000
6000
ENDCHAR
STARTCHAR 06DD
ENCODING 1757
SWIDTH 1120 0
DWIDTH 28 0
BBX 26 27 1 -5
BITMAP
007F8000
07807800
05FFE800
0E001C00
18000600
30000200
20000100
60000180
40000080
40000080
80000040
80000040
80000040
80000040
80000040
80000040
80000040
40000080
40000080
60000180
20000100
30000200
18000600
0E001C00
05FFE800
07807800
007F8000
ENDCHAR
STARTCHAR 06DE
ENCODING 1758
SWIDTH 1080 0
DWIDTH 27 0
BBX 27 27 0 -5
BITMAP
00040000
000A0000
00110000
00208000
0FFFFE00
08802200
09001200
0A000A00
0C000600
08000200
18000300
280E0280
48110240
88110220
48110240
280E0280
18000300
08000200
0C000600
0A000A00
09001200
08802200
0FFFFE00
00218000
00110000
000A0000
00040000
ENDCHAR
STARTCHAR 06DF
ENCODING 1759
SWIDTH 0 0
DWIDTH 0 0
BBX 2 2 -1 13
BITMAP
C0
C0
ENDCHAR
STARTCHAR 06E0
ENCODING 1760
SWIDTH 0 0
DWIDTH 0 0
BBX 2 2 -1 13
BITMAP
C0
C0
ENDCHAR
STARTCHAR 06E1
ENCODING 1761
SWIDTH 0 0
DWIDTH 0 0
BBX 7 3 -3 13
BITMAP
70
08
FE
ENDCHAR
STARTCHAR 06E2
ENCODING 1762
SWIDTH 0 0
DWIDTH 0 0
BBX 4 7 -2 13
BITMAP
60
50
70
80
80
40
40
ENDCHAR
STARTCHAR 06E3
ENCODING 1763
SWIDTH 0 0
DWIDTH 0 0
BBX 10 6 -5 -5
BITMAP
4940
8940
8FC0
8800
9000
6000
ENDCHAR
STARTCHAR 06E4
ENCODING 1764
SWIDTH 0 0
DWIDTH 0 0
BBX 2 1 -1 13
BITMAP
C0
ENDCHAR
STARTCHAR 06E5
ENCODING 1765
SWIDTH 200 0
DWIDTH 5 0
BBX 4 6 1 13
BITMAP
30
50
70
10
30
C0
ENDCHAR
STARTCHAR 06E6
ENCODING 1766
SWIDTH 360 0
DWIDTH 9 0
BBX 8 5 0 13
BITMAP
10
28
60
80
FF
ENDCHAR
STARTCHAR 06E7
ENCODING 1767
SWIDTH 0 0
DWIDTH 0 0
BBX 8 5 -5 13
BITMAP
10
28
60
80
FF
ENDCHAR
STARTCHAR 06E8
ENCODING 1768
SWIDTH 0 0
DWIDTH 0 0
BBX 6 7 -3 13
BITMAP
20
08
4C
84
84
84
78
ENDCHAR
STARTCHAR 06E9
ENCODING 1769
SWIDTH 600 0
DWIDTH 15 0
BBX 17 20 -1 0
BITMAP
008000
036000
049000
0B6800
349600
5B6D00
AC1A80
522500
2A2B00
2A2A00
2A2A00
2A2A00
2A2A00
2A2A00
2A2A00
2BEA00
280A00
4FF900
400100
FFFF80
ENDCHAR
STARTCHAR 06EA
ENCODING 1770
SWIDTH 0 0
DWIDTH 0 0
BBX 3 4 -2 -4
BITMAP
40
A0
A0
40
ENDCHAR
STARTCHAR 06EB
ENCODING 1771
SWIDTH 0 0
DWIDTH 0 0
BBX 3 4 -2 13
BITMAP
40
A0
A0
40
ENDCHAR
STARTCHAR 06EC
ENCODING 1772
SWIDTH 0 0
DWIDTH 0 0
BBX 2 2 -1 13
BITMAP
C0
C0
ENDCHAR
STARTCHAR 06ED
ENCODING 1773
SWIDTH 0 0
DWIDTH 0 0
BBX 4 7 -2 -5
BITMAP
60
50
70
80
80
40
40
ENDCHAR
STARTCHAR 06F0
ENCODING 1776
SWIDTH 520 0
DWIDTH 13 0
BBX 4 6 5 5
BITMAP
40
60
F0
F0
60
20
ENDCHAR
STARTCHAR 06F1
ENCODING 1777
SWIDTH 520 0
DWIDTH 13 0
BBX 4 14 4 4
BITMAP
80
C0
E0
E0
70
30
30
30
10
10
10
10
10
10
ENDCHAR
STARTCHAR 06F2
ENCODING 1778
SWIDTH 520 0
DWIDTH 13 0
BBX 7 14 3 4
BITMAP
82
82
C6
7E
7C
30
30
18
18
18
18
08
08
08
ENDCHAR
STARTCHAR 06F3
ENCODING 1779
SWIDTH 520 0
DWIDTH 13 0
BBX 10 14 2 4
BITMAP
8440
CCC0
FFC0
FB80
6000
7000
3000
3000
3000
1000
1000
1000
1000
1000
ENDCHAR
STARTCHAR 06F4
ENCODING 1780
SWIDTH 520 0
DWIDTH 13 0
BBX 9 14 3 4
BITMAP
8E00
9800
D080
F180
7F00
7E00
6000
7000
3000
3000
3000
2000
2000
2000
ENDCHAR
STARTCHAR 06F5
ENCODING 1781
SWIDTH 520 0
DWIDTH 13 0
BBX 9 14 2 4
BITMAP
0800
0C00
0C00
0E00
0F00
1300
2300
2180
4080
C080
C480
FF80
FF00
7E00
ENDCHAR
STARTCHAR 06F6
ENCODING 1782
SWIDTH 520 0
DWIDTH 13 0
BBX 9 14 2 4
BITMAP
0C00
3E00
6000
4000
E080
FF80
7E00
0C00
1800
1800
3000
3000
2000
2000
ENDCHAR
STARTCHAR 06F7
ENCODING 1783
SWIDTH 520 0
DWIDTH 13 0
BBX 11 14 1 4
BITMAP
8020
C040
C040
E0C0
60C0
3180
3100
1900
0A00
0A00
0C00
0400
0400
0400
ENDCHAR
STARTCHAR 06F8
ENCODING 1784
SWIDTH 520 0
DWIDTH 13 0
BBX 11 14 1 4
BITMAP
0400
0400
0400
0C00
0E00
0A00
1300
1380
3180
61C0
E0E0
C0E0
C060
8020
ENDCHAR
STARTCHAR 06F9
ENCODING 1785
SWIDTH 520 0
DWIDTH 13 0
BBX 7 14 3 4
BITMAP
38
7C
4C
84
84
FC
7C
04
04
04
06
06
06
02
ENDCHAR
STARTCHAR 06FA
ENCODING 1786
SWIDTH 840 0
DWIDTH 21 0
BBX 20 20 1 -2
BITMAP
000400
000E00
000480
0005C0
000E80
000400
000000
002020
0020B0
0030B0
401090
401090
801FF0
801F70
801000
801000
802080
C0E1C0
7FC080
3F0000
ENDCHAR
STARTCHAR 06FB
ENCODING 1787
SWIDTH 1080 0
DWIDTH 27 0
BBX 26 18 1 -2
BITMAP
00008000
0001C000
00008000
00000000
00000000
00200780
00201FC0
003031C0
4010C0C0
401180C0
801FFFC0
801FFFC0
80100000
80100000
80201000
C0E03800
7FC01000
3F000000
ENDCHAR
STARTCHAR 06FC
ENCODING 1788
SWIDTH 560 0
DWIDTH 14 0
BBX 11 24 1 -5
BITMAP
1000
3800
1000
0000
0000
3800
7E00
E000
8000
80C0
E3C0
7F00
3C00
3000
6000
4000
8100
8380
8100
8000
C000
7000
3FE0
0FC0
ENDCHAR
STARTCHAR 06FD
ENCODING 1789
SWIDTH 400 0
DWIDTH 10 0
BBX 8 14 1 -3
BITMAP
18
3C
48
C0
E3
FE
3C
30
00
14
14
14
14
14
ENDCHAR
STARTCHAR 06FE
ENCODING 1790
SWIDTH 320 0
DWIDTH 8 0
BBX 8 15 0 -5
BITMAP
1C
3E
26
03
1F
7F
E0
80
8A
8A
CA
4A
4A
40
40
ENDCHAR
STARTCHAR 1E80
ENCODING 7808
SWIDTH 1040 0
DWIDTH 26 0
BBX 25 23 0 0
BITMAP
00380000
00180000
000C0000
00000000
00000000
C01C0180
C01C0380
60360300
60360300
60360300
30770600
30630600
30630600
30630E00
18C18C00
18C18C00
18C18C00
0D80D800
0D80D800
0D80D800
0F80F800
07007000
07007000
ENDCHAR
STARTCHAR 1E81
ENCODING 7809
SWIDTH 760 0
DWIDTH 19 0
BBX 19 18 0 0
BITMAP
038000
018000
00C000
000000
000000
C04060
C0E060
60E0E0
61B0C0
61B0C0
31B180
331980
1B1B80
1B1B00
1B0B00
0E0E00
0E0E00
060600
ENDCHAR
STARTCHAR 1E82
ENCODING 7810
SWIDTH 1040 0
DWIDTH 26 0
BBX 25 23 0 0
BITMAP
000E0000
000C0000
00180000
00000000
00000000
C01C0180
C01C0380
60360300
60360300
60360300
30770600
30630600
30630600
30630E00
18C18C00
18C18C00
18C18C00
0D80D800
0D80D800
0D80D800
0F80F800
07007000
07007000
ENDCHAR
STARTCHAR 1E83
ENCODING 7811
SWIDTH 760 0
DWIDTH 19 0
BBX 19 18 0 0
BITMAP
003800
003000
006000
000000
000000
C04060
C0E060
60E0E0
61B0C0
61B0C0
31B180
331980
1B1B80
1B1B00
1B0B00
0E0E00
0E0E00
060600
ENDCHAR
STARTCHAR 1E84
ENCODING 7812
SWIDTH 1040 0
DWIDTH 26 0
BBX 25 22 0 0
BITMAP
00660000
00660000
00000000
00000000
C01C0180
C01C0380
60360300
60360300
60360300
30770600
30630600
30630600
30630E00
18C18C00
18C18C00
18C18C00
0D80D800
0D80D800
0D80D800
0F80F800
07007000
07007000
ENDCHAR
STARTCHAR 1E85
ENCODING 7813
SWIDTH 760 0
DWIDTH 19 0
BBX 19 17 0 0
BITMAP
019800
019800
000000
000000
C04060
C0E060
60E0E0
61B0C0
61B0C0
31B180
331980
1B1B80
1B1B00
1B0B00
0E0E00
0E0E00
060600
ENDCHAR
STARTCHAR 1EA0
ENCODING 7840
SWIDTH 680 0
DWIDTH 17 0
BBX 15 22 1 -4
BITMAP
0380
0380
06C0
06C0
0EC0
0C60
0C60
1C70
1830
1830
3FF8
3FF8
3018
600C
600C
600C
C006
C006
0000
0000
0180
0180
ENDCHAR
STARTCHAR 1EA1
ENCODING 7841
SWIDTH 560 0
DWIDTH 14 0
BBX 12 17 1 -4
BITMAP
1F80
7FC0
E0E0
C060
0060
03E0
3FE0
7C60
C060
C0E0
E1E0
7F60
3E30
0000
0000
0600
0600
ENDCHAR
STARTCHAR 1EA2
ENCODING 7842
SWIDTH 680 0
DWIDTH 17 0
BBX 15 23 1 0
BITMAP
0780
00C0
01C0
0100
0000
0380
0380
06C0
06C0
0EC0
0C60
0C60
1C70
1830
1830
3FF8
3FF8
3018
600C
600C
600C
C006
C006
ENDCHAR
STARTCHAR 1EA3
ENCODING 7843
SWIDTH 560 0
DWIDTH 14 0
BBX 12 19 1 0
BITMAP
1E00
0300
0300
0600
0000
0000
1F80
7FC0
E0E0
C060
0060
03E0
3FE0
7C60
C060
C0E0
E1E0
7F60
3E30
ENDCHAR
STARTCHAR 1EA4
ENCODING 7844
SWIDTH 680 0
DWIDTH 17 0
BBX 15 23 1 0
BITMAP
01C0
0380
0380
06C0
0000
0380
0380
06C0
06C0
0EC0
0C60
0C60
1C70
1830
1830
3FF8
3FF8
3018
600C
600C
600C
C006
C006
ENDCHAR
STARTCHAR 1EA5
ENCODING 7845
SWIDTH 560 0
DWIDTH 14 0
BBX 12 22 1 0
BITMAP
0380
0700
0E00
0000
0600
0F00
1980
0000
0000
1F80
7FC0
E0E0
C060
0060
03E0
3FE0
7C60
C060
C0E0
E1E0
7F60
3E30
ENDCHAR
STARTCHAR 1EA6
ENCODING 7846
SWIDTH 680 0
DWIDTH 17 0
BBX 15 23 1 0
BITMAP
0700
0380
0380
06C0
0000
0380
0380
06C0
06C0
0EC0
0C60
0C60
1C70
1830
1830
3FF8
3FF8
3018
600C
600C
600C
C006
C006
ENDCHAR
STARTCHAR 1EA7
ENCODING 7847
SWIDTH 560 0
DWIDTH 14 0
BBX 12 22 1 0
BITMAP
1C00
0E00
0700
0000
0600
0F00
1980
0000
0000
1F80
7FC0
E0E0
C060
0060
03E0
3FE0
7C60
C060
C0E0
E1E0
7F60
3E30
ENDCHAR
STARTCHAR 1EA8
ENCODING 7848
SWIDTH 680 0
DWIDTH 17 0
BBX 15 23 1 0
BITMAP
07E0
07C0
0380
06C0
0000
0380
0380
06C0
06C0
0EC0
0C60
0C60
1C70
1830
1830
3FF8
3FF8
3018
600C
600C
600C
C006
C006
ENDCHAR
STARTCHAR 1EA9
ENCODING 7849
SWIDTH 560 0
DWIDTH 14 0
BBX 12 23 1 0
BITMAP
1E00
0300
0700
0400
0000
0600
0F00
1980
0000
0000
1F80
7FC0
E0E0
C060
0060
03E0
3FE0
7C60
C060
C0E0
E1E0
7F60
3E30
ENDCHAR
STARTCHAR 1EAA
ENCODING 7850
SWIDTH 680 0
DWIDTH 17 0
BBX 15 23 1 0
BITMAP
0F18
1FF0
0380
06C0
0000
0380
0380
06C0
06C0
0EC0
0C60
0C60
1C70
1830
1830
3FF8
3FF8
3018
600C
600C
600C
C006
C006
ENDCHAR
STARTCHAR 1EAB
ENCODING 7851
SWIDTH 560 0
DWIDTH 14 0
BBX 12 22 1 0
BITMAP
1C60
3FE0
31C0
0000
0600
0F00
1980
0000
0000
1F80
7FC0
E0E0
C060
0060
03E0
3FE0
7C60
C060
C0E0
E1E0
7F60
3E30
ENDCHAR
STARTCHAR 1EAC
ENCODING 7852
SWIDTH 680 0
DWIDTH 17 0
BBX 15 25 1 -4
BITMAP
0380
06C0
0000
0380
0380
06C0
06C0
0EC0
0C60
0C60
1C70
1830
1830
3FF8
3FF8
3018
600C
600C
600C
C006
C006
0000
0000
0180
0180
ENDCHAR
STARTCHAR 1EAD
ENCODING 7853
SWIDTH 560 0
DWIDTH 14 0
BBX 12 22 1 -4
BITMAP
0600
0F00
1980
0000
0000
1F80
7FC0
E0E0
C060
0060
03E0
3FE0
7C60
C060
C0E0
E1E0
7F60
3E30
0000
0000
0600
0600
ENDCHAR
STARTCHAR 1EAE
ENCODING 7854
SWIDTH 680 0
DWIDTH 17 0
BBX 15 23 1 0
BITMAP
01C0
0380
0820
07C0
0000
0380
0380
06C0
06C0
0EC0
0C60
0C60
1C70
1830
1830
3FF8
3FF8
3018
600C
600C
600C
C006
C006
ENDCHAR
STARTCHAR 1EAF
ENCODING 7855
SWIDTH 560 0
DWIDTH 14 0
BBX 12 22 1 0
BITMAP
0380
0700
0E00
0000
3180
3F80
1F00
0000
0000
1F80
7FC0
E0E0
C060
0060
03E0
3FE0
7C60
C060
C0E0
E1E0
7F60
3E30
ENDCHAR
STARTCHAR 1EB0
ENCODING 7856
SWIDTH 680 0
DWIDTH 17 0
BBX 15 23 1 0
BITMAP
0700
0380
0820
07C0
0000
0380
0380
06C0
06C0
0EC0
0C60
0C60
1C70
1830
1830
3FF8
3FF8
3018
600C
600C
600C
C006
C006
ENDCHAR
STARTCHAR 1EB1
ENCODING 7857
SWIDTH 560 0
DWIDTH 14 0
BBX 12 22 1 0
BITMAP
3800
1C00
0E00
0000
3180
3F80
1F00
0000
0000
1F80
7FC0
E0E0
C060
0060
03E0
3FE0
7C60
C060
C0E0
E1E0
7F60
3E30
ENDCHAR
STARTCHAR 1EB2
ENCODING 7858
SWIDTH 680 0
DWIDTH 17 0
BBX 15 23 1 0
BITMAP
07E0
07C0
0820
07C0
0000
0380
0380
06C0
06C0
0EC0
0C60
0C60
1C70
1830
1830
3FF8
3FF8
3018
600C
600C
600C
C006
C006
ENDCHAR
STARTCHAR 1EB3
ENCODING 7859
SWIDTH 560 0
DWIDTH 14 0
BBX 12 23 1 0
BITMAP
1E00
0300
0700
0400
0000
3180
3F80
1F00
0000
0000
1F80
7FC0
E0E0
C060
0060
03E0
3FE0
7C60
C060
C0E0
E1E0
7F60
3E30
ENDCHAR
STARTCHAR 1EB4
ENCODING 7860
SWIDTH 680 0
DWIDTH 17 0
BBX 15 23 1 0
BITMAP
0F18
1FF0
0820
07C0
0000
0380
0380
06C0
06C0
0EC0
0C60
0C60
1C70
1830
1830
3FF8
3FF8
3018
600C
600C
600C
C006
C006
ENDCHAR
STARTCHAR 1EB5
ENCODING 7861
SWIDTH 560 0
DWIDTH 14 0
BBX 12 22 1 0
BITMAP
38C0
7FC0
6380
0000
3180
3F80
1F00
0000
0000
1F80
7FC0
E0E0
C060
0060
03E0
3FE0
7C60
C060
C0E0
E1E0
7F60
3E30
ENDCHAR
STARTCHAR 1EB6
ENCODING 7862
SWIDTH 680 0
DWIDTH 17 0
BBX 15 25 1 -4
BITMAP
0820
07C0
0000
0380
0380
06C0
06C0
0EC0
0C60
0C60
1C70
1830
1830
3FF8
3FF8
3018
600C
600C
600C
C006
C006
0000
0000
0180
0180
ENDCHAR
STARTCHAR 1EB7
ENCODING 7863
SWIDTH 560 0
DWIDTH 14 0
BBX 12 22 1 -4
BITMAP
3180
3F80
1F00
0000
0000
1F80
7FC0
E0E0
C060
0060
03E0
3FE0
7C60
C060
C0E0
E1E0
7F60
3E30
0000
0000
0600
0600
ENDCHAR
STARTCHAR 1EB8
ENCODING 7864
SWIDTH 680 0
DWIDTH 17 0
BBX 14 22 2 -4
BITMAP
FFFC
FFFC
C000
C000
C000
C000
C000
C000
FFF8
FFF8
C000
C000
C000
C000
C000
C000
FFFC
FFFC
0000
0000
0300
0300
ENDCHAR
STARTCHAR 1EB9
ENCODING 7865
SWIDTH 560 0
DWIDTH 14 0
BBX 12 17 1 -4
BITMAP
1F80
3FC0
70E0
6060
C030
FFF0
FFF0
C000
C000
E030
7060
3FC0
1F80
0000
0000
0600
0600
ENDCHAR
STARTCHAR 1EBA
ENCODING 7866
SWIDTH 680 0
DWIDTH 17 0
BBX 14 23 2 0
BITMAP
0780
00C0
01C0
0100
0000
FFFC
FFFC
C000
C000
C000
C000
C000
C000
FFF8
FFF8
C000
C000
C000
C000
C000
C000
FFFC
FFFC
ENDCHAR
STARTCHAR 1EBB
ENCODING 7867
SWIDTH 560 0
DWIDTH 14 0
BBX 12 19 1 0
BITMAP
1E00
0300
0300
0600
0000
0000
1F80
3FC0
70E0
6060
C030
FFF0
FFF0
C000
C000
E030
7060
3FC0
1F80
ENDCHAR
STARTCHAR 1EBC
ENCODING 7868
SWIDTH 680 0
DWIDTH 17 0
BBX 14 23 2 0
BITMAP
0E60
1FE0
19C0
0000
0000
FFFC
FFFC
C000
C000
C000
C000
C000
C000
FFF8
FFF8
C000
C000
C000
C000
C000
C000
FFFC
FFFC
ENDCHAR
STARTCHAR 1EBD
ENCODING 7869
SWIDTH 560 0
DWIDTH 14 0
BBX 12 18 1 0
BITMAP
1CC0
3FC0
3380
0000
0000
1F80
3FC0
70E0
6060
C030
FFF0
FFF0
C000
C000
E030
7060
3FC0
1F80
ENDCHAR
STARTCHAR 1EBE
ENCODING 7870
SWIDTH 680 0
DWIDTH 17 0
BBX 14 23 2 0
BITMAP
0380
0700
0700
0D80
0000
FFFC
FFFC
C000
C000
C000
C000
C000
C000
FFF8
FFF8
C000
C000
C000
C000
C000
C000
FFFC
FFFC
ENDCHAR
STARTCHAR 1EBF
ENCODING 7871
SWIDTH 560 0
DWIDTH 14 0
BBX 12 22 1 0
BITMAP
0380
0700
0E00
0000
0600
0F00
1980
0000
0000
1F80
3FC0
70E0
6060
C030
FFF0
FFF0
C000
C000
E030
7060
3FC0
1F80
ENDCHAR
STARTCHAR 1EC0
ENCODING 7872
SWIDTH 680 0
DWIDTH 17 0
BBX 14 23 2 0
BITMAP
0E00
0700
0700
0D80
0000
FFFC
FFFC
C000
C000
C000
C000
C000
C000
FFF8
FFF8
C000
C000
C000
C000
C000
C000
FFFC
FFFC
ENDCHAR
STARTCHAR 1EC1
ENCODING 7873
SWIDTH 560 0
DWIDTH 14 0
BBX 12 22 1 0
BITMAP
1C00
0E00
0700
0000
0600
0F00
1980
0000
0000
1F80
3FC0
70E0
6060
C030
FFF0
FFF0
C000
C000
E030
7060
3FC0
1F80
ENDCHAR
STARTCHAR 1EC2
ENCODING 7874
SWIDTH 680 0
DWIDTH 17 0
BBX 14 23 2 0
BITMAP
0FC0
0F80
0700
0D80
0000
FFFC
FFFC
C000
C000
C000
C000
C000
C000
FFF8
FFF8
C000
C000
C000
C000
C000
C000
FFFC
FFFC
ENDCHAR
STARTCHAR 1EC3
ENCODING 7875
SWIDTH 560 0
DWIDTH 14 0
BBX 12 23 1 0
BITMAP
1E00
0300
0700
0400
0000
0600
0F00
1980
0000
0000
1F80
3FC0
70E0
6060
C030
FFF0
FFF0
C000
C000
E030
7060
3FC0
1F80
ENDCHAR
STARTCHAR 1EC4
ENCODING 7876
SWIDTH 680 0
DWIDTH 17 0
BBX 14 23 2 0
BITMAP
1E30
3FE0
0700
0D80
0000
FFFC
FFFC
C000
C000
C000
C000
C000
C000
FFF8
FFF8
C000
C000
C000
C000
C000
C000
FFFC
FFFC
ENDCHAR
STARTCHAR 1EC5
ENCODING 7877
SWIDTH 560 0
DWIDTH 14 0
BBX 12 22 1 0
BITMAP
1C60
3FE0
31C0
0000
0600
0F00
1980
0000
0000
1F80
3FC0
70E0
6060
C030
FFF0
FFF0
C000
C000
E030
7060
3FC0
1F80
ENDCHAR
STARTCHAR 1EC6
ENCODING 7878
SWIDTH 680 0
DWIDTH 17 0
BBX 14 25 2 -4
BITMAP
0700
0D80
0000
FFFC
FFFC
C000
C000
C000
C000
C000
C000
FFF8
FFF8
C000
C000
C000
C000
C000
C000
FFFC
FFFC
0000
0000
0300
0300
ENDCHAR
STARTCHAR 1EC7
ENCODING 7879
SWIDTH 560 0
DWIDTH 14 0
BBX 12 22 1 -4
BITMAP
0600
0F00
1980
0000
0000
1F80
3FC0
70E0
6060
C030
FFF0
FFF0
C000
C000
E030
7060
3FC0
1F80
0000
0000
0600
0600
ENDCHAR
STARTCHAR 1EC8
ENCODING 7880
SWIDTH 240 0
DWIDTH 6 0
BBX 5 23 1 0
BITMAP
F0
18
38
20
00
60
60
60
60
60
60
60
60
60
60
60
60
60
60
60
60
60
60
ENDCHAR
STARTCHAR 1EC9
ENCODING 7881
SWIDTH 240 0
DWIDTH 6 0
BBX 5 19 0 0
BITMAP
F0
18
18
30
00
00
30
30
30
30
30
30
30
30
30
30
30
30
30
ENDCHAR
STARTCHAR 1ECA
ENCODING 7882
SWIDTH 240 0
DWIDTH 6 0
BBX 2 22 2 -4
BITMAP
C0
C0
C0
C0
C0
C0
C0
C0
C0
C0
C0
C0
C0
C0
C0
C0
C0
C0
00
00
C0
C0
ENDCHAR
STARTCHAR 1ECB
ENCODING 7883
SWIDTH 240 0
DWIDTH 6 0
BBX 2 22 2 -4
BITMAP
C0
C0
00
00
00
C0
C0
C0
C0
C0
C0
C0
C0
C0
C0
C0
C0
C0
00
00
C0
C0
ENDCHAR
STARTCHAR 1ECC
ENCODING 7884
SWIDTH 760 0
DWIDTH 19 0
BBX 16 22 2 -4
BITMAP
07E0
1FF8
3C3C
700E
6006
6006
C003
C003
C003
C003
C003
C003
6006
6006
700E
383C
1FF8
07E0
0000
0000
0180
0180
ENDCHAR
STARTCHAR 1ECD
ENCODING 7885
SWIDTH 560 0
DWIDTH 14 0
BBX 12 17 1 -4
BITMAP
1F80
3FC0
70E0
E070
C030
C030
C030
C030
C030
E070
70E0
3FC0
1F80
0000
0000
0600
0600
ENDCHAR
STARTCHAR 1ECE
ENCODING 7886
SWIDTH 760 0
DWIDTH 19 0
BBX 16 23 2 0
BITMAP
03C0
0060
00E0
0080
0000
07E0
1FF8
3C3C
700E
6006
6006
C003
C003
C003
C003
C003
C003
6006
6006
700E
383C
1FF8
07E0
ENDCHAR
STARTCHAR 1ECF
ENCODING 7887
SWIDTH 560 0
DWIDTH 14 0
BBX 12 19 1 0
BITMAP
1E00
0300
0300
0600
0000
0000
1F80
3FC0
70E0
E070
C030
C030
C030
C030
C030
E070
70E0
3FC0
1F80
ENDCHAR
STARTCHAR 1ED0
ENCODING 7888
SWIDTH 760 0
DWIDTH 19 0
BBX 16 23 2 0
BITMAP
00E0
01C0
01C0
0360
0000
07E0
1FF8
3C3C
700E
6006
6006
C003
C003
C003
C003
C003
C003
6006
6006
700E
383C
1FF8
07E0
ENDCHAR
STARTCHAR 1ED1
ENCODING 7889
SWIDTH 560 0
DWIDTH 14 0
BBX 12 22 1 0
BITMAP
0380
0700
0E00
0000
0600
0F00
1980
0000
0000
1F80
3FC0
70E0
E070
C030
C030
C030
C030
C030
E070
70E0
3FC0
1F80
ENDCHAR
STARTCHAR 1ED2
ENCODING 7890
SWIDTH 760 0
DWIDTH 19 0
BBX 16 23 2 0
BITMAP
0380
01C0
01C0
0360
0000
07E0
1FF8
3C3C
700E
6006
6006
C003
C003
C003
C003
C003
C003
6006
6006
700E
383C
1FF8
07E0
ENDCHAR
STARTCHAR 1ED3
ENCODING 7891
SWIDTH 560 0
DWIDTH 14 0
BBX 12 22 1 0
BITMAP
1C00
0E00
0700
0000
0600
0F00
1980
0000
0000
1F80
3FC0
70E0
E070
C030
C030
C030
C030
C030
E070
70E0
3FC0
1F80
ENDCHAR
STARTCHAR 1ED4
ENCODING 7892
SWIDTH 760 0
DWIDTH 19 0
BBX 16 23 2 0
BITMAP
03F0
03E0
01C0
0360
0000
07E0
1FF8
3C3C
700E
6006
6006
C003
C003
C003
C003
C003
C003
6006
6006
700E
383C
1FF8
07E0
ENDCHAR
STARTCHAR 1ED5
ENCODING 7893
SWIDTH 560 0
DWIDTH 14 0
BBX 12 23 1 0
BITMAP
1E00
0300
0700
0400
0000
0600
0F00
1980
0000
0000
1F80
3FC0
70E0
E070
C030
C030
C030
C030
C030
E070
70E0
3FC0
1F80
ENDCHAR
STARTCHAR 1ED6
ENCODING 7894
SWIDTH 760 0
DWIDTH 19 0
BBX 16 23 2 0
BITMAP
078C
0FF8
01C0
0360
0000
07E0
1FF8
3C3C
700E
6006
6006
C003
C003
C003
C003
C003
C003
6006
6006
700E
383C
1FF8
07E0
ENDCHAR
STARTCHAR 1ED7
ENCODING 7895
SWIDTH 560 0
DWIDTH 14 0
BBX 12 22 1 0
BITMAP
1C60
3FE0
31C0
0000
0600
0F00
1980
0000
0000
1F80
3FC0
70E0
E070
C030
C030
C030
C030
C030
E070
70E0
3FC0
1F80
ENDCHAR
STARTCHAR 1ED8
ENCODING 7896
SWIDTH 760 0
DWIDTH 19 0
BBX 16 25 2 -4
BITMAP
01C0
0360
0000
07E0
1FF8
3C3C
700E
6006
6006
C003
C003
C003
C003
C003
C003
6006
6006
700E
383C
1FF8
07E0
0000
0000
0180
0180
ENDCHAR
STARTCHAR 1ED9
ENCODING 7897
SWIDTH 560 0
DWIDTH 14 0
BBX 12 22 1 -4
BITMAP
0600
0F00
1980
0000
0000
1F80
3FC0
70E0
E070
C030
C030
C030
C030
C030
E070
70E0
3FC0
1F80
0000
0000
0600
0600
ENDCHAR
STARTCHAR 1EDA
ENCODING 7898
SWIDTH 840 0
DWIDTH 21 0
BBX 18 23 2 0
BITMAP
01C000
018000
030000
000000
000000
07E0C0
1FF8C0
383C40
700E40
600680
600700
C00300
C00300
C00300
C00300
C00300
C00300
600600
600600
700C00
383C00
1FF800
07E000
ENDCHAR
STARTCHAR 1EDB
ENCODING 7899
SWIDTH 640 0
DWIDTH 16 0
BBX 14 18 1 0
BITMAP
0380
0300
0600
0000
0000
1F8C
3FCC
70E4
E074
C038
C038
C030
C030
C030
E060
70E0
3FC0
1F80
ENDCHAR
STARTCHAR 1EDC
ENCODING 7900
SWIDTH 840 0
DWIDTH 21 0
BBX 18 23 2 0
BITMAP
038000
018000
00C000
000000
000000
07E0C0
1FF8C0
383C40
700E40
600680
600700
C00300
C00300
C00300
C00300
C00300
C00300
600600
600600
700C00
383C00
1FF800
07E000
ENDCHAR
STARTCHAR 1EDD
ENCODING 7901
SWIDTH 640 0
DWIDTH 16 0
BBX 14 18 1 0
BITMAP
1C00
0C00
0600
0000
0000
1F8C
3FCC
70E4
E074
C038
C038
C030
C030
C030
E060
70E0
3FC0
1F80
ENDCHAR
STARTCHAR 1EDE
ENCODING 7902
SWIDTH 840 0
DWIDTH 21 0
BBX 18 23 2 0
BITMAP
03C000
006000
00E000
008000
000000
07E0C0
1FF8C0
383C40
700E40
600680
600700
C00300
C00300
C00300
C00300
C00300
C00300
600600
600600
700C00
383C00
1FF800
07E000
ENDCHAR
STARTCHAR 1EDF
ENCODING 7903
SWIDTH 640 0
DWIDTH 16 0
BBX 14 19 1 0
BITMAP
1E00
0300
0300
0600
0000
0000
1F8C
3FCC
70E4
E074
C038
C038
C030
C030
C030
E060
70E0
3FC0
1F80
ENDCHAR
STARTCHAR 1EE0
ENCODING 7904
SWIDTH 840 0
DWIDTH 21 0
BBX 18 23 2 0
BITMAP
073000
0FF000
0CE000
000000
000000
07E0C0
1FF8C0
383C40
700E40
600680
600700
C00300
C00300
C00300
C00300
C00300
C00300
600600
600600
700C00
383C00
1FF800
07E000
ENDCHAR
STARTCHAR 1EE1
ENCODING 7905
SWIDTH 640 0
DWIDTH 16 0
BBX 14 18 1 0
BITMAP
1CC0
3FC0
3380
0000
0000
1F8C
3FCC
70E4
E074
C038
C038
C030
C030
C030
E060
70E0
3FC0
1F80
ENDCHAR
STARTCHAR 1EE2
ENCODING 7906
SWIDTH 840 0
DWIDTH 21 0
BBX 18 22 2 -4
BITMAP
07E0C0
1FF8C0
383C40
700E40
600680
600700
C00300
C00300
C00300
C00300
C00300
C00300
600600
600600
700C00
383C00
1FF800
07E000
000000
000000
030000
030000
ENDCHAR
STARTCHAR 1EE3
ENCODING 7907
SWIDTH 640 0
DWIDTH 16 0
BBX 14 17 1 -4
BITMAP
1F8C
3FCC
70E4
E074
C038
C038
C030
C030
C030
E060
70E0
3FC0
1F80
0000
0000
0600
0600
ENDCHAR
STARTCHAR 1EE4
ENCODING 7908
SWIDTH 720 0
DWIDTH 18 0
BBX 14 22 2 -4
BITMAP
C00C
C00C
C00C
C00C
C00C
C00C
C00C
C00C
C00C
C00C
C00C
C00C
C00C
C00C
6018
7038
3FF0
0FC0
0000
0000
0300
0300
ENDCHAR
STARTCHAR 1EE5
ENCODING 7909
SWIDTH 560 0
DWIDTH 14 0
BBX 10 17 2 -4
BITMAP
C0C0
C0C0
C0C0
C0C0
C0C0
C0C0
C0C0
C0C0
C0C0
C1C0
E3C0
7EC0
3CC0
0000
0000
0C00
0C00
ENDCHAR
STARTCHAR 1EE6
ENCODING 7910
SWIDTH 720 0
DWIDTH 18 0
BBX 14 23 2 0
BITMAP
0780
00C0
01C0
0100
0000
C00C
C00C
C00C
C00C
C00C
C00C
C00C
C00C
C00C
C00C
C00C
C00C
C00C
C00C
6018
7038
3FF0
0FC0
ENDCHAR
STARTCHAR 1EE7
ENCODING 7911
SWIDTH 560 0
DWIDTH 14 0
BBX 10 19 2 0
BITMAP
3C00
0600
0600
0C00
0000
0000
C0C0
C0C0
C0C0
C0C0
C0C0
C0C0
C0C0
C0C0
C0C0
C1C0
E3C0
7EC0
3CC0
ENDCHAR
STARTCHAR 1EE8
ENCODING 7912
SWIDTH 840 0
DWIDTH 21 0
BBX 18 23 2 0
BITMAP
018000
030000
020000
000000
000000
C00CC0
C00CC0
C00C40
C00C40
C00CC0
C00D80
C00F00
C00C00
C00C00
C00C00
C00C00
C00C00
C00C00
C00C00
601800
703800
3FF000
0FC000
ENDCHAR
STARTCHAR 1EE9
ENCODING 7913
SWIDTH 680 0
DWIDTH 17 0
BBX 14 18 2 0
BITMAP
0700
0600
0C00
0000
0000
C0CC
C0CC
C0C4
C0C4
C0C8
C0F0
C0C0
C0C0
C0C0
C1C0
E3C0
7EC0
3CC0
ENDCHAR
STARTCHAR 1EEA
ENCODING 7914
SWIDTH 840 0
DWIDTH 21 0
BBX 18 23 2 0
BITMAP
060000
030000
010000
000000
000000
C00CC0
C00CC0
C00C40
C00C40
C00CC0
C00D80
C00F00
C00C00
C00C00
C00C00
C00C00
C00C00
C00C00
C00C00
601800
703800
3FF000
0FC000
ENDCHAR
STARTCHAR 1EEB
ENCODING 7915
SWIDTH 680 0
DWIDTH 17 0
BBX 14 18 2 0
BITMAP
3800
1800
0C00
0000
0000
C0CC
C0CC
C0C4
C0C4
C0C8
C0F0
C0C0
C0C0
C0C0
C1C0
E3C0
7EC0
3CC0
ENDCHAR
STARTCHAR 1EEC
ENCODING 7916
SWIDTH 840 0
DWIDTH 21 0
BBX 18 23 2 0
BITMAP
078000
00C000
01C000
010000
000000
C00CC0
C00CC0
C00C40
C00C40
C00CC0
C00D80
C00F00
C00C00
C00C00
C00C00
C00C00
C00C00
C00C00
C00C00
601800
703800
3FF000
0FC000
ENDCHAR
STARTCHAR 1EED
ENCODING 7917
SWIDTH 680 0
DWIDTH 17 0
BBX 14 19 2 0
BITMAP
3C00
0600
0600
0C00
0000
0000
C0CC
C0CC
C0C4
C0C4
C0C8
C0F0
C0C0
C0C0
C0C0
C1C0
E3C0
7EC0
3CC0
ENDCHAR
STARTCHAR 1EEE
ENCODING 7918
SWIDTH 840 0
DWIDTH 21 0
BBX 18 23 2 0
BITMAP
0E6000
1FE000
19C000
000000
000000
C00CC0
C00CC0
C00C40
C00C40
C00CC0
C00D80
C00F00
C00C00
C00C00
C00C00
C00C00
C00C00
C00C00
C00C00
601800
703800
3FF000
0FC000
ENDCHAR
STARTCHAR 1EEF
ENCODING 7919
SWIDTH 680 0
DWIDTH 17 0
BBX 14 18 2 0
BITMAP
3980
7F80
6700
0000
0000
C0CC
C0CC
C0C4
C0C4
C0C8
C0F0
C0C0
C0C0
C0C0
C1C0
E3C0
7EC0
3CC0
ENDCHAR
STARTCHAR 1EF0
ENCODING 7920
SWIDTH 840 0
DWIDTH 21 0
BBX 18 22 2 -4
BITMAP
C00CC0
C00CC0
C00C40
C00C40
C00CC0
C00D80
C00F00
C00C00
C00C00
C00C00
C00C00
C00C00
C00C00
C00C00
601800
703800
3FF000
0FC000
000000
000000
030000
030000
ENDCHAR
STARTCHAR 1EF1
ENCODING 7921
SWIDTH 680 0
DWIDTH 17 0
BBX 14 17 2 -4
BITMAP
C0CC
C0CC
C0C4
C0C4
C0C8
C0F0
C0C0
C0C0
C0C0
C1C0
E3C0
7EC0
3CC0
0000
0000
0C00
0C00
ENDCHAR
STARTCHAR 1EF2
ENCODING 7922
SWIDTH 640 0
DWIDTH 16 0
BBX 16 23 0 0
BITMAP
0700
0300
0180
0000
0000
C007
600E
300C
381C
1C38
0C30
0E70
0660
03C0
03C0
0180
0180
0180
0180
0180
0180
0180
0180
ENDCHAR
STARTCHAR 1EF3
ENCODING 7923
SWIDTH 480 0
DWIDTH 12 0
BBX 11 23 1 -5
BITMAP
3800
1800
0C00
0000
0000
C060
C060
60C0
60C0
6180
3180
3180
3300
1B00
1E00
1E00
0E00
0C00
0C00
0C00
1800
7800
7000
ENDCHAR
STARTCHAR 1EF4
ENCODING 7924
SWIDTH 640 0
DWIDTH 16 0
BBX 16 22 0 -4
BITMAP
C007
600E
300C
381C
1C38
0C30
0E70
0660
03C0
03C0
0180
0180
0180
0180
0180
0180
0180
0180
0000
0000
0180
0180
ENDCHAR
STARTCHAR 1EF5
ENCODING 7925
SWIDTH 480 0
DWIDTH 12 0
BBX 11 18 1 -5
BITMAP
C060
C060
60C0
60C0
6180
3180
3180
3300
1B00
1E00
1E00
0E00
0C00
0C00
0C00
18C0
78C0
7000
ENDCHAR
STARTCHAR 1EF6
ENCODING 7926
SWIDTH 640 0
DWIDTH 16 0
BBX 16 23 0 0
BITMAP
0780
00C0
01C0
0100
0000
C007
600E
300C
381C
1C38
0C30
0E70
0660
03C0
03C0
0180
0180
0180
0180
0180
0180
0180
0180
ENDCHAR
STARTCHAR 1EF7
ENCODING 7927
SWIDTH 480 0
DWIDTH 12 0
BBX 11 24 1 -5
BITMAP
3C00
0600
0600
0C00
0000
0000
C060
C060
60C0
60C0
6180
3180
3180
3300
1B00
1E00
1E00
0E00
0C00
0C00
0C00
1800
7800
7000
ENDCHAR
STARTCHAR 1EF8
ENCODING 7928
SWIDTH 640 0
DWIDTH 16 0
BBX 16 23 0 0
BITMAP
0730
0FF0
0CE0
0000
0000
C007
600E
300C
381C
1C38
0C30
0E70
0660
03C0
03C0
0180
0180
0180
0180
0180
0180
0180
0180
ENDCHAR
STARTCHAR 1EF9
ENCODING 7929
SWIDTH 480 0
DWIDTH 12 0
BBX 11 23 1 -5
BITMAP
1CC0
3FC0
3380
0000
0000
C060
C060
60C0
60C0
6180
3180
3180
3300
1B00
1E00
1E00
0E00
0C00
0C00
0C00
1800
7800
7000
ENDCHAR
STARTCHAR 200C
ENCODING 8204
SWIDTH 0 0
DWIDTH 0 0
BBX 1 19 0 -3
BITMAP
80
80
80
80
80
80
80
80
80
80
80
80
80
80
80
80
80
80
80
ENDCHAR
STARTCHAR 200D
ENCODING 8205
SWIDTH 0 0
DWIDTH 0 0
BBX 5 21 -2 -3
BITMAP
88
D8
70
70
F8
A8
20
20
20
20
20
20
20
20
20
20
20
20
20
20
20
ENDCHAR
STARTCHAR 200E
ENCODING 8206
SWIDTH 0 0
DWIDTH 0 0
BBX 6 21 0 -3
BITMAP
20
30
18
FC
98
B0
A0
80
80
80
80
80
80
80
80
80
80
80
80
80
80
ENDCHAR
STARTCHAR 200F
ENCODING 8207
SWIDTH 0 0
DWIDTH 0 0
BBX 6 21 -3 -3
BITMAP
10
30
60
FC
64
34
14
04
04
04
04
04
04
04
04
04
04
04
04
04
04
ENDCHAR
STARTCHAR 2013
ENCODING 8211
SWIDTH 560 0
DWIDTH 14 0
BBX 14 2 0 6
BITMAP
FFFC
FFFC
ENDCHAR
STARTCHAR 2014
ENCODING 8212
SWIDTH 1000 0
DWIDTH 25 0
BBX 25 2 0 6
BITMAP
FFFFFF80
FFFFFF80
ENDCHAR
STARTCHAR 2015
ENCODING 8213
SWIDTH 1000 0
DWIDTH 25 0
BBX 23 2 1 6
BITMAP
FFFFFE
FFFFFE
ENDCHAR
STARTCHAR 2017
ENCODING 8215
SWIDTH 560 0
DWIDTH 14 0
BBX 14 6 0 -8
BITMAP
FFFC
FFFC
0000
0000
FFFC
FFFC
ENDCHAR
STARTCHAR 2018
ENCODING 8216
SWIDTH 240 0
DWIDTH 6 0
BBX 2 6 1 12
BITMAP
40
C0
80
80
C0
C0
ENDCHAR
STARTCHAR 2019
ENCODING 8217
SWIDTH 240 0
DWIDTH 6 0
BBX 2 6 1 12
BITMAP
C0
C0
40
40
C0
80
ENDCHAR
STARTCHAR 201A
ENCODING 8218
SWIDTH 240 0
DWIDTH 6 0
BBX 2 6 1 -4
BITMAP
C0
C0
40
40
C0
80
ENDCHAR
STARTCHAR 201B
ENCODING 8219
SWIDTH 240 0
DWIDTH 6 0
BBX 2 6 2 12
BITMAP
C0
C0
80
80
C0
40
ENDCHAR
STARTCHAR 201C
ENCODING 8220
SWIDTH 320 0
DWIDTH 8 0
BBX 6 6 1 12
BITMAP
44
CC
88
88
CC
CC
ENDCHAR
STARTCHAR 201D
ENCODING 8221
SWIDTH 320 0
DWIDTH 8 0
BBX 6 6 1 12
BITMAP
CC
CC
44
44
CC
88
ENDCHAR
STARTCHAR 201E
ENCODING 8222
SWIDTH 320 0
DWIDTH 8 0
BBX 6 6 1 -4
BITMAP
CC
CC
44
44
CC
88
ENDCHAR
STARTCHAR 2020
ENCODING 8224
SWIDTH 560 0
DWIDTH 14 0
BBX 12 22 1 -4
BITMAP
0600
0600
0600
0600
0600
FFF0
FFF0
0600
0600
0600
0600
0600
0600
0600
0600
0600
0600
0600
0600
0600
0600
0600
ENDCHAR
STARTCHAR 2021
ENCODING 8225
SWIDTH 560 0
DWIDTH 14 0
BBX 12 22 1 -4
BITMAP
0600
0600
0600
0600
0600
FFF0
FFF0
0600
0600
0600
0600
0600
0600
0600
0600
FFF0
FFF0
0600
0600
0600
0600
0600
ENDCHAR
STARTCHAR 2022
ENCODING 8226
SWIDTH 360 0
DWIDTH 9 0
BBX 6 6 1 6
BITMAP
78
FC
FC
FC
FC
78
ENDCHAR
STARTCHAR 2026
ENCODING 8230
SWIDTH 1000 0
DWIDTH 25 0
BBX 18 2 3 0
BITMAP
C0C0C0
C0C0C0
ENDCHAR
STARTCHAR 202A
ENCODING 8234
SWIDTH 0 0
DWIDTH 0 0
BBX 6 18 0 -3
BITMAP
FC
80
80
80
80
80
80
80
80
80
80
80
80
80
80
80
80
80
ENDCHAR
STARTCHAR 202B
ENCODING 8235
SWIDTH 0 0
DWIDTH 0 0
BBX 6 18 -5 -3
BITMAP
FC
04
04
04
04
04
04
04
04
04
04
04
04
04
04
04
04
04
ENDCHAR
STARTCHAR 202C
ENCODING 8236
SWIDTH 0 0
DWIDTH 0 0
BBX 5 20 -2 -3
BITMAP
F8
F8
F8
F8
F8
20
20
20
20
20
20
20
20
20
20
20
20
20
20
20
ENDCHAR
STARTCHAR 202D
ENCODING 8237
SWIDTH 0 0
DWIDTH 0 0
BBX 5 21 -2 -3
BITMAP
F8
80
80
80
80
F8
20
20
20
20
20
20
20
20
20
20
20
20
20
20
20
ENDCHAR
STARTCHAR 202E
ENCODING 8238
SWIDTH 0 0
DWIDTH 0 0
BBX 5 21 -2 -3
BITMAP
F8
08
08
08
08
F8
20
20
20
20
20
20
20
20
20
20
20
20
20
20
20
ENDCHAR
STARTCHAR 2030
ENCODING 8240
SWIDTH 1040 0
DWIDTH 26 0
BBX 24 18 1 0
BITMAP
383000
7C3000
C67000
C66000
C66000
C6C000
C6C000
7DC000
398000
019C1C
033E3E
036363
036363
066363
066363
0E6363
0C3E3E
0C1C1C
ENDCHAR
STARTCHAR 2032
ENCODING 8242
SWIDTH 200 0
DWIDTH 5 0
BBX 3 6 2 12
BITMAP
E0
C0
C0
C0
80
80
ENDCHAR
STARTCHAR 2033
ENCODING 8243
SWIDTH 360 0
DWIDTH 9 0
BBX 7 6 1 12
BITMAP
EE
CC
CC
CC
88
88
ENDCHAR
STARTCHAR 2039
ENCODING 8249
SWIDTH 320 0
DWIDTH 8 0
BBX 5 11 1 1
BITMAP
18
30
30
60
60
C0
60
60
30
30
18
ENDCHAR
STARTCHAR 203A
ENCODING 8250
SWIDTH 320 0
DWIDTH 8 0
BBX 5 11 2 1
BITMAP
C0
60
60
30
30
18
30
30
60
60
C0
ENDCHAR
STARTCHAR 203C
ENCODING 8252
SWIDTH 520 0
DWIDTH 13 0
BBX 7 18 3 0
BITMAP
C6
C6
C6
C6
C6
C6
C6
C6
C6
C6
C6
C6
C6
C6
00
00
C6
C6
ENDCHAR
STARTCHAR 203E
ENCODING 8254
SWIDTH 320 0
DWIDTH 8 0
BBX 8 2 0 15
BITMAP
FF
FF
ENDCHAR
STARTCHAR 2044
ENCODING 8260
SWIDTH 160 0
DWIDTH 4 0
BBX 15 19 -6 -1
BITMAP
0006
000C
000C
0018
0030
0070
0060
00C0
01C0
0180
0300
0700
0600
0C00
1800
3800
3000
6000
E000
ENDCHAR
STARTCHAR 206A
ENCODING 8298
SWIDTH 0 0
DWIDTH 0 0
BBX 5 21 -2 -3
BITMAP
F8
20
20
20
20
F8
20
20
20
20
20
20
20
20
20
20
20
20
20
20
20
ENDCHAR
STARTCHAR 206B
ENCODING 8299
SWIDTH 0 0
DWIDTH 0 0
BBX 5 21 -2 -3
BITMAP
F8
88
88
88
88
F8
20
20
20
20
20
20
20
20
20
20
20
20
20
20
20
ENDCHAR
STARTCHAR 206C
ENCODING 8300
SWIDTH 0 0
DWIDTH 0 0
BBX 5 20 -2 -3
BITMAP
F8
70
70
20
20
20
20
20
20
20
20
20
20
20
20
20
20
20
20
20
ENDCHAR
STARTCHAR 206D
ENCODING 8301
SWIDTH 0 0
DWIDTH 0 0
BBX 5 20 -2 -3
BITMAP
20
20
70
70
F8
20
20
20
20
20
20
20
20
20
20
20
20
20
20
20
ENDCHAR
STARTCHAR 206E
ENCODING 8302
SWIDTH 0 0
DWIDTH 0 0
BBX 5 20 -2 -3
BITMAP
20
50
88
50
20
20
20
20
20
20
20
20
20
20
20
20
20
20
20
20
ENDCHAR
STARTCHAR 206F
ENCODING 8303
SWIDTH 0 0
DWIDTH 0 0
BBX 5 21 -2 -3
BITMAP
E0
20
20
20
20
F8
20
20
20
20
20
20
20
20
20
20
20
20
20
20
20
ENDCHAR
STARTCHAR 207F
ENCODING 8319
SWIDTH 360 0
DWIDTH 9 0
BBX 7 9 1 6
BITMAP
DC
FE
E6
C6
C6
C6
C6
C6
C6
ENDCHAR
STARTCHAR 20A3
ENCODING 8355
SWIDTH 560 0
DWIDTH 14 0
BBX 13 18 0 0
BITMAP
3FF8
3FF8
3000
3000
3000
3000
3000
3000
3FF0
3FF0
3000
3000
3000
FF80
FF80
3000
3000
3000
ENDCHAR
STARTCHAR 20A4
ENCODING 8356
SWIDTH 560 0
DWIDTH 14 0
BBX 13 18 0 0
BITMAP
0780
1FE0
1860
3070
3030
3000
3000
FF00
FF00
1800
1800
FF00
FF00
1800
3000
7E10
FFF8
C1F0
ENDCHAR
STARTCHAR 20A7
ENCODING 8359
SWIDTH 1080 0
DWIDTH 27 0
BBX 26 18 1 0
BITMAP
FF000000
FFCC0000
C1CC0000
C0EC0000
C06C0000
C07FFE00
C07FFF00
C0EDC380
C1CD8180
FFCDC000
FF0CFC00
C00C7F80
C00C07C0
C00C00C0
C00D80C0
C00CC1C0
C00FFF80
C0073E00
ENDCHAR
STARTCHAR 20AA
ENCODING 8362
SWIDTH 840 0
DWIDTH 21 0
BBX 17 13 2 0
BITMAP
FFE180
FFF180
C03180
C03180
C63180
C63180
C63180
C63180
C63180
C60180
C60180
C7FF80
C7FF00
ENDCHAR
STARTCHAR 20AB
ENCODING 8363
SWIDTH 520 0
DWIDTH 13 0
BBX 9 14 2 4
BITMAP
0300
0780
0300
3B00
6700
C300
C300
C300
C300
C300
6700
3B00
0000
FF80
ENDCHAR
STARTCHAR 20AC
ENCODING 8364
SWIDTH 560 0
DWIDTH 14 0
BBX 14 18 -1 0
BITMAP
01F8
07FC
0E04
1C00
1800
3000
FFF8
FFF8
3000
3000
FFF0
FFF0
3000
1800
1C00
0E04
07FC
01F8
ENDCHAR
STARTCHAR 2105
ENCODING 8453
SWIDTH 880 0
DWIDTH 22 0
BBX 20 19 1 -1
BITMAP
3C0600
660600
C30C00
C00C00
C01800
C01800
C03000
C33000
6667C0
3CEC60
00D830
01D830
019830
039830
031830
071830
060C60
0C07C0
0C0000
ENDCHAR
STARTCHAR 2113
ENCODING 8467
SWIDTH 320 0
DWIDTH 8 0
BBX 8 18 0 0
BITMAP
1E
3F
33
33
33
36
36
3C
38
30
30
70
F0
30
30
31
3F
1E
ENDCHAR
STARTCHAR 2116
ENCODING 8470
SWIDTH 1080 0
DWIDTH 27 0
BBX 24 18 2 0
BITMAP
C01800
E01800
E01800
F01800
F8187C
D818FE
CC19C6
CE1983
C61983
C31983
C39983
C199C7
C0D8FE
C0F87C
C07800
C039FF
C039FF
C01800
ENDCHAR
STARTCHAR 2122
ENCODING 8482
SWIDTH 1000 0
DWIDTH 25 0
BBX 21 10 3 8
BITMAP
FF7038
FF7878
187878
186858
186CD8
186CD8
186498
186798
186798
186318
ENDCHAR
STARTCHAR 2126
ENCODING 8486
SWIDTH 760 0
DWIDTH 19 0
BBX 16 18 2 0
BITMAP
07E0
1FF8
381C
700E
6006
E007
C003
C003
C003
C003
C003
C007
6006
600E
301C
1C38
FE7F
FE7F
ENDCHAR
STARTCHAR 212E
ENCODING 8494
SWIDTH 600 0
DWIDTH 15 0
BBX 13 13 1 0
BITMAP
0F80
38E0
6030
6030
E038
E038
FFF8
E000
E000
6000
6010
3860
0FC0
ENDCHAR
STARTCHAR 2153
ENCODING 8531
SWIDTH 840 0
DWIDTH 21 0
BBX 20 18 1 0
BITMAP
1800C0
780180
F80300
980700
180E00
180C00
181800
183000
187000
00E3E0
00C730
018630
030030
0700C0
0E0030
0C0030
180630
3003E0
ENDCHAR
STARTCHAR 2154
ENCODING 8532
SWIDTH 840 0
DWIDTH 21 0
BBX 21 18 0 0
BITMAP
7E0060
C300C0
0301C0
070380
0E0300
1C0600
380C00
701C00
FF3800
0031F0
006398
00C318
018018
038060
070018
060018
0C0318
1801F0
ENDCHAR
STARTCHAR 215B
ENCODING 8539
SWIDTH 840 0
DWIDTH 21 0
BBX 18 19 2 0
BITMAP
180300
780700
F80600
980C00
181800
183800
183000
186000
18E000
00C000
018F80
0318C0
0718C0
0618C0
0C0700
1C18C0
1818C0
3018C0
600F80
ENDCHAR
STARTCHAR 215C
ENCODING 8540
SWIDTH 840 0
DWIDTH 21 0
BBX 20 19 0 0
BITMAP
7C00C0
C601C0
060180
060300
180600
060E00
060C00
C61800
7C3800
003000
0063E0
00C630
01C630
018630
0301C0
070630
060630
0C0630
1803E0
ENDCHAR
STARTCHAR 215D
ENCODING 8541
SWIDTH 840 0
DWIDTH 21 0
BBX 19 19 1 0
BITMAP
7E0180
600380
C00300
FC0600
CE0C00
061C00
061800
CC3000
787000
006000
00C7C0
018C60
038C60
030C60
060380
0E0C60
0C0C60
180C60
3007C0
ENDCHAR
STARTCHAR 215E
ENCODING 8542
SWIDTH 840 0
DWIDTH 21 0
BBX 20 19 0 0
BITMAP
FE00C0
FE0180
040380
080300
180600
180C00
301C00
301800
303000
007000
0063E0
00C630
018630
038630
0301C0
060630
0E0630
0C0630
1803E0
ENDCHAR
STARTCHAR 2190
ENCODING 8592
SWIDTH 1000 0
DWIDTH 25 0
BBX 23 9 1 2
BITMAP
040000
080000
180000
300000
FFFFFE
700000
300000
180000
0C0000
ENDCHAR
STARTCHAR 2191
ENCODING 8593
SWIDTH 520 0
DWIDTH 13 0
BBX 9 21 2 -5
BITMAP
1800
1C00
3C00
6E00
CB00
0880
0800
0800
0800
0800
0800
0800
0800
0800
0800
0800
0800
0800
0800
0800
0800
ENDCHAR
STARTCHAR 2192
ENCODING 8594
SWIDTH 1000 0
DWIDTH 25 0
BBX 23 9 1 2
BITMAP
000040
000020
000030
000018
FFFFFE
00001C
000038
000020
000060
ENDCHAR
STARTCHAR 2193
ENCODING 8595
SWIDTH 520 0
DWIDTH 13 0
BBX 9 21 2 -5
BITMAP
0800
0800
0800
0800
0800
0800
0800
0800
0800
0800
0800
0800
0800
0800
0800
0880
CB00
6E00
3C00
1C00
0800
ENDCHAR
STARTCHAR 2194
ENCODING 8596
SWIDTH 1000 0
DWIDTH 25 0
BBX 23 9 1 2
BITMAP
040040
080020
180030
300018
FFFFFE
70001C
300038
180030
0C0060
ENDCHAR
STARTCHAR 2195
ENCODING 8597
SWIDTH 520 0
DWIDTH 13 0
BBX 9 23 2 -5
BITMAP
0800
1800
3C00
3E00
6B00
8980
0800
0800
0800
0800
0800
0800
0800
0800
0800
0800
0800
0880
CB00
6E00
3C00
1C00
0800
ENDCHAR
STARTCHAR 21A8
ENCODING 8616
SWIDTH 520 0
DWIDTH 13 0
BBX 9 26 2 -8
BITMAP
0800
1800
3C00
3E00
6B00
8980
0800
0800
0800
0800
0800
0800
0800
0800
0800
0800
0800
0880
CB00
6E00
3C00
1C00
0800
0000
FF80
FF80
ENDCHAR
STARTCHAR 2202
ENCODING 8706
SWIDTH 480 0
DWIDTH 12 0
BBX 11 18 1 0
BITMAP
0380
07C0
0CC0
1860
0860
0060
0060
0FE0
1E60
7060
6060
E0C0
C0C0
C1C0
C180
E300
7E00
3C00
ENDCHAR
STARTCHAR 2206
ENCODING 8710
SWIDTH 640 0
DWIDTH 16 0
BBX 15 16 0 0
BITMAP
0080
0180
0180
02C0
02C0
04E0
0460
0860
0830
1030
1038
2018
2018
400C
400C
FFFE
ENDCHAR
STARTCHAR 220F
ENCODING 8719
SWIDTH 840 0
DWIDTH 21 0
BBX 17 23 2 -5
BITMAP
FFFF80
FFFF80
C00180
C00180
C00180
C00180
C00180
C00180
C00180
C00180
C00180
C00180
C00180
C00180
C00180
C00180
C00180
C00180
C00180
C00180
C00180
C00180
C00180
ENDCHAR
STARTCHAR 2211
ENCODING 8721
SWIDTH 720 0
DWIDTH 18 0
BBX 16 23 1 -5
BITMAP
FFFF
FFFF
E000
7000
3800
1800
0C00
0600
0300
0380
01C0
00C0
0180
0380
0700
0600
0C00
1800
3000
7000
E000
FFFF
FFFF
ENDCHAR
STARTCHAR 2212
ENCODING 8722
SWIDTH 600 0
DWIDTH 15 0
BBX 12 2 1 8
BITMAP
FFF0
FFF0
ENDCHAR
STARTCHAR 2215
ENCODING 8725
SWIDTH 160 0
DWIDTH 4 0
BBX 15 19 -6 -1
BITMAP
0006
000C
000C
0018
0030
0070
0060
00C0
01C0
0180
0300
0700
0600
0C00
1800
3800
3000
6000
E000
ENDCHAR
STARTCHAR 2219
ENCODING 8729
SWIDTH 280 0
DWIDTH 7 0
BBX 2 2 2 8
BITMAP
C0
C0
ENDCHAR
STARTCHAR 221A
ENCODING 8730
SWIDTH 560 0
DWIDTH 14 0
BBX 13 23 1 0
BITMAP
0008
0008
0008
0010
0010
0010
0010
0010
0010
0020
1020
7820
9820
1C20
0C20
0620
0740
0340
03C0
01C0
01C0
00C0
0080
ENDCHAR
STARTCHAR 221E
ENCODING 8734
SWIDTH 720 0
DWIDTH 18 0
BBX 14 8 2 5
BITMAP
0070
79F8
FD9C
C70C
C70C
FD9C
79F8
0070
ENDCHAR
STARTCHAR 221F
ENCODING 8735
SWIDTH 960 0
DWIDTH 24 0
BBX 16 16 4 0
BITMAP
C000
C000
C000
C000
C000
C000
C000
C000
C000
C000
C000
C000
C000
C000
C000
FFFF
ENDCHAR
STARTCHAR 2229
ENCODING 8745
SWIDTH 720 0
DWIDTH 18 0
BBX 14 18 2 0
BITMAP
0FC0
1FE0
3870
7018
E018
C00C
C00C
C00C
C00C
C00C
C00C
C00C
C00C
C00C
C00C
C00C
C00C
C00C
ENDCHAR
STARTCHAR 222B
ENCODING 8747
SWIDTH 280 0
DWIDTH 7 0
BBX 7 25 0 -3
BITMAP
0E
0E
10
10
10
10
10
10
10
10
10
10
10
10
10
10
10
10
10
10
10
10
D0
E0
E0
ENDCHAR
STARTCHAR 2248
ENCODING 8776
SWIDTH 560 0
DWIDTH 14 0
BBX 12 7 1 6
BITMAP
7C10
FFF0
83E0
0000
7C10
FFF0
83E0
ENDCHAR
STARTCHAR 2260
ENCODING 8800
SWIDTH 560 0
DWIDTH 14 0
BBX 12 18 1 0
BITMAP
0060
00C0
00C0
0180
0180
FFF0
FFF0
0300
0600
0600
0C00
FFF0
FFF0
1800
1800
3000
3000
6000
ENDCHAR
STARTCHAR 2261
ENCODING 8801
SWIDTH 600 0
DWIDTH 15 0
BBX 12 14 1 2
BITMAP
FFF0
FFF0
0000
0000
0000
0000
FFF0
FFF0
0000
0000
0000
0000
FFF0
FFF0
ENDCHAR
STARTCHAR 2264
ENCODING 8804
SWIDTH 560 0
DWIDTH 14 0
BBX 12 14 1 2
BITMAP
0010
00F0
03E0
0F00
7800
C000
7800
0F00
03E0
00F0
0010
0000
FFF0
FFF0
ENDCHAR
STARTCHAR 2265
ENCODING 8805
SWIDTH 560 0
DWIDTH 14 0
BBX 12 14 1 2
BITMAP
8000
F000
7C00
0F00
01E0
0030
01E0
0F00
7C00
F000
8000
0000
FFF0
FFF0
ENDCHAR
STARTCHAR 2302
ENCODING 8962
SWIDTH 600 0
DWIDTH 15 0
BBX 11 14 2 0
BITMAP
0400
0E00
1B00
3180
60C0
4040
8020
8020
8020
8020
8020
8020
8020
FFE0
ENDCHAR
STARTCHAR 2310
ENCODING 8976
SWIDTH 600 0
DWIDTH 15 0
BBX 12 7 1 5
BITMAP
FFF0
FFF0
C000
C000
C000
C000
C000
ENDCHAR
STARTCHAR 2320
ENCODING 8992
SWIDTH 600 0
DWIDTH 15 0
BBX 5 27 7 -6
BITMAP
78
D8
80
80
80
80
80
80
80
80
80
80
80
80
80
80
80
80
80
80
80
80
80
80
80
80
80
ENDCHAR
STARTCHAR 2321
ENCODING 8993
SWIDTH 600 0
DWIDTH 15 0
BBX 5 27 3 -6
BITMAP
08
08
08
08
08
08
08
08
08
08
08
08
08
08
08
08
08
08
08
08
08
08
08
08
08
C8
F0
ENDCHAR
STARTCHAR 2500
ENCODING 9472
SWIDTH 720 0
DWIDTH 18 0
BBX 18 2 0 7
BITMAP
FFFFC0
FFFFC0
ENDCHAR
STARTCHAR 2502
ENCODING 9474
SWIDTH 640 0
DWIDTH 16 0
BBX 2 31 6 -8
BITMAP
C0
C0
C0
C0
C0
C0
C0
C0
C0
C0
C0
C0
C0
C0
C0
C0
C0
C0
C0
C0
C0
C0
C0
C0
C0
C0
C0
C0
C0
C0
C0
ENDCHAR
STARTCHAR 250C
ENCODING 9484
SWIDTH 720 0
DWIDTH 18 0
BBX 10 17 8 -8
BITMAP
FFC0
FFC0
C000
C000
C000
C000
C000
C000
C000
C000
C000
C000
C000
C000
C000
C000
C000
ENDCHAR
STARTCHAR 2510
ENCODING 9488
SWIDTH 720 0
DWIDTH 18 0
BBX 10 17 0 -8
BITMAP
FFC0
FFC0
00C0
00C0
00C0
00C0
00C0
00C0
00C0
00C0
00C0
00C0
00C0
00C0
00C0
00C0
00C0
ENDCHAR
STARTCHAR 2514
ENCODING 9492
SWIDTH 720 0
DWIDTH 18 0
BBX 10 16 8 7
BITMAP
C000
C000
C000
C000
C000
C000
C000
C000
C000
C000
C000
C000
C000
C000
FFC0
FFC0
ENDCHAR
STARTCHAR 2518
ENCODING 9496
SWIDTH 720 0
DWIDTH 18 0
BBX 10 16 0 7
BITMAP
00C0
00C0
00C0
00C0
00C0
00C0
00C0
00C0
00C0
00C0
00C0
00C0
00C0
00C0
FFC0
FFC0
ENDCHAR
STARTCHAR 251C
ENCODING 9500
SWIDTH 720 0
DWIDTH 18 0
BBX 10 31 8 -8
BITMAP
C000
C000
C000
C000
C000
C000
C000
C000
C000
C000
C000
C000
C000
C000
FFC0
FFC0
C000
C000
C000
C000
C000
C000
C000
C000
C000
C000
C000
C000
C000
C000
C000
ENDCHAR
STARTCHAR 2524
ENCODING 9508
SWIDTH 720 0
DWIDTH 18 0
BBX 10 31 0 -8
BITMAP
00C0
00C0
00C0
00C0
00C0
00C0
00C0
00C0
00C0
00C0
00C0
00C0
00C0
00C0
FFC0
FFC0
00C0
00C0
00C0
00C0
00C0
00C0
00C0
00C0
00C0
00C0
00C0
00C0
00C0
00C0
00C0
ENDCHAR
STARTCHAR 252C
ENCODING 9516
SWIDTH 720 0
DWIDTH 18 0
BBX 18 17 0 -8
BITMAP
FFFFC0
FFFFC0
00C000
00C000
00C000
00C000
00C000
00C000
00C000
00C000
00C000
00C000
00C000
00C000
00C000
00C000
00C000
ENDCHAR
STARTCHAR 2534
ENCODING 9524
SWIDTH 720 0
DWIDTH 18 0
BBX 18 16 0 7
BITMAP
00C000
00C000
00C000
00C000
00C000
00C000
00C000
00C000
00C000
00C000
00C000
00C000
00C000
00C000
FFFFC0
FFFFC0
ENDCHAR
STARTCHAR 253C
ENCODING 9532
SWIDTH 720 0
DWIDTH 18 0
BBX 18 31 0 -8
BITMAP
00C000
00C000
00C000
00C000
00C000
00C000
00C000
00C000
00C000
00C000
00C000
00C000
00C000
00C000
FFFFC0
FFFFC0
00C000
00C000
00C000
00C000
00C000
00C000
00C000
00C000
00C000
00C000
00C000
00C000
00C000
00C000
00C000
ENDCHAR
STARTCHAR 2550
ENCODING 9552
SWIDTH 720 0
DWIDTH 18 0
BBX 18 7 0 4
BITMAP
FFFFC0
FFFFC0
000000
000000
000000
FFFFC0
FFFFC0
ENDCHAR
STARTCHAR 2551
ENCODING 9553
SWIDTH 720 0
DWIDTH 18 0
BBX 7 31 5 -8
BITMAP
E6
E6
E6
E6
E6
E6
E6
E6
E6
E6
E6
E6
E6
E6
E6
E6
E6
E6
E6
E6
E6
E6
E6
E6
E6
E6
E6
E6
E6
E6
E6
ENDCHAR
STARTCHAR 2552
ENCODING 9554
SWIDTH 720 0
DWIDTH 18 0
BBX 10 19 8 -8
BITMAP
FFC0
FFC0
C000
C000
C000
FFC0
FFC0
C000
C000
C000
C000
C000
C000
C000
C000
C000
C000
C000
C000
ENDCHAR
STARTCHAR 2553
ENCODING 9555
SWIDTH 720 0
DWIDTH 18 0
BBX 13 17 5 -8
BITMAP
FFF8
FFF8
FE00
E600
E600
E600
E600
E600
E600
E600
E600
E600
E600
E600
E600
E600
E600
ENDCHAR
STARTCHAR 2554
ENCODING 9556
SWIDTH 720 0
DWIDTH 18 0
BBX 13 19 5 -8
BITMAP
FFF8
FFF8
E000
E000
E000
E7F8
E7F8
E600
E600
E600
E600
E600
E600
E600
E600
E600
E600
E600
E600
ENDCHAR
STARTCHAR 2555
ENCODING 9557
SWIDTH 720 0
DWIDTH 18 0
BBX 10 19 0 -8
BITMAP
FFC0
FFC0
00C0
00C0
00C0
FFC0
FFC0
00C0
00C0
00C0
00C0
00C0
00C0
00C0
00C0
00C0
00C0
00C0
00C0
ENDCHAR
STARTCHAR 2556
ENCODING 9558
SWIDTH 720 0
DWIDTH 18 0
BBX 12 17 0 -8
BITMAP
FFF0
FFF0
0730
0730
0730
0730
0730
0730
0730
0730
0730
0730
0730
0730
0730
0730
0730
ENDCHAR
STARTCHAR 2557
ENCODING 9559
SWIDTH 720 0
DWIDTH 18 0
BBX 12 19 0 -8
BITMAP
FFF0
FFF0
0030
0030
0030
FF30
FF30
0730
0730
0730
0730
0730
0730
0730
0730
0730
0730
0730
0730
ENDCHAR
STARTCHAR 2558
ENCODING 9560
SWIDTH 720 0
DWIDTH 18 0
BBX 10 19 8 4
BITMAP
C000
C000
C000
C000
C000
C000
C000
C000
C000
C000
C000
C000
FFC0
FFC0
C000
C000
C000
FFC0
FFC0
ENDCHAR
STARTCHAR 2559
ENCODING 9561
SWIDTH 720 0
DWIDTH 18 0
BBX 13 16 5 7
BITMAP
E600
E600
E600
E600
E600
E600
E600
E600
E600
E600
E600
E600
E600
E600
FFF8
FFF8
ENDCHAR
STARTCHAR 255A
ENCODING 9562
SWIDTH 720 0
DWIDTH 18 0
BBX 13 19 5 4
BITMAP
E600
E600
E600
E600
E600
E600
E600
E600
E600
E600
E600
E600
E7F8
E7F8
E000
E000
E000
FFF8
FFF8
ENDCHAR
STARTCHAR 255B
ENCODING 9563
SWIDTH 720 0
DWIDTH 18 0
BBX 10 19 0 4
BITMAP
00C0
00C0
00C0
00C0
00C0
00C0
00C0
00C0
00C0
00C0
00C0
00C0
FFC0
FFC0
00C0
00C0
00C0
FFC0
FFC0
ENDCHAR
STARTCHAR 255C
ENCODING 9564
SWIDTH 720 0
DWIDTH 18 0
BBX 12 16 0 7
BITMAP
0730
0730
0730
0730
0730
0730
0730
0730
0730
0730
0730
0730
0730
0730
FFF0
FFF0
ENDCHAR
STARTCHAR 255D
ENCODING 9565
SWIDTH 720 0
DWIDTH 18 0
BBX 12 19 0 4
BITMAP
0730
0730
0730
0730
0730
0730
0730
0730
0730
0730
0730
0730
FF30
FF30
0030
0030
0030
FFF0
FFF0
ENDCHAR
STARTCHAR 255E
ENCODING 9566
SWIDTH 720 0
DWIDTH 18 0
BBX 10 31 8 -8
BITMAP
C000
C000
C000
C000
C000
C000
C000
C000
C000
C000
C000
C000
FFC0
FFC0
C000
C000
C000
FFC0
FFC0
C000
C000
C000
C000
C000
C000
C000
C000
C000
C000
C000
C000
ENDCHAR
STARTCHAR 255F
ENCODING 9567
SWIDTH 720 0
DWIDTH 18 0
BBX 13 31 5 -8
BITMAP
E600
E600
E600
E600
E600
E600
E600
E600
E600
E600
E600
E600
E600
E600
E7F8
E7F8
E600
E600
E600
E600
E600
E600
E600
E600
E600
E600
E600
E600
E600
E600
E600
ENDCHAR
STARTCHAR 2560
ENCODING 9568
SWIDTH 720 0
DWIDTH 18 0
BBX 13 31 5 -8
BITMAP
E600
E600
E600
E600
E600
E600
E600
E600
E600
E600
E600
E600
E7F8
E7F8
E000
E000
E000
E7F8
E7F8
E600
E600
E600
E600
E600
E600
E600
E600
E600
E600
E600
E600
ENDCHAR
STARTCHAR 2561
ENCODING 9569
SWIDTH 720 0
DWIDTH 18 0
BBX 10 31 0 -8
BITMAP
00C0
00C0
00C0
00C0
00C0
00C0
00C0
00C0
00C0
00C0
00C0
00C0
FFC0
FFC0
00C0
00C0
00C0
FFC0
FFC0
00C0
00C0
00C0
00C0
00C0
00C0
00C0
00C0
00C0
00C0
00C0
00C0
ENDCHAR
STARTCHAR 2562
ENCODING 9570
SWIDTH 720 0
DWIDTH 18 0
BBX 12 31 0 -8
BITMAP
0730
0730
0730
0730
0730
0730
0730
0730
0730
0730
0730
0730
0730
0730
FF30
FF30
0730
0730
0730
0730
0730
0730
0730
0730
0730
0730
0730
0730
0730
0730
0730
ENDCHAR
STARTCHAR 2563
ENCODING 9571
SWIDTH 720 0
DWIDTH 18 0
BBX 12 31 0 -8
BITMAP
0730
0730
0730
0730
0730
0730
0730
0730
0730
0730
0730
0730
FF30
FF30
0030
0030
0030
FF30
FF30
0730
0730
0730
0730
0730
0730
0730
0730
0730
0730
0730
0730
ENDCHAR
STARTCHAR 2564
ENCODING 9572
SWIDTH 720 0
DWIDTH 18 0
BBX 18 19 0 -8
BITMAP
FFFFC0
FFFFC0
000000
000000
000000
FFFFC0
FFFFC0
00C000
00C000
00C000
00C000
00C000
00C000
00C000
00C000
00C000
00C000
00C000
00C000
ENDCHAR
STARTCHAR 2565
ENCODING 9573
SWIDTH 720 0
DWIDTH 18 0
BBX 18 17 0 -8
BITMAP
FFFFC0
FFFFC0
07F000
073000
073000
073000
073000
073000
073000
073000
073000
073000
073000
073000
073000
073000
073000
ENDCHAR
STARTCHAR 2566
ENCODING 9574
SWIDTH 720 0
DWIDTH 18 0
BBX 18 19 0 -8
BITMAP
FFFFC0
FFFFC0
000000
000000
000000
FF3FC0
FF3FC0
073000
073000
073000
073000
073000
073000
073000
073000
073000
073000
073000
073000
ENDCHAR
STARTCHAR 2567
ENCODING 9575
SWIDTH 720 0
DWIDTH 18 0
BBX 18 19 0 4
BITMAP
00C000
00C000
00C000
00C000
00C000
00C000
00C000
00C000
00C000
00C000
00C000
00C000
FFFFC0
FFFFC0
000000
000000
000000
FFFFC0
FFFFC0
ENDCHAR
STARTCHAR 2568
ENCODING 9576
SWIDTH 720 0
DWIDTH 18 0
BBX 18 16 0 7
BITMAP
073000
073000
073000
073000
073000
073000
073000
073000
073000
073000
073000
073000
073000
073000
FFFFC0
FFFFC0
ENDCHAR
STARTCHAR 2569
ENCODING 9577
SWIDTH 720 0
DWIDTH 18 0
BBX 18 19 0 4
BITMAP
073000
073000
073000
073000
073000
073000
073000
073000
073000
073000
073000
073000
FF3FC0
FF3FC0
000000
000000
000000
FFFFC0
FFFFC0
ENDCHAR
STARTCHAR 256A
ENCODING 9578
SWIDTH 720 0
DWIDTH 18 0
BBX 18 31 0 -8
BITMAP
00C000
00C000
00C000
00C000
00C000
00C000
00C000
00C000
00C000
00C000
00C000
00C000
FFFFC0
FFFFC0
00C000
00C000
00C000
FFFFC0
FFFFC0
00C000
00C000
00C000
00C000
00C000
00C000
00C000
00C000
00C000
00C000
00C000
00C000
ENDCHAR
STARTCHAR 256B
ENCODING 9579
SWIDTH 720 0
DWIDTH 18 0
BBX 18 31 0 -8
BITMAP
073000
073000
073000
073000
073000
073000
073000
073000
073000
073000
073000
073000
073000
073000
FFFFC0
FFFFC0
073000
073000
073000
073000
073000
073000
073000
073000
073000
073000
073000
073000
073000
073000
073000
ENDCHAR
STARTCHAR 256C
ENCODING 9580
SWIDTH 720 0
DWIDTH 18 0
BBX 18 31 0 -8
BITMAP
073000
073000
073000
073000
073000
073000
073000
073000
073000
073000
073000
073000
FF3FC0
FF3FC0
000000
000000
000000
FF3FC0
FF3FC0
073000
073000
073000
073000
073000
073000
073000
073000
073000
073000
073000
073000
ENDCHAR
STARTCHAR 2580
ENCODING 9600
SWIDTH 720 0
DWIDTH 18 0
BBX 18 15 0 8
BITMAP
FFFFC0
FFFFC0
FFFFC0
FFFFC0
FFFFC0
FFFFC0
FFFFC0
FFFFC0
FFFFC0
FFFFC0
FFFFC0
FFFFC0
FFFFC0
FFFFC0
FFFFC0
ENDCHAR
STARTCHAR 2584
ENCODING 9604
SWIDTH 720 0
DWIDTH 18 0
BBX 18 16 0 -8
BITMAP
FFFFC0
FFFFC0
FFFFC0
FFFFC0
FFFFC0
FFFFC0
FFFFC0
FFFFC0
FFFFC0
FFFFC0
FFFFC0
FFFFC0
FFFFC0
FFFFC0
FFFFC0
FFFFC0
ENDCHAR
STARTCHAR 2588
ENCODING 9608
SWIDTH 720 0
DWIDTH 18 0
BBX 18 31 0 -8
BITMAP
FFFFC0
FFFFC0
FFFFC0
FFFFC0
FFFFC0
FFFFC0
FFFFC0
FFFFC0
FFFFC0
FFFFC0
FFFFC0
FFFFC0
FFFFC0
FFFFC0
FFFFC0
FFFFC0
FFFFC0
FFFFC0
FFFFC0
FFFFC0
FFFFC0
FFFFC0
FFFFC0
FFFFC0
FFFFC0
FFFFC0
FFFFC0
FFFFC0
FFFFC0
FFFFC0
FFFFC0
ENDCHAR
STARTCHAR 258C
ENCODING 9612
SWIDTH 720 0
DWIDTH 18 0
BBX 9 31 0 -8
BITMAP
FF80
FF80
FF80
FF80
FF80
FF80
FF80
FF80
FF80
FF80
FF80
FF80
FF80
FF80
FF80
FF80
FF80
FF80
FF80
FF80
FF80
FF80
FF80
FF80
FF80
FF80
FF80
FF80
FF80
FF80
FF80
ENDCHAR
STARTCHAR 2590
ENCODING 9616
SWIDTH 720 0
DWIDTH 18 0
BBX 9 31 9 -8
BITMAP
FF80
FF80
FF80
FF80
FF80
FF80
FF80
FF80
FF80
FF80
FF80
FF80
FF80
FF80
FF80
FF80
FF80
FF80
FF80
FF80
FF80
FF80
FF80
FF80
FF80
FF80
FF80
FF80
FF80
FF80
FF80
ENDCHAR
STARTCHAR 2591
ENCODING 9617
SWIDTH 720 0
DWIDTH 18 0
BBX 17 29 1 -6
BITMAP
C30C00
C30C00
000000
186180
186180
000000
C30C00
C30C00
000000
186180
186180
000000
C30C00
C30C00
000000
186180
186180
000000
C30C00
C30C00
000000
000000
186180
000000
000000
C30C00
000000
000000
186180
ENDCHAR
STARTCHAR 2592
ENCODING 9618
SWIDTH 720 0
DWIDTH 18 0
BBX 18 29 0 -6
BITMAP
6DB6C0
6DB6C0
000000
924900
924900
000000
6DB6C0
6DB6C0
000000
924900
924900
000000
6DB6C0
6DB6C0
000000
924900
924900
000000
6DB6C0
6DB6C0
000000
000000
924900
000000
000000
6DB6C0
000000
000000
924900
ENDCHAR
STARTCHAR 2593
ENCODING 9619
SWIDTH 720 0
DWIDTH 18 0
BBX 18 31 0 -8
BITMAP
249240
249240
FFFFC0
DB6D80
DB6D80
FFFFC0
249240
249240
FFFFC0
DB6D80
DB6D80
FFFFC0
249240
249240
FFFFC0
DB6D80
DB6D80
FFFFC0
E49240
249240
FFFFC0
FFFFC0
DB6D80
FFFFC0
FFFFC0
249240
FFFFC0
FFFFC0
DB6D80
FFFFC0
FFFFC0
ENDCHAR
STARTCHAR 25A0
ENCODING 9632
SWIDTH 600 0
DWIDTH 15 0
BBX 11 12 2 0
BITMAP
FFE0
FFE0
FFE0
FFE0
FFE0
FFE0
FFE0
FFE0
FFE0
FFE0
FFE0
FFE0
ENDCHAR
STARTCHAR 25A1
ENCODING 9633
SWIDTH 600 0
DWIDTH 15 0
BBX 11 12 2 0
BITMAP
FFE0
8020
8020
8020
8020
8020
8020
8020
8020
8020
8020
FFE0
ENDCHAR
STARTCHAR 25AA
ENCODING 9642
SWIDTH 360 0
DWIDTH 9 0
BBX 5 6 2 5
BITMAP
F8
F8
F8
F8
F8
F8
ENDCHAR
STARTCHAR 25AB
ENCODING 9643
SWIDTH 360 0
DWIDTH 9 0
BBX 5 6 2 5
BITMAP
F8
88
88
88
88
F8
ENDCHAR
STARTCHAR 25AC
ENCODING 9644
SWIDTH 1000 0
DWIDTH 25 0
BBX 25 5 0 4
BITMAP
FFFFFF80
FFFFFF80
FFFFFF80
FFFFFF80
FFFFFF80
ENDCHAR
STARTCHAR 25B2
ENCODING 9650
SWIDTH 1000 0
DWIDTH 25 0
BBX 17 17 4 0
BITMAP
008000
018000
01C000
03C000
03E000
07E000
07F000
0FF000
0FF800
1FF800
1FFC00
3FFC00
3FFE00
7FFE00
7FFF00
FFFF00
FFFF80
ENDCHAR
STARTCHAR 25BA
ENCODING 9658
SWIDTH 1000 0
DWIDTH 25 0
BBX 17 17 4 0
BITMAP
800000
E00000
F80000
FE0000
FF8000
FFE000
FFF800
FFFE00
FFFF80
FFFE00
FFF800
FFE000
FF8000
FE0000
F80000
E00000
800000
ENDCHAR
STARTCHAR 25BC
ENCODING 9660
SWIDTH 1000 0
DWIDTH 25 0
BBX 17 17 4 0
BITMAP
FFFF80
FFFF00
7FFF00
7FFE00
3FFE00
3FFC00
1FFC00
1FF800
0FF800
0FF000
07F000
07E000
03E000
03C000
01C000
018000
008000
ENDCHAR
STARTCHAR 25C4
ENCODING 9668
SWIDTH 1000 0
DWIDTH 25 0
BBX 17 17 4 0
BITMAP
000080
000380
000F80
003F80
00FF80
03FF80
0FFF80
3FFF80
FFFF80
7FFF80
1FFF80
07FF80
01FF80
007F80
001F80
000780
000180
ENDCHAR
STARTCHAR 25CA
ENCODING 9674
SWIDTH 480 0
DWIDTH 12 0
BBX 10 18 1 0
BITMAP
0C00
0C00
1200
1200
2100
2100
4080
4080
8040
8040
4080
4080
2100
2100
1200
1200
0C00
0C00
ENDCHAR
STARTCHAR 25CB
ENCODING 9675
SWIDTH 600 0
DWIDTH 15 0
BBX 11 10 2 2
BITMAP
1F80
60C0
4040
8020
8020
8020
8020
4040
60C0
1F00
ENDCHAR
STARTCHAR 25CF
ENCODING 9679
SWIDTH 600 0
DWIDTH 15 0
BBX 11 10 2 2
BITMAP
1F80
7FC0
7FC0
FFE0
FFE0
FFE0
FFE0
7FC0
7FC0
1F00
ENDCHAR
STARTCHAR 25D8
ENCODING 9688
SWIDTH 600 0
DWIDTH 15 0
BBX 12 12 2 0
BITMAP
FFF0
FFF0
FFF0
FFF0
F1F0
E0F0
E0F0
F1F0
FFF0
FFF0
FFF0
FFF0
ENDCHAR
STARTCHAR 25D9
ENCODING 9689
SWIDTH 600 0
DWIDTH 15 0
BBX 14 14 1 0
BITMAP
FFFC
FFFC
F03C
CF9C
DFDC
BFEC
BFEC
BFEC
BFEC
DFDC
EF9C
F07C
FFFC
FFFC
ENDCHAR
STARTCHAR 25E6
ENCODING 9702
SWIDTH 360 0
DWIDTH 9 0
BBX 6 6 1 5
BITMAP
78
44
84
84
44
38
ENDCHAR
STARTCHAR 263A
ENCODING 9786
SWIDTH 1040 0
DWIDTH 26 0
BBX 16 15 5 -1
BITMAP
07E0
1830
300C
6004
4002
8C32
8C32
8003
8003
8002
C822
47C6
210C
1818
0FF0
ENDCHAR
STARTCHAR 263B
ENCODING 9787
SWIDTH 1040 0
DWIDTH 26 0
BBX 16 15 5 -1
BITMAP
07E0
1FF8
3FFC
3FFE
7FFE
73CF
F3CF
FFFF
FFFF
7FFF
7BCE
7C1E
3F7C
1FF8
0FF0
ENDCHAR
STARTCHAR 263C
ENCODING 9788
SWIDTH 920 0
DWIDTH 23 0
BBX 23 23 0 -3
BITMAP
001000
001000
001000
101010
083820
04C640
030180
020080
040040
080040
080020
F8003E
080020
080040
040040
020080
030180
04C640
083820
101010
001000
001000
001000
ENDCHAR
STARTCHAR 2640
ENCODING 9792
SWIDTH 760 0
DWIDTH 19 0
BBX 13 23 3 -5
BITMAP
1FC0
2020
4010
8010
8008
8008
8008
8008
8010
4010
2020
18C0
0700
0200
0200
0200
0200
FFF0
0200
0200
0200
0200
0200
ENDCHAR
STARTCHAR 2642
ENCODING 9794
SWIDTH 760 0
DWIDTH 19 0
BBX 16 24 1 -4
BITMAP
0004
001E
006A
018A
000A
0011
0011
0021
0020
0040
0340
1CC0
2020
4010
4008
8008
8008
8008
8008
4008
4010
2020
1DC0
0200
ENDCHAR
STARTCHAR 2660
ENCODING 9824
SWIDTH 520 0
DWIDTH 13 0
BBX 12 14 1 0
BITMAP
0400
0600
0F00
1F80
3FC0
7FE0
FFE0
FFF0
FFF0
FDE0
24C0
0400
0E00
7FC0
ENDCHAR
STARTCHAR 2663
ENCODING 9827
SWIDTH 640 0
DWIDTH 16 0
BBX 15 15 1 0
BITMAP
0780
0FC0
0FC0
0FE0
0FC0
7FF8
FFFC
FFFE
FFFE
FEFE
FE7C
3110
0300
0780
3FF0
ENDCHAR
STARTCHAR 2665
ENCODING 9829
SWIDTH 600 0
DWIDTH 15 0
BBX 13 15 1 0
BITMAP
78F0
FDF8
FDF8
FFF8
FFF8
FFF0
7FF0
3FE0
1FC0
1FC0
0F80
0700
0700
0200
0200
ENDCHAR
STARTCHAR 2666
ENCODING 9830
SWIDTH 520 0
DWIDTH 13 0
BBX 11 15 1 0
BITMAP
0400
0C00
0E00
1F00
3F00
7F80
7FC0
FFE0
FFC0
7F80
3F80
1F00
0E00
0C00
0400
ENDCHAR
STARTCHAR 266A
ENCODING 9834
SWIDTH 520 0
DWIDTH 13 0
BBX 12 17 0 0
BITMAP
0380
03E0
03F0
0270
0210
0210
0200
0200
0200
0200
0200
0200
7E00
7E00
FE00
7E00
7C00
ENDCHAR
STARTCHAR 266B
ENCODING 9835
SWIDTH 760 0
DWIDTH 19 0
BBX 15 19 1 -1
BITMAP
000E
007E
03FE
03F2
0382
0202
0202
0202
0202
0202
0202
021A
027E
027E
7E7E
FE7E
FE3C
FC00
7C00
ENDCHAR
STARTCHAR E801
ENCODING 59393
SWIDTH 240 0
DWIDTH 6 0
BBX 4 16 0 0
BITMAP
80
00
00
30
30
30
30
30
30
30
30
30
30
30
30
30
ENDCHAR
STARTCHAR E802
ENCODING 59394
SWIDTH 520 0
DWIDTH 13 0
BBX 11 18 0 -5
BITMAP
FE00
FF80
01C0
00E0
0060
0060
0060
0060
0060
1060
0060
1060
0060
0060
0060
0060
0060
0060
ENDCHAR
STARTCHAR E803
ENCODING 59395
SWIDTH 520 0
DWIDTH 13 0
BBX 11 18 0 -5
BITMAP
FE00
FF80
01C0
00E0
0060
0060
0060
0060
0060
3E60
0860
0860
0060
0060
0060
0060
0060
0060
ENDCHAR
STARTCHAR E804
ENCODING 59396
SWIDTH 480 0
DWIDTH 12 0
BBX 12 18 -1 0
BITMAP
3000
3000
B000
3000
3000
3FF0
3FF0
0030
0030
0030
0030
0060
00E0
01C0
0180
0180
0180
0180
ENDCHAR
STARTCHAR E805
ENCODING 59397
SWIDTH 480 0
DWIDTH 12 0
BBX 12 18 -1 0
BITMAP
3000
3000
B000
3000
3000
3FF0
3FF0
0030
0030
0030
0430
0060
00E0
01C0
0180
0180
0180
0180
ENDCHAR
STARTCHAR E818
ENCODING 59416
SWIDTH 200 0
DWIDTH 5 0
BBX 7 7 0 15
BITMAP
18
60
18
62
12
BC
E0
ENDCHAR
STARTCHAR E83A
ENCODING 59450
SWIDTH 640 0
DWIDTH 16 0
BBX 17 2 -1 4
BITMAP
FFFF80
FFFF80
ENDCHAR
STARTCHAR F001
ENCODING 61441
SWIDTH 520 0
DWIDTH 13 0
BBX 11 18 0 0
BITMAP
1E60
3E60
3000
3000
3000
FC60
FC60
3060
3060
3060
3060
3060
3060
3060
3060
3060
3060
3060
ENDCHAR
STARTCHAR F002
ENCODING 61442
SWIDTH 520 0
DWIDTH 13 0
BBX 11 18 0 0
BITMAP
1E60
3E60
3060
3060
3060
FC60
FC60
3060
3060
3060
3060
3060
3060
3060
3060
3060
3060
3060
ENDCHAR
STARTCHAR F004
ENCODING 61444
SWIDTH 320 0
DWIDTH 8 0
BBX 2 5 3 -7
BITMAP
C0
C0
40
40
80
ENDCHAR
STARTCHAR F005
ENCODING 61445
SWIDTH 320 0
DWIDTH 8 0
BBX 5 4 1 -5
BITMAP
70
18
18
F0
ENDCHAR
STARTCHAR F006
ENCODING 61446
SWIDTH 0 0
DWIDTH 0 0
BBX 4 2 -6 21
BITMAP
70
E0
ENDCHAR
STARTCHAR F007
ENCODING 61447
SWIDTH 0 0
DWIDTH 0 0
BBX 4 2 -10 21
BITMAP
70
E0
ENDCHAR
STARTCHAR F008
ENCODING 61448
SWIDTH 0 0
DWIDTH 0 0
BBX 5 3 -4 15
BITMAP
38
70
E0
ENDCHAR
STARTCHAR F009
ENCODING 61449
SWIDTH 0 0
DWIDTH 0 0
BBX 5 3 -8 19
BITMAP
38
70
E0
ENDCHAR
STARTCHAR F00A
ENCODING 61450
SWIDTH 0 0
DWIDTH 0 0
BBX 1 27 0 -5
BITMAP
80
80
80
80
80
80
80
80
80
80
80
00
00
00
00
80
80
80
80
80
80
80
80
80
80
80
80
ENDCHAR
STARTCHAR F00B
ENCODING 61451
SWIDTH 0 0
DWIDTH 0 0
BBX 5 27 -2 -5
BITMAP
F8
20
20
20
20
20
20
20
20
20
20
20
20
20
20
20
20
20
20
20
20
20
20
20
20
20
F8
ENDCHAR
STARTCHAR F00C
ENCODING 61452
SWIDTH 0 0
DWIDTH 0 0
BBX 3 27 0 -5
BITMAP
80
C0
E0
C0
80
80
80
80
80
80
80
80
80
80
80
80
80
80
80
80
80
80
80
80
80
80
80
ENDCHAR
STARTCHAR F00D
ENCODING 61453
SWIDTH 0 0
DWIDTH 0 0
BBX 3 27 -2 -5
BITMAP
20
60
E0
60
20
20
20
20
20
20
20
20
20
20
20
20
20
20
20
20
20
20
20
20
20
20
20
ENDCHAR
STARTCHAR F00E
ENCODING 61454
SWIDTH 0 0
DWIDTH 0 0
BBX 3 27 0 -5
BITMAP
80
80
80
80
80
80
80
80
80
80
80
80
80
80
80
80
80
80
80
80
80
80
80
80
80
80
E0
ENDCHAR
STARTCHAR F00F
ENCODING 61455
SWIDTH 0 0
DWIDTH 0 0
BBX 5 3 -10 15
BITMAP
E0
70
38
ENDCHAR
STARTCHAR F010
ENCODING 61456
SWIDTH 0 0
DWIDTH 0 0
BBX 5 2 -6 21
BITMAP
F8
30
ENDCHAR
STARTCHAR F011
ENCODING 61457
SWIDTH 0 0
DWIDTH 0 0
BBX 5 2 -12 21
BITMAP
F8
30
ENDCHAR
STARTCHAR F012
ENCODING 61458
SWIDTH 0 0
DWIDTH 0 0
BBX 5 4 -6 15
BITMAP
F0
18
18
30
ENDCHAR
STARTCHAR F013
ENCODING 61459
SWIDTH 0 0
DWIDTH 0 0
BBX 5 4 -9 19
BITMAP
F0
18
38
20
ENDCHAR
STARTCHAR F014
ENCODING 61460
SWIDTH 0 0
DWIDTH 0 0
BBX 5 4 -9 15
BITMAP
F0
18
18
30
ENDCHAR
STARTCHAR F015
ENCODING 61461
SWIDTH 0 0
DWIDTH 0 0
BBX 8 2 -12 21
BITMAP
71
8E
ENDCHAR
STARTCHAR F016
ENCODING 61462
SWIDTH 0 0
DWIDTH 0 0
BBX 9 3 -14 19
BITMAP
7180
FF80
C700
ENDCHAR
STARTCHAR F017
ENCODING 61463
SWIDTH 0 0
DWIDTH 0 0
BBX 9 3 -16 19
BITMAP
7180
FF80
C700
ENDCHAR
STARTCHAR F018
ENCODING 61464
SWIDTH 0 0
DWIDTH 0 0
BBX 9 3 -17 19
BITMAP
7180
FF80
C700
ENDCHAR
STARTCHAR F019
ENCODING 61465
SWIDTH 0 0
DWIDTH 0 0
BBX 9 3 -11 15
BITMAP
7180
FF80
C700
ENDCHAR
STARTCHAR F01A
ENCODING 61466
SWIDTH 0 0
DWIDTH 0 0
BBX 9 3 -14 15
BITMAP
7180
FF80
C700
ENDCHAR
STARTCHAR F01B
ENCODING 61467
SWIDTH 0 0
DWIDTH 0 0
BBX 9 3 -15 15
BITMAP
7180
FF80
C700
ENDCHAR
STARTCHAR F01C
ENCODING 61468
SWIDTH 0 0
DWIDTH 0 0
BBX 9 3 -8 19
BITMAP
7180
FF80
C700
ENDCHAR
STARTCHAR F01D
ENCODING 61469
SWIDTH 0 0
DWIDTH 0 0
BBX 9 3 -7 15
BITMAP
7180
FF80
C700
ENDCHAR
STARTCHAR F01E
ENCODING 61470
SWIDTH 0 0
DWIDTH 0 0
BBX 2 2 -9 -4
BITMAP
C0
C0
ENDCHAR
STARTCHAR F01F
ENCODING 61471
SWIDTH 0 0
DWIDTH 0 0
BBX 2 2 -11 -4
BITMAP
C0
C0
ENDCHAR
STARTCHAR F020
ENCODING 61472
SWIDTH 0 0
DWIDTH 0 0
BBX 2 2 -13 -4
BITMAP
C0
C0
ENDCHAR
STARTCHAR F021
ENCODING 61473
SWIDTH 0 0
DWIDTH 0 0
BBX 2 2 -10 -4
BITMAP
C0
C0
ENDCHAR
STARTCHAR F022
ENCODING 61474
SWIDTH 0 0
DWIDTH 0 0
BBX 2 2 -14 -4
BITMAP
C0
C0
ENDCHAR
STARTCHAR F023
ENCODING 61475
SWIDTH 0 0
DWIDTH 0 0
BBX 2 2 -8 -4
BITMAP
C0
C0
ENDCHAR
STARTCHAR F024
ENCODING 61476
SWIDTH 0 0
DWIDTH 0 0
BBX 2 2 -8 -4
BITMAP
C0
C0
ENDCHAR
STARTCHAR F025
ENCODING 61477
SWIDTH 0 0
DWIDTH 0 0
BBX 2 2 -8 -4
BITMAP
C0
C0
ENDCHAR
STARTCHAR F026
ENCODING 61478
SWIDTH 0 0
DWIDTH 0 0
BBX 2 2 -11 -4
BITMAP
C0
C0
ENDCHAR
STARTCHAR F027
ENCODING 61479
SWIDTH 0 0
DWIDTH 0 0
BBX 2 2 -9 -4
BITMAP
C0
C0
ENDCHAR
STARTCHAR F028
ENCODING 61480
SWIDTH 0 0
DWIDTH 0 0
BBX 2 2 -12 -4
BITMAP
C0
C0
ENDCHAR
STARTCHAR F029
ENCODING 61481
SWIDTH 0 0
DWIDTH 0 0
BBX 2 2 -5 -4
BITMAP
C0
C0
ENDCHAR
STARTCHAR F02A
ENCODING 61482
SWIDTH 0 0
DWIDTH 0 0
BBX 2 2 -4 -4
BITMAP
C0
C0
ENDCHAR
STARTCHAR F02B
ENCODING 61483
SWIDTH 0 0
DWIDTH 0 0
BBX 2 2 -10 -4
BITMAP
C0
C0
ENDCHAR
STARTCHAR F02C
ENCODING 61484
SWIDTH 0 0
DWIDTH 0 0
BBX 2 2 -3 -4
BITMAP
C0
C0
ENDCHAR
STARTCHAR F02D
ENCODING 61485
SWIDTH 0 0
DWIDTH 0 0
BBX 8 2 -12 21
BITMAP
71
8E
ENDCHAR
STARTCHAR F02E
ENCODING 61486
SWIDTH 0 0
DWIDTH 0 0
BBX 9 3 -13 19
BITMAP
7180
FF80
C700
ENDCHAR
STARTCHAR F02F
ENCODING 61487
SWIDTH 0 0
DWIDTH 0 0
BBX 8 2 -14 21
BITMAP
71
8E
ENDCHAR
STARTCHAR F030
ENCODING 61488
SWIDTH 0 0
DWIDTH 0 0
BBX 9 3 -14 19
BITMAP
7180
FF80
C700
ENDCHAR
STARTCHAR F031
ENCODING 61489
SWIDTH 240 0
DWIDTH 6 0
BBX 2 13 2 0
BITMAP
C0
C0
C0
C0
C0
C0
C0
C0
C0
C0
C0
C0
C0
ENDCHAR
STARTCHAR FB01
ENCODING 64257
SWIDTH 520 0
DWIDTH 13 0
BBX 11 18 0 0
BITMAP
1E60
3E60
3000
3000
3000
FC60
FC60
3060
3060
3060
3060
3060
3060
3060
3060
3060
3060
3060
ENDCHAR
STARTCHAR FB02
ENCODING 64258
SWIDTH 520 0
DWIDTH 13 0
BBX 11 18 0 0
BITMAP
1E60
3E60
3060
3060
3060
FC60
FC60
3060
3060
3060
3060
3060
3060
3060
3060
3060
3060
3060
ENDCHAR
STARTCHAR FB1D
ENCODING 64285
SWIDTH 240 0
DWIDTH 6 0
BBX 2 9 2 4
BITMAP
C0
C0
C0
C0
C0
C0
C0
00
40
ENDCHAR
STARTCHAR FB1E
ENCODING 64286
SWIDTH 0 0
DWIDTH 0 0
BBX 8 4 -4 15
BITMAP
C3
E7
7E
3C
ENDCHAR
STARTCHAR FB1F
ENCODING 64287
SWIDTH 480 0
DWIDTH 12 0
BBX 9 9 2 4
BITMAP
C300
C300
C300
C300
C300
C300
C300
0000
FF80
ENDCHAR
STARTCHAR FB20
ENCODING 64288
SWIDTH 520 0
DWIDTH 13 0
BBX 11 13 0 0
BITMAP
6060
6060
3060
3060
3060
3060
3860
18C0
18C0
18C0
19C0
FF80
FE00
ENDCHAR
STARTCHAR FB2A
ENCODING 64298
SWIDTH 680 0
DWIDTH 17 0
BBX 15 16 1 0
BITMAP
0004
0000
0000
C306
C306
C306
C306
C706
CE0C
FE0C
780C
600C
6018
3838
1FF0
0FC0
ENDCHAR
STARTCHAR FB2B
ENCODING 64299
SWIDTH 680 0
DWIDTH 17 0
BBX 15 16 1 0
BITMAP
8000
0000
0000
C306
C306
C306
C306
C706
CE0C
FE0C
780C
600C
6018
3838
1FF0
0FC0
ENDCHAR
STARTCHAR FB2C
ENCODING 64300
SWIDTH 680 0
DWIDTH 17 0
BBX 15 16 1 0
BITMAP
0004
0000
0000
C306
C306
C306
C306
C706
CE0C
FE0C
788C
600C
6018
3838
1FF0
0FC0
ENDCHAR
STARTCHAR FB2D
ENCODING 64301
SWIDTH 680 0
DWIDTH 17 0
BBX 15 16 1 0
BITMAP
8000
0000
0000
C306
C306
C306
C306
C706
CE0C
FE0C
788C
600C
6018
3838
1FF0
0FC0
ENDCHAR
STARTCHAR FB2E
ENCODING 64302
SWIDTH 560 0
DWIDTH 14 0
BBX 13 17 1 -4
BITMAP
E030
7030
3030
1870
1C60
3EE0
77C0
6380
E180
C0C0
C060
C070
C038
0000
0000
0000
0F80
ENDCHAR
STARTCHAR FB2F
ENCODING 64303
SWIDTH 560 0
DWIDTH 14 0
BBX 13 19 1 -6
BITMAP
E030
7030
3030
1870
1C60
3EE0
77C0
6380
E180
C0C0
C060
C070
C038
0000
0000
0000
0F80
0200
0200
ENDCHAR
STARTCHAR FB30
ENCODING 64304
SWIDTH 560 0
DWIDTH 14 0
BBX 13 13 1 0
BITMAP
E030
7030
3030
1870
1C60
3EE0
77C0
6380
6180
C0C0
C860
C070
C038
ENDCHAR
STARTCHAR FB31
ENCODING 64305
SWIDTH 560 0
DWIDTH 14 0
BBX 12 13 1 0
BITMAP
FE00
FF00
0380
01C0
00C0
10C0
00C0
00C0
00C0
00C0
00C0
FFF0
FFF0
ENDCHAR
STARTCHAR FB32
ENCODING 64306
SWIDTH 400 0
DWIDTH 10 0
BBX 9 13 0 0
BITMAP
7C00
7E00
0700
0300
1300
0300
0300
0F00
3F00
3300
6380
E180
C180
ENDCHAR
STARTCHAR FB33
ENCODING 64307
SWIDTH 520 0
DWIDTH 13 0
BBX 11 13 1 0
BITMAP
FFE0
FFE0
0180
0180
0180
1180
0180
0180
0180
0180
0180
0180
0180
ENDCHAR
STARTCHAR FB34
ENCODING 64308
SWIDTH 600 0
DWIDTH 15 0
BBX 11 13 2 0
BITMAP
FF00
FFC0
01C0
00E0
0060
0060
C460
C060
C060
C060
C060
C060
C060
ENDCHAR
STARTCHAR FB35
ENCODING 64309
SWIDTH 280 0
DWIDTH 7 0
BBX 5 13 0 0
BITMAP
18
18
18
18
18
98
18
18
18
18
18
18
18
ENDCHAR
STARTCHAR FB36
ENCODING 64310
SWIDTH 400 0
DWIDTH 10 0
BBX 9 13 0 0
BITMAP
7F80
7F80
0600
0600
8C00
0C00
0C00
0C00
0C00
0C00
0C00
0C00
0C00
ENDCHAR
STARTCHAR FB38
ENCODING 64312
SWIDTH 600 0
DWIDTH 15 0
BBX 11 13 2 0
BITMAP
C780
CFC0
C8E0
C060
C060
C460
C060
C060
C060
E0E0
71C0
3F80
1F00
ENDCHAR
STARTCHAR FB39
ENCODING 64313
SWIDTH 280 0
DWIDTH 7 0
BBX 5 7 0 6
BITMAP
18
18
18
98
18
18
18
ENDCHAR
STARTCHAR FB3A
ENCODING 64314
SWIDTH 520 0
DWIDTH 13 0
BBX 11 18 0 -5
BITMAP
FE00
FF80
01C0
00E0
0060
0060
0860
0060
0060
0060
0060
0060
0060
0060
0060
0060
0060
0060
ENDCHAR
STARTCHAR FB3B
ENCODING 64315
SWIDTH 480 0
DWIDTH 12 0
BBX 10 13 1 0
BITMAP
FC00
FF00
0780
0180
00C0
10C0
00C0
00C0
00C0
0180
0780
FF00
FC00
ENDCHAR
STARTCHAR FB3C
ENCODING 64316
SWIDTH 480 0
DWIDTH 12 0
BBX 10 18 1 0
BITMAP
C000
C000
C000
C000
C000
FFC0
FFC0
00C0
00C0
00C0
10C0
0180
0380
0700
0600
0600
0600
0600
ENDCHAR
STARTCHAR FB3E
ENCODING 64318
SWIDTH 600 0
DWIDTH 15 0
BBX 12 13 1 0
BITMAP
C780
CFE0
5C60
7830
7030
3130
6030
6030
6030
6030
6030
C7F0
C7F0
ENDCHAR
STARTCHAR FB40
ENCODING 64320
SWIDTH 360 0
DWIDTH 9 0
BBX 6 13 1 0
BITMAP
F0
F8
1C
0C
0C
4C
0C
0C
0C
0C
0C
FC
FC
ENDCHAR
STARTCHAR FB41
ENCODING 64321
SWIDTH 560 0
DWIDTH 14 0
BBX 12 13 1 0
BITMAP
1F00
3FC0
70E0
6060
C030
C030
C430
C030
C030
6060
70E0
3FC0
1F80
ENDCHAR
STARTCHAR FB43
ENCODING 64323
SWIDTH 560 0
DWIDTH 14 0
BBX 11 18 1 -5
BITMAP
7E00
FF80
C1C0
C0E0
C060
C060
C060
F260
7060
0060
0060
0060
0060
0060
0060
0060
0060
0060
ENDCHAR
STARTCHAR FB44
ENCODING 64324
SWIDTH 560 0
DWIDTH 14 0
BBX 12 13 1 0
BITMAP
7F00
FFC0
C1E0
C060
C030
C030
F830
3930
0030
0060
41E0
FFC0
7F00
ENDCHAR
STARTCHAR FB46
ENCODING 64326
SWIDTH 480 0
DWIDTH 12 0
BBX 10 13 1 0
BITMAP
C0C0
60C0
70C0
30C0
3980
1B80
8E00
0C00
0600
0300
0300
FF80
FF80
ENDCHAR
STARTCHAR FB47
ENCODING 64327
SWIDTH 560 0
DWIDTH 14 0
BBX 11 18 2 -5
BITMAP
FFE0
FFE0
0060
0060
0060
0860
C0C0
C1C0
C380
C300
C300
C300
C300
C000
C000
C000
C000
C000
ENDCHAR
STARTCHAR FB48
ENCODING 64328
SWIDTH 520 0
DWIDTH 13 0
BBX 10 13 1 0
BITMAP
FE00
FF00
0380
01C0
00C0
00C0
10C0
00C0
00C0
00C0
00C0
00C0
00C0
ENDCHAR
STARTCHAR FB49
ENCODING 64329
SWIDTH 680 0
DWIDTH 17 0
BBX 15 13 1 0
BITMAP
C306
C306
C306
C306
C706
CE0C
FE0C
788C
600C
6018
3838
1FF0
0FC0
ENDCHAR
STARTCHAR FB4A
ENCODING 64330
SWIDTH 640 0
DWIDTH 16 0
BBX 13 13 1 0
BITMAP
FFC0
FFF0
1870
1838
1818
1818
1898
1818
1818
1818
1818
F818
F018
ENDCHAR
STARTCHAR FB4B
ENCODING 64331
SWIDTH 240 0
DWIDTH 6 0
BBX 2 16 2 0
BITMAP
80
00
00
C0
C0
C0
C0
C0
C0
C0
C0
C0
C0
C0
C0
C0
ENDCHAR
STARTCHAR FB4C
ENCODING 64332
SWIDTH 560 0
DWIDTH 14 0
BBX 12 16 1 0
BITMAP
3E00
0000
0000
FE00
FF00
0380
01C0
00C0
00C0
00C0
00C0
00C0
00C0
00C0
FFF0
FFF0
ENDCHAR
STARTCHAR FB4D
ENCODING 64333
SWIDTH 480 0
DWIDTH 12 0
BBX 10 16 1 0
BITMAP
3E00
0000
0000
FC00
FF00
0780
0180
00C0
00C0
00C0
00C0
00C0
0180
0780
FF00
FC00
ENDCHAR
STARTCHAR FB4E
ENCODING 64334
SWIDTH 560 0
DWIDTH 14 0
BBX 12 16 1 0
BITMAP
1F00
0000
0000
7F00
FFC0
C1E0
C060
C030
C030
F830
7830
0030
0060
41E0
FFC0
7F00
ENDCHAR
STARTCHAR FB4F
ENCODING 64335
SWIDTH 560 0
DWIDTH 14 0
BBX 14 18 0 0
BITMAP
C000
C000
C000
C000
C000
E018
F018
1818
0C38
0E30
1F70
3BE0
31C0
30C0
6060
6030
6038
601C
ENDCHAR
STARTCHAR FB50
ENCODING 64336
SWIDTH 200 0
DWIDTH 5 0
BBX 5 19 0 3
BITMAP
38
68
F0
80
10
10
10
10
10
10
10
10
10
10
10
10
10
10
10
ENDCHAR
STARTCHAR FB51
ENCODING 64337
SWIDTH 240 0
DWIDTH 6 0
BBX 6 18 0 4
BITMAP
38
68
F0
80
20
60
60
20
20
20
20
20
20
20
20
30
1C
1C
ENDCHAR
STARTCHAR FB52
ENCODING 64338
SWIDTH 720 0
DWIDTH 18 0
BBX 17 16 1 -4
BITMAP
400100
800100
800180
800080
800080
E00080
7FFF80
3FFF80
000000
000000
008000
01C000
008000
004000
00E000
004000
ENDCHAR
STARTCHAR FB53
ENCODING 64339
SWIDTH 720 0
DWIDTH 18 0
BBX 17 16 1 -4
BITMAP
400100
800100
800180
800080
800080
E00080
7FFF80
3FFF80
000000
000000
008000
01C000
008000
004000
00E000
004000
ENDCHAR
STARTCHAR FB54
ENCODING 64340
SWIDTH 240 0
DWIDTH 6 0
BBX 7 16 -1 -4
BITMAP
04
0E
06
06
02
02
FE
FE
00
00
10
38
10
08
1C
08
ENDCHAR
STARTCHAR FB55
ENCODING 64341
SWIDTH 240 0
DWIDTH 6 0
BBX 7 16 -1 -4
BITMAP
04
0E
06
06
02
02
FE
FE
00
00
10
38
10
08
1C
08
ENDCHAR
STARTCHAR FB56
ENCODING 64342
SWIDTH 720 0
DWIDTH 18 0
BBX 17 16 1 -4
BITMAP
400100
800100
800180
800080
800080
E00080
7FFF80
3FFF80
000000
000000
002000
017000
03A000
014000
00E000
004000
ENDCHAR
STARTCHAR FB57
ENCODING 64343
SWIDTH 720 0
DWIDTH 18 0
BBX 17 16 1 -4
BITMAP
400100
800100
800180
800080
800080
E00080
7FFF80
3FFF80
000000
000000
002000
017000
03A000
014000
00E000
004000
ENDCHAR
STARTCHAR FB58
ENCODING 64344
SWIDTH 240 0
DWIDTH 6 0
BBX 7 16 -1 -4
BITMAP
04
06
06
02
02
02
FE
FE
00
00
04
2E
74
28
1C
08
ENDCHAR
STARTCHAR FB59
ENCODING 64345
SWIDTH 240 0
DWIDTH 6 0
BBX 7 16 -1 -4
BITMAP
04
06
06
02
02
02
FE
FE
00
00
04
2E
74
28
1C
08
ENDCHAR
STARTCHAR FB5A
ENCODING 64346
SWIDTH 720 0
DWIDTH 18 0
BBX 17 17 1 -5
BITMAP
400100
800100
800180
800080
800080
E00080
7FFF80
3FFF80
000000
000000
004000
02E000
074000
022000
017000
03A000
010000
ENDCHAR
STARTCHAR FB5B
ENCODING 64347
SWIDTH 720 0
DWIDTH 18 0
BBX 17 17 1 -5
BITMAP
400100
800100
800180
800080
800080
E00080
7FFF80
3FFF80
000000
000000
004000
02E000
074000
022000
017000
03A000
010000
ENDCHAR
STARTCHAR FB5C
ENCODING 64348
SWIDTH 240 0
DWIDTH 6 0
BBX 7 17 -1 -5
BITMAP
04
0E
06
06
02
02
FE
FE
00
00
08
5C
E8
44
2E
74
20
ENDCHAR
STARTCHAR FB5D
ENCODING 64349
SWIDTH 240 0
DWIDTH 6 0
BBX 7 17 -1 -5
BITMAP
04
0E
06
06
02
02
FE
FE
00
00
08
5C
E8
44
2E
74
20
ENDCHAR
STARTCHAR FB5E
ENCODING 64350
SWIDTH 720 0
DWIDTH 18 0
BBX 17 15 1 4
BITMAP
010000
038000
010000
008000
01C000
008000
000000
400100
800100
800180
800080
800080
E00080
7FFF80
3FFF80
ENDCHAR
STARTCHAR FB5F
ENCODING 64351
SWIDTH 720 0
DWIDTH 18 0
BBX 17 15 1 4
BITMAP
010000
038000
010000
008000
01C000
008000
000000
400100
800100
800180
800080
800080
E00080
7FFF80
3FFF80
ENDCHAR
STARTCHAR FB60
ENCODING 64352
SWIDTH 240 0
DWIDTH 6 0
BBX 7 15 -1 4
BITMAP
10
38
10
08
1C
08
00
04
0E
06
06
02
02
FE
FE
ENDCHAR
STARTCHAR FB61
ENCODING 64353
SWIDTH 240 0
DWIDTH 6 0
BBX 7 15 -1 4
BITMAP
10
38
10
08
1C
08
00
04
0E
06
06
02
02
FE
FE
ENDCHAR
STARTCHAR FB62
ENCODING 64354
SWIDTH 720 0
DWIDTH 18 0
BBX 17 15 1 4
BITMAP
004000
02E000
074000
022000
017000
03A000
010000
400100
800100
800180
800080
800080
E00080
7FFF80
3FFF80
ENDCHAR
STARTCHAR FB63
ENCODING 64355
SWIDTH 720 0
DWIDTH 18 0
BBX 17 15 1 4
BITMAP
004000
02E000
074000
022000
017000
03A000
010000
400100
800100
800180
800080
800080
E00080
7FFF80
3FFF80
ENDCHAR
STARTCHAR FB64
ENCODING 64356
SWIDTH 240 0
DWIDTH 6 0
BBX 7 15 -1 4
BITMAP
08
5C
E8
44
2E
74
20
04
0E
06
06
02
02
FE
FE
ENDCHAR
STARTCHAR FB65
ENCODING 64357
SWIDTH 240 0
DWIDTH 6 0
BBX 7 15 -1 4
BITMAP
08
5C
E8
44
2E
74
20
04
0E
06
06
02
02
FE
FE
ENDCHAR
STARTCHAR FB66
ENCODING 64358
SWIDTH 720 0
DWIDTH 18 0
BBX 17 17 1 4
BITMAP
010000
018000
010000
008000
008000
00B800
00C800
07F800
000000
400100
800100
800180
800080
800080
E00080
7FFF80
3FFF80
ENDCHAR
STARTCHAR FB67
ENCODING 64359
SWIDTH 720 0
DWIDTH 18 0
BBX 17 17 1 4
BITMAP
010000
018000
010000
008000
008000
00B800
00C800
07F800
000000
400100
800100
800180
800080
800080
E00080
7FFF80
3FFF80
ENDCHAR
STARTCHAR FB68
ENCODING 64360
SWIDTH 240 0
DWIDTH 6 0
BBX 8 17 -1 4
BITMAP
20
30
20
10
10
17
19
FF
00
04
0E
06
06
02
02
FE
FE
ENDCHAR
STARTCHAR FB69
ENCODING 64361
SWIDTH 240 0
DWIDTH 6 0
BBX 8 17 -1 4
BITMAP
20
30
20
10
10
17
19
FF
00
04
0E
06
06
02
02
FE
FE
ENDCHAR
STARTCHAR FB6A
ENCODING 64362
SWIDTH 800 0
DWIDTH 20 0
BBX 20 16 0 4
BITMAP
000100
000380
000120
000170
0003A0
000100
000000
000000
400060
8000F0
800190
800190
C001F0
F00070
7FFFF0
1FFFF0
ENDCHAR
STARTCHAR FB6B
ENCODING 64363
SWIDTH 800 0
DWIDTH 20 0
BBX 20 16 0 4
BITMAP
000100
000380
000120
000170
0003A0
000100
000000
000000
400060
8000F0
800190
800190
C001F0
F00070
7FFFF0
1FFFF0
ENDCHAR
STARTCHAR FB6C
ENCODING 64364
SWIDTH 280 0
DWIDTH 7 0
BBX 8 17 -1 4
BITMAP
20
70
24
2E
74
20
00
0C
1E
16
13
1F
0F
01
01
FF
FF
ENDCHAR
STARTCHAR FB6D
ENCODING 64365
SWIDTH 280 0
DWIDTH 7 0
BBX 8 16 -1 4
BITMAP
20
70
24
2E
74
20
00
00
0E
1F
13
11
1F
03
FF
FF
ENDCHAR
STARTCHAR FB6E
ENCODING 64366
SWIDTH 800 0
DWIDTH 20 0
BBX 21 15 0 4
BITMAP
000020
000170
0003A0
000110
0000B8
0001D0
000080
400060
8000F0
800190
800190
C001F0
F00070
7FFFF0
1FFFF0
ENDCHAR
STARTCHAR FB6F
ENCODING 64367
SWIDTH 800 0
DWIDTH 20 0
BBX 21 15 0 4
BITMAP
000020
000170
0003A0
000110
0000B8
0001D0
000080
400060
8000F0
800190
800190
C001F0
F00070
7FFFF0
1FFFF0
ENDCHAR
STARTCHAR FB70
ENCODING 64368
SWIDTH 280 0
DWIDTH 7 0
BBX 8 17 -1 4
BITMAP
08
5C
E8
44
2E
74
20
0C
1E
16
13
1F
0F
01
01
FF
FF
ENDCHAR
STARTCHAR FB71
ENCODING 64369
SWIDTH 280 0
DWIDTH 7 0
BBX 8 17 -1 4
BITMAP
08
5C
E8
44
2E
74
20
00
00
0E
1F
13
11
1F
03
FF
FF
ENDCHAR
STARTCHAR FB72
ENCODING 64370
SWIDTH 560 0
DWIDTH 14 0
BBX 11 15 1 -5
BITMAP
7FE0
FFE0
0F00
1800
2000
4400
8E00
8400
8200
8700
C200
E000
7800
3FE0
0FC0
ENDCHAR
STARTCHAR FB73
ENCODING 64371
SWIDTH 520 0
DWIDTH 13 0
BBX 12 15 1 -5
BITMAP
7FE0
FFE0
0700
1900
21F0
48F0
9C00
8800
8400
8E00
C400
E000
7800
3FE0
0FC0
ENDCHAR
STARTCHAR FB74
ENCODING 64372
SWIDTH 520 0
DWIDTH 13 0
BBX 14 15 -1 -4
BITMAP
0F00
1F80
03C0
00E0
0070
FFFC
FFFC
0000
0000
0200
0700
0200
0100
0380
0100
ENDCHAR
STARTCHAR FB75
ENCODING 64373
SWIDTH 520 0
DWIDTH 13 0
BBX 14 15 -1 -4
BITMAP
0F00
1F80
03C0
00E0
0070
FFFC
FFFC
0000
0000
0200
0700
0200
0100
0380
0100
ENDCHAR
STARTCHAR FB76
ENCODING 64374
SWIDTH 560 0
DWIDTH 14 0
BBX 11 15 1 -5
BITMAP
7FE0
FFE0
0F00
1800
2000
4000
8040
82E0
8740
8200
C000
E000
7800
3FE0
0FC0
ENDCHAR
STARTCHAR FB77
ENCODING 64375
SWIDTH 520 0
DWIDTH 13 0
BBX 12 15 1 -5
BITMAP
7FE0
FFE0
0700
1900
21F0
40F0
8200
9700
BA00
9000
C000
E000
7800
3FE0
0FC0
ENDCHAR
STARTCHAR FB78
ENCODING 64376
SWIDTH 520 0
DWIDTH 13 0
BBX 14 13 -1 -2
BITMAP
0F00
1F80
03C0
00E0
0070
FFFC
FFFC
0000
0000
0080
05C0
0E80
0400
ENDCHAR
STARTCHAR FB79
ENCODING 64377
SWIDTH 520 0
DWIDTH 13 0
BBX 14 13 -1 -2
BITMAP
0F00
1F80
03C0
00E0
0070
FFFC
FFFC
0000
0000
0080
05C0
0E80
0400
ENDCHAR
STARTCHAR FB7A
ENCODING 64378
SWIDTH 560 0
DWIDTH 14 0
BBX 11 15 1 -5
BITMAP
7FE0
FFE0
0F00
1800
2000
4080
85C0
8E80
8500
8380
C100
E000
7800
3FE0
0FC0
ENDCHAR
STARTCHAR FB7B
ENCODING 64379
SWIDTH 520 0
DWIDTH 13 0
BBX 12 15 1 -5
BITMAP
7FE0
FFE0
0700
1900
21F0
40F0
8200
9700
BA00
9200
C700
E200
7800
3FE0
0FC0
ENDCHAR
STARTCHAR FB7C
ENCODING 64380
SWIDTH 520 0
DWIDTH 13 0
BBX 14 15 -1 -4
BITMAP
0F00
1F80
03C0
00E0
0070
FFFC
FFFC
0000
0000
0080
05C0
0E80
0480
01C0
0080
ENDCHAR
STARTCHAR FB7D
ENCODING 64381
SWIDTH 520 0
DWIDTH 13 0
BBX 14 15 -1 -4
BITMAP
0F00
1F80
03C0
00E0
0070
FFFC
FFFC
0000
0000
0080
05C0
0E80
0480
01C0
0080
ENDCHAR
STARTCHAR FB7E
ENCODING 64382
SWIDTH 560 0
DWIDTH 14 0
BBX 11 15 1 -5
BITMAP
7FE0
FFE0
0F00
1800
2000
4100
8B80
9D00
8880
85C0
CE80
E400
7800
3FE0
0FC0
ENDCHAR
STARTCHAR FB7F
ENCODING 64383
SWIDTH 520 0
DWIDTH 13 0
BBX 12 15 1 -5
BITMAP
7FE0
FFE0
0700
1900
25F0
6EF0
F400
A200
9700
BA00
D000
E000
7800
3FE0
0FC0
ENDCHAR
STARTCHAR FB80
ENCODING 64384
SWIDTH 520 0
DWIDTH 13 0
BBX 14 16 -1 -5
BITMAP
0F00
1F80
03C0
00E0
0070
FFFC
FFFC
0000
0000
0080
05C0
0E80
0440
02E0
0740
0200
ENDCHAR
STARTCHAR FB81
ENCODING 64385
SWIDTH 520 0
DWIDTH 13 0
BBX 14 16 -1 -5
BITMAP
0F00
1F80
03C0
00E0
0070
FFFC
FFFC
0000
0000
0080
05C0
0E80
0440
02E0
0740
0200
ENDCHAR
STARTCHAR FB82
ENCODING 64386
SWIDTH 320 0
DWIDTH 8 0
BBX 7 16 1 -2
BITMAP
10
18
0C
04
06
02
02
82
FE
FE
00
00
04
2E
74
20
ENDCHAR
STARTCHAR FB83
ENCODING 64387
SWIDTH 320 0
DWIDTH 8 0
BBX 7 16 1 -2
BITMAP
10
18
0C
04
06
02
02
82
FE
FE
00
00
04
2E
74
20
ENDCHAR
STARTCHAR FB84
ENCODING 64388
SWIDTH 320 0
DWIDTH 8 0
BBX 7 15 1 4
BITMAP
04
2E
74
20
00
10
18
0C
04
06
02
02
82
FE
FE
ENDCHAR
STARTCHAR FB85
ENCODING 64389
SWIDTH 320 0
DWIDTH 8 0
BBX 7 15 1 4
BITMAP
04
2E
74
20
00
10
18
0C
04
06
02
02
82
FE
FE
ENDCHAR
STARTCHAR FB86
ENCODING 64390
SWIDTH 320 0
DWIDTH 8 0
BBX 7 18 1 4
BITMAP
40
E0
48
5C
E8
40
00
00
10
18
0C
04
06
02
02
82
FE
FE
ENDCHAR
STARTCHAR FB87
ENCODING 64391
SWIDTH 320 0
DWIDTH 8 0
BBX 7 18 1 4
BITMAP
40
E0
48
5C
E8
40
00
00
10
18
0C
04
06
02
02
82
FE
FE
ENDCHAR
ENDFONT
